<ttFont>
    <TTGlyph name=".notdef" xMin="40" yMin="0" xMax="1083" yMax="1457">
      <contour>
        <pt x="230" y="1152" on="1"/>
        <pt x="292" y="1200" on="0"/>
        <pt x="448" y="1263" on="0"/>
        <pt x="553" y="1263" on="1"/>
        <pt x="631" y="1263" on="0"/>
        <pt x="750" y="1223" on="0"/>
        <pt x="832" y="1151" on="0"/>
        <pt x="874" y="1049" on="0"/>
        <pt x="874" y="987" on="1"/>
        <pt x="874" y="932" on="0"/>
        <pt x="848" y="852" on="0"/>
        <pt x="809" y="794" on="0"/>
        <pt x="762" y="752" on="0"/>
        <pt x="718" y="716" on="0"/>
        <pt x="684" y="682" on="0"/>
        <pt x="678" y="661" on="1"/>
        <pt x="651" y="571" on="1"/>
        <pt x="439" y="571" on="1"/>
        <pt x="417" y="683" on="1"/>
        <pt x="414" y="699" on="0"/>
        <pt x="414" y="714" on="1"/>
        <pt x="414" y="745" on="0"/>
        <pt x="440" y="791" on="0"/>
        <pt x="478" y="829" on="0"/>
        <pt x="523" y="861" on="0"/>
        <pt x="561" y="897" on="0"/>
        <pt x="587" y="939" on="0"/>
        <pt x="587" y="968" on="1"/>
        <pt x="587" y="991" on="0"/>
        <pt x="561" y="1022" on="0"/>
        <pt x="525" y="1022" on="1"/>
        <pt x="493" y="1022" on="0"/>
        <pt x="451" y="1012" on="0"/>
        <pt x="420" y="999" on="0"/>
        <pt x="393" y="989" on="0"/>
        <pt x="375" y="989" on="1"/>
        <pt x="332" y="989" on="0"/>
        <pt x="312" y="1025" on="1"/>
      </contour>
      <contour>
        <pt x="374" y="331" on="1"/>
        <pt x="374" y="364" on="0"/>
        <pt x="398" y="421" on="0"/>
        <pt x="442" y="463" on="0"/>
        <pt x="500" y="487" on="0"/>
        <pt x="535" y="487" on="1"/>
        <pt x="568" y="487" on="0"/>
        <pt x="626" y="463" on="0"/>
        <pt x="669" y="421" on="0"/>
        <pt x="694" y="364" on="0"/>
        <pt x="694" y="331" on="1"/>
        <pt x="694" y="298" on="0"/>
        <pt x="669" y="241" on="0"/>
        <pt x="626" y="199" on="0"/>
        <pt x="568" y="175" on="0"/>
        <pt x="535" y="175" on="1"/>
        <pt x="500" y="175" on="0"/>
        <pt x="442" y="199" on="0"/>
        <pt x="398" y="241" on="0"/>
        <pt x="374" y="298" on="0"/>
      </contour>
      <contour>
        <pt x="40" y="1457" on="1"/>
        <pt x="1083" y="1457" on="1"/>
        <pt x="1083" y="0" on="1"/>
        <pt x="40" y="0" on="1"/>
      </contour>
      <contour>
        <pt x="117" y="80" on="1"/>
        <pt x="996" y="80" on="1"/>
        <pt x="996" y="1377" on="1"/>
        <pt x="117" y="1377" on="1"/>
      </contour>
    </TTGlyph>
    <TTGlyph name="A" xMin="-80" yMin="0" xMax="1288" yMax="1457">
      <contour>
        <pt x="1288" y="0" on="1"/>
        <pt x="1036" y="0" on="1"/>
        <pt x="994" y="0" on="0"/>
        <pt x="943" y="39" on="0"/>
        <pt x="938" y="71" on="1"/>
        <pt x="893" y="333" on="1"/>
        <pt x="398" y="333" on="1"/>
        <pt x="290" y="71" on="1"/>
        <pt x="279" y="43" on="0"/>
        <pt x="215" y="0" on="0"/>
        <pt x="176" y="0" on="1"/>
        <pt x="-80" y="0" on="1"/>
        <pt x="616" y="1457" on="1"/>
        <pt x="950" y="1457" on="1"/>
      </contour>
      <contour>
        <pt x="489" y="555" on="1"/>
        <pt x="855" y="555" on="1"/>
        <pt x="784" y="971" on="1"/>
        <pt x="775" y="1023" on="0"/>
        <pt x="754" y="1130" on="0"/>
        <pt x="747" y="1174" on="1"/>
        <pt x="739" y="1150" on="0"/>
        <pt x="713" y="1089" on="0"/>
        <pt x="688" y="1031" on="0"/>
        <pt x="665" y="981" on="0"/>
        <pt x="660" y="969" on="1"/>
      </contour>
    </TTGlyph>
    <TTGlyph name="AE" xMin="-102" yMin="0" xMax="1772" yMax="1457">
      <contour>
        <pt x="716" y="1457" on="1"/>
        <pt x="1772" y="1457" on="1"/>
        <pt x="1740" y="1206" on="1"/>
        <pt x="1142" y="1206" on="1"/>
        <pt x="1142" y="852" on="1"/>
        <pt x="1568" y="852" on="1"/>
        <pt x="1538" y="610" on="1"/>
        <pt x="1142" y="610" on="1"/>
        <pt x="1142" y="251" on="1"/>
        <pt x="1624" y="251" on="1"/>
        <pt x="1592" y="0" on="1"/>
        <pt x="834" y="0" on="1"/>
        <pt x="834" y="333" on="1"/>
        <pt x="405" y="333" on="1"/>
        <pt x="274" y="71" on="1"/>
        <pt x="260" y="42" on="0"/>
        <pt x="193" y="0" on="0"/>
        <pt x="152" y="0" on="1"/>
        <pt x="-102" y="0" on="1"/>
      </contour>
      <contour>
        <pt x="516" y="555" on="1"/>
        <pt x="834" y="555" on="1"/>
        <pt x="834" y="1198" on="1"/>
        <pt x="813" y="1147" on="0"/>
        <pt x="771" y="1057" on="0"/>
        <pt x="748" y="1019" on="1"/>
      </contour>
    </TTGlyph>
    <TTGlyph name="Aacute" xMin="-80" yMin="0" xMax="1288" yMax="1796">
      <component glyphName="A" x="0" y="0" flags="0x204"/>
      <component glyphName="acute.case" x="388" y="0" flags="0x4"/>
    </TTGlyph>
    <TTGlyph name="Acircumflex" xMin="-80" yMin="0" xMax="1288" yMax="1776">
      <component glyphName="A" x="0" y="0" flags="0x204"/>
      <component glyphName="circumflex.case" x="358" y="0" flags="0x4"/>
    </TTGlyph>
    <TTGlyph name="Adieresis" xMin="-80" yMin="0" xMax="1288" yMax="1804">
      <component glyphName="A" x="0" y="0" flags="0x204"/>
      <component glyphName="dieresis.case" x="358" y="0" flags="0x4"/>
    </TTGlyph>
    <TTGlyph name="Agrave" xMin="-80" yMin="0" xMax="1288" yMax="1796">
      <component glyphName="A" x="0" y="0" flags="0x204"/>
      <component glyphName="grave.case" x="358" y="0" flags="0x4"/>
    </TTGlyph>
    <TTGlyph name="Aogonek" xMin="-80" yMin="-347" xMax="1292" yMax="1457">
      <contour>
        <pt x="1238" y="-171" on="1"/>
        <pt x="1259" y="-171" on="0"/>
        <pt x="1262" y="-190" on="1"/>
        <pt x="1292" y="-297" on="1"/>
        <pt x="1257" y="-318" on="0"/>
        <pt x="1156" y="-347" on="0"/>
        <pt x="1102" y="-347" on="1"/>
        <pt x="1008" y="-347" on="0"/>
        <pt x="916" y="-271" on="0"/>
        <pt x="916" y="-214" on="1"/>
        <pt x="916" y="-158" on="0"/>
        <pt x="989" y="-48" on="0"/>
        <pt x="1072" y="0" on="1"/>
        <pt x="1036" y="0" on="1"/>
        <pt x="994" y="0" on="0"/>
        <pt x="943" y="39" on="0"/>
        <pt x="938" y="71" on="1"/>
        <pt x="893" y="333" on="1"/>
        <pt x="398" y="333" on="1"/>
        <pt x="290" y="71" on="1"/>
        <pt x="279" y="43" on="0"/>
        <pt x="215" y="0" on="0"/>
        <pt x="176" y="0" on="1"/>
        <pt x="-80" y="0" on="1"/>
        <pt x="616" y="1457" on="1"/>
        <pt x="950" y="1457" on="1"/>
        <pt x="1288" y="0" on="1"/>
        <pt x="1246" y="0" on="1"/>
        <pt x="1204" y="-23" on="0"/>
        <pt x="1146" y="-91" on="0"/>
        <pt x="1146" y="-134" on="1"/>
        <pt x="1146" y="-154" on="0"/>
        <pt x="1166" y="-180" on="0"/>
        <pt x="1186" y="-180" on="1"/>
        <pt x="1213" y="-180" on="0"/>
        <pt x="1229" y="-171" on="0"/>
      </contour>
      <contour>
        <pt x="489" y="555" on="1"/>
        <pt x="855" y="555" on="1"/>
        <pt x="784" y="971" on="1"/>
        <pt x="776" y="1013" on="0"/>
        <pt x="756" y="1117" on="0"/>
        <pt x="746" y="1175" on="1"/>
        <pt x="724" y="1116" on="0"/>
        <pt x="680" y="1011" on="0"/>
        <pt x="660" y="969" on="1"/>
      </contour>
    </TTGlyph>
    <TTGlyph name="Aring" xMin="-80" yMin="0" xMax="1288" yMax="1904">
      <component glyphName="A" x="0" y="0" flags="0x204"/>
      <component glyphName="ring.case" x="362" y="0" flags="0x4"/>
    </TTGlyph>
    <TTGlyph name="Atilde" xMin="-80" yMin="0" xMax="1288" yMax="1784">
      <component glyphName="A" x="0" y="0" flags="0x204"/>
      <component glyphName="tilde.case" x="358" y="0" flags="0x4"/>
    </TTGlyph>
    <TTGlyph name="B" xMin="44" yMin="0" xMax="1200" yMax="1457">
      <contour>
        <pt x="44" y="0" on="1"/>
        <pt x="224" y="1457" on="1"/>
        <pt x="724" y="1457" on="1"/>
        <pt x="851" y="1457" on="0"/>
        <pt x="1032" y="1409" on="0"/>
        <pt x="1147" y="1320" on="0"/>
        <pt x="1200" y="1195" on="0"/>
        <pt x="1200" y="1119" on="1"/>
        <pt x="1200" y="1059" on="0"/>
        <pt x="1169" y="948" on="0"/>
        <pt x="1102" y="854" on="0"/>
        <pt x="996" y="777" on="0"/>
        <pt x="921" y="751" on="1"/>
        <pt x="1039" y="719" on="0"/>
        <pt x="1152" y="584" on="0"/>
        <pt x="1152" y="481" on="1"/>
        <pt x="1152" y="380" on="0"/>
        <pt x="1075" y="205" on="0"/>
        <pt x="929" y="75" on="0"/>
        <pt x="720" y="0" on="0"/>
        <pt x="588" y="0" on="1"/>
      </contour>
      <contour>
        <pt x="446" y="622" on="1"/>
        <pt x="400" y="245" on="1"/>
        <pt x="614" y="245" on="1"/>
        <pt x="674" y="245" on="0"/>
        <pt x="756" y="280" on="0"/>
        <pt x="807" y="343" on="0"/>
        <pt x="830" y="427" on="0"/>
        <pt x="830" y="477" on="1"/>
        <pt x="830" y="510" on="0"/>
        <pt x="813" y="564" on="0"/>
        <pt x="772" y="601" on="0"/>
        <pt x="705" y="622" on="0"/>
        <pt x="656" y="622" on="1"/>
      </contour>
      <contour>
        <pt x="472" y="838" on="1"/>
        <pt x="628" y="838" on="1"/>
        <pt x="683" y="838" on="0"/>
        <pt x="771" y="860" on="0"/>
        <pt x="834" y="913" on="0"/>
        <pt x="868" y="1001" on="0"/>
        <pt x="868" y="1066" on="1"/>
        <pt x="868" y="1147" on="0"/>
        <pt x="783" y="1214" on="0"/>
        <pt x="694" y="1214" on="1"/>
        <pt x="518" y="1214" on="1"/>
      </contour>
    </TTGlyph>
    <TTGlyph name="C" xMin="50" yMin="-16" xMax="1278" yMax="1473">
      <contour>
        <pt x="678" y="252" on="1"/>
        <pt x="733" y="252" on="0"/>
        <pt x="814" y="269" on="0"/>
        <pt x="872" y="295" on="0"/>
        <pt x="912" y="326" on="0"/>
        <pt x="944" y="352" on="0"/>
        <pt x="972" y="369" on="0"/>
        <pt x="988" y="369" on="1"/>
        <pt x="1004" y="369" on="0"/>
        <pt x="1025" y="358" on="0"/>
        <pt x="1030" y="351" on="1"/>
        <pt x="1144" y="214" on="1"/>
        <pt x="1049" y="101" on="0"/>
        <pt x="788" y="-16" on="0"/>
        <pt x="622" y="-16" on="1"/>
        <pt x="484" y="-16" on="0"/>
        <pt x="271" y="81" on="0"/>
        <pt x="125" y="251" on="0"/>
        <pt x="50" y="484" on="0"/>
        <pt x="50" y="619" on="1"/>
        <pt x="50" y="744" on="0"/>
        <pt x="106" y="968" on="0"/>
        <pt x="208" y="1158" on="0"/>
        <pt x="351" y="1310" on="0"/>
        <pt x="525" y="1416" on="0"/>
        <pt x="725" y="1473" on="0"/>
        <pt x="834" y="1473" on="1"/>
        <pt x="916" y="1473" on="0"/>
        <pt x="1051" y="1442" on="0"/>
        <pt x="1160" y="1387" on="0"/>
        <pt x="1246" y="1311" on="0"/>
        <pt x="1278" y="1265" on="1"/>
        <pt x="1164" y="1133" on="1"/>
        <pt x="1152" y="1119" on="0"/>
        <pt x="1120" y="1097" on="0"/>
        <pt x="1094" y="1097" on="1"/>
        <pt x="1077" y="1097" on="0"/>
        <pt x="1049" y="1113" on="0"/>
        <pt x="1020" y="1136" on="0"/>
        <pt x="984" y="1164" on="0"/>
        <pt x="934" y="1187" on="0"/>
        <pt x="865" y="1203" on="0"/>
        <pt x="818" y="1203" on="1"/>
        <pt x="726" y="1203" on="0"/>
        <pt x="567" y="1125" on="0"/>
        <pt x="450" y="980" on="0"/>
        <pt x="384" y="773" on="0"/>
        <pt x="384" y="645" on="1"/>
        <pt x="384" y="552" on="0"/>
        <pt x="429" y="406" on="0"/>
        <pt x="507" y="305" on="0"/>
        <pt x="615" y="252" on="0"/>
      </contour>
    </TTGlyph>
    <TTGlyph name="Cacute" xMin="50" yMin="-16" xMax="1290" yMax="1796">
      <component glyphName="C" x="0" y="0" flags="0x4"/>
      <component glyphName="acute.case" x="404" y="0" flags="0x4"/>
    </TTGlyph>
    <TTGlyph name="Ccedilla" xMin="50" yMin="-347" xMax="1278" yMax="1473">
      <contour>
        <pt x="486" y="-214" on="1"/>
        <pt x="501" y="-214" on="0"/>
        <pt x="524" y="-224" on="0"/>
        <pt x="542" y="-224" on="1"/>
        <pt x="565" y="-224" on="0"/>
        <pt x="586" y="-200" on="0"/>
        <pt x="586" y="-186" on="1"/>
        <pt x="586" y="-166" on="0"/>
        <pt x="535" y="-145" on="0"/>
        <pt x="472" y="-136" on="1"/>
        <pt x="522" y="-8" on="1"/>
        <pt x="408" y="9" on="0"/>
        <pt x="232" y="117" on="0"/>
        <pt x="112" y="282" on="0"/>
        <pt x="50" y="496" on="0"/>
        <pt x="50" y="619" on="1"/>
        <pt x="50" y="744" on="0"/>
        <pt x="106" y="968" on="0"/>
        <pt x="208" y="1158" on="0"/>
        <pt x="351" y="1310" on="0"/>
        <pt x="525" y="1416" on="0"/>
        <pt x="725" y="1473" on="0"/>
        <pt x="834" y="1473" on="1"/>
        <pt x="916" y="1473" on="0"/>
        <pt x="1051" y="1442" on="0"/>
        <pt x="1160" y="1387" on="0"/>
        <pt x="1246" y="1311" on="0"/>
        <pt x="1278" y="1265" on="1"/>
        <pt x="1164" y="1133" on="1"/>
        <pt x="1152" y="1119" on="0"/>
        <pt x="1120" y="1097" on="0"/>
        <pt x="1094" y="1097" on="1"/>
        <pt x="1077" y="1097" on="0"/>
        <pt x="1049" y="1113" on="0"/>
        <pt x="1020" y="1136" on="0"/>
        <pt x="984" y="1164" on="0"/>
        <pt x="934" y="1187" on="0"/>
        <pt x="865" y="1203" on="0"/>
        <pt x="818" y="1203" on="1"/>
        <pt x="726" y="1203" on="0"/>
        <pt x="567" y="1125" on="0"/>
        <pt x="450" y="980" on="0"/>
        <pt x="384" y="773" on="0"/>
        <pt x="384" y="645" on="1"/>
        <pt x="384" y="552" on="0"/>
        <pt x="429" y="406" on="0"/>
        <pt x="507" y="305" on="0"/>
        <pt x="615" y="252" on="0"/>
        <pt x="678" y="252" on="1"/>
        <pt x="733" y="252" on="0"/>
        <pt x="814" y="269" on="0"/>
        <pt x="872" y="295" on="0"/>
        <pt x="912" y="326" on="0"/>
        <pt x="944" y="352" on="0"/>
        <pt x="972" y="369" on="0"/>
        <pt x="988" y="369" on="1"/>
        <pt x="1004" y="369" on="0"/>
        <pt x="1025" y="358" on="0"/>
        <pt x="1030" y="351" on="1"/>
        <pt x="1144" y="214" on="1"/>
        <pt x="1061" y="116" on="0"/>
        <pt x="843" y="2" on="0"/>
        <pt x="707" y="-12" on="1"/>
        <pt x="694" y="-47" on="1"/>
        <pt x="765" y="-68" on="0"/>
        <pt x="820" y="-137" on="0"/>
        <pt x="820" y="-178" on="1"/>
        <pt x="820" y="-217" on="0"/>
        <pt x="779" y="-280" on="0"/>
        <pt x="707" y="-324" on="0"/>
        <pt x="607" y="-347" on="0"/>
        <pt x="548" y="-347" on="1"/>
        <pt x="510" y="-347" on="0"/>
        <pt x="447" y="-339" on="0"/>
        <pt x="412" y="-329" on="1"/>
        <pt x="452" y="-239" on="1"/>
        <pt x="457" y="-228" on="0"/>
        <pt x="472" y="-214" on="0"/>
      </contour>
    </TTGlyph>
    <TTGlyph name="D" xMin="44" yMin="0" xMax="1366" yMax="1457">
      <contour>
        <pt x="1366" y="822" on="1"/>
        <pt x="1366" y="703" on="0"/>
        <pt x="1312" y="490" on="0"/>
        <pt x="1212" y="307" on="0"/>
        <pt x="1069" y="160" on="0"/>
        <pt x="892" y="56" on="0"/>
        <pt x="683" y="0" on="0"/>
        <pt x="568" y="0" on="1"/>
        <pt x="44" y="0" on="1"/>
        <pt x="224" y="1457" on="1"/>
        <pt x="748" y="1457" on="1"/>
        <pt x="891" y="1457" on="0"/>
        <pt x="1120" y="1360" on="0"/>
        <pt x="1280" y="1190" on="0"/>
        <pt x="1366" y="958" on="0"/>
      </contour>
      <contour>
        <pt x="1032" y="814" on="1"/>
        <pt x="1032" y="903" on="0"/>
        <pt x="991" y="1048" on="0"/>
        <pt x="910" y="1150" on="0"/>
        <pt x="792" y="1206" on="0"/>
        <pt x="716" y="1206" on="1"/>
        <pt x="520" y="1206" on="1"/>
        <pt x="404" y="251" on="1"/>
        <pt x="600" y="251" on="1"/>
        <pt x="700" y="251" on="0"/>
        <pt x="860" y="330" on="0"/>
        <pt x="972" y="476" on="0"/>
        <pt x="1032" y="684" on="0"/>
      </contour>
    </TTGlyph>
    <TTGlyph name="Delta" xMin="-52" yMin="0" xMax="1356" yMax="1455">
      <contour>
        <pt x="1356" y="0" on="1"/>
        <pt x="-52" y="0" on="1"/>
        <pt x="684" y="1455" on="1"/>
        <pt x="980" y="1455" on="1"/>
      </contour>
      <contour>
        <pt x="397" y="249" on="1"/>
        <pt x="970" y="249" on="1"/>
        <pt x="824" y="971" on="1"/>
        <pt x="820" y="987" on="0"/>
        <pt x="812" y="1030" on="0"/>
        <pt x="805" y="1079" on="0"/>
        <pt x="798" y="1131" on="0"/>
        <pt x="794" y="1155" on="1"/>
        <pt x="784" y="1131" on="0"/>
        <pt x="764" y="1078" on="0"/>
        <pt x="744" y="1029" on="0"/>
        <pt x="726" y="985" on="0"/>
        <pt x="718" y="969" on="1"/>
      </contour>
    </TTGlyph>
    <TTGlyph name="E" xMin="44" yMin="0" xMax="1092" yMax="1457">
      <contour>
        <pt x="1060" y="1206" on="1"/>
        <pt x="521" y="1206" on="1"/>
        <pt x="477" y="854" on="1"/>
        <pt x="890" y="854" on="1"/>
        <pt x="858" y="612" on="1"/>
        <pt x="447" y="612" on="1"/>
        <pt x="403" y="251" on="1"/>
        <pt x="946" y="251" on="1"/>
        <pt x="914" y="0" on="1"/>
        <pt x="44" y="0" on="1"/>
        <pt x="224" y="1457" on="1"/>
        <pt x="1092" y="1457" on="1"/>
      </contour>
    </TTGlyph>
    <TTGlyph name="Eacute" xMin="44" yMin="0" xMax="1122" yMax="1796">
      <component glyphName="E" x="0" y="0" flags="0x204"/>
      <component glyphName="acute.case" x="236" y="0" flags="0x4"/>
    </TTGlyph>
    <TTGlyph name="Ecircumflex" xMin="44" yMin="0" xMax="1092" yMax="1776">
      <component glyphName="E" x="0" y="0" flags="0x204"/>
      <component glyphName="circumflex.case" x="236" y="0" flags="0x4"/>
    </TTGlyph>
    <TTGlyph name="Edieresis" xMin="44" yMin="0" xMax="1092" yMax="1804">
      <component glyphName="E" x="0" y="0" flags="0x204"/>
      <component glyphName="dieresis.case" x="236" y="0" flags="0x4"/>
    </TTGlyph>
    <TTGlyph name="Egrave" xMin="44" yMin="0" xMax="1092" yMax="1796">
      <component glyphName="E" x="0" y="0" flags="0x204"/>
      <component glyphName="grave.case" x="236" y="0" flags="0x4"/>
    </TTGlyph>
    <TTGlyph name="Eogonek" xMin="44" yMin="-347" xMax="1092" yMax="1457">
      <contour>
        <pt x="810" y="-171" on="1"/>
        <pt x="831" y="-171" on="0"/>
        <pt x="834" y="-190" on="1"/>
        <pt x="864" y="-297" on="1"/>
        <pt x="829" y="-318" on="0"/>
        <pt x="728" y="-347" on="0"/>
        <pt x="674" y="-347" on="1"/>
        <pt x="580" y="-347" on="0"/>
        <pt x="488" y="-271" on="0"/>
        <pt x="488" y="-214" on="1"/>
        <pt x="488" y="-158" on="0"/>
        <pt x="561" y="-48" on="0"/>
        <pt x="644" y="0" on="1"/>
        <pt x="44" y="0" on="1"/>
        <pt x="224" y="1457" on="1"/>
        <pt x="1092" y="1457" on="1"/>
        <pt x="1060" y="1206" on="1"/>
        <pt x="521" y="1206" on="1"/>
        <pt x="477" y="854" on="1"/>
        <pt x="890" y="854" on="1"/>
        <pt x="858" y="612" on="1"/>
        <pt x="447" y="612" on="1"/>
        <pt x="403" y="251" on="1"/>
        <pt x="946" y="251" on="1"/>
        <pt x="914" y="0" on="1"/>
        <pt x="818" y="0" on="1"/>
        <pt x="776" y="-23" on="0"/>
        <pt x="718" y="-91" on="0"/>
        <pt x="718" y="-134" on="1"/>
        <pt x="718" y="-154" on="0"/>
        <pt x="738" y="-180" on="0"/>
        <pt x="758" y="-180" on="1"/>
        <pt x="785" y="-180" on="0"/>
        <pt x="801" y="-171" on="0"/>
      </contour>
    </TTGlyph>
    <TTGlyph name="Eth" xMin="68" yMin="0" xMax="1460" yMax="1457">
      <contour>
        <pt x="92" y="819" on="1"/>
        <pt x="240" y="819" on="1"/>
        <pt x="318" y="1457" on="1"/>
        <pt x="842" y="1457" on="1"/>
        <pt x="986" y="1457" on="0"/>
        <pt x="1215" y="1360" on="0"/>
        <pt x="1375" y="1190" on="0"/>
        <pt x="1460" y="958" on="0"/>
        <pt x="1460" y="822" on="1"/>
        <pt x="1460" y="703" on="0"/>
        <pt x="1406" y="490" on="0"/>
        <pt x="1306" y="307" on="0"/>
        <pt x="1163" y="160" on="0"/>
        <pt x="986" y="56" on="0"/>
        <pt x="779" y="0" on="0"/>
        <pt x="664" y="0" on="1"/>
        <pt x="140" y="0" on="1"/>
        <pt x="218" y="641" on="1"/>
        <pt x="68" y="641" on="1"/>
      </contour>
      <contour>
        <pt x="1126" y="814" on="1"/>
        <pt x="1126" y="903" on="0"/>
        <pt x="1085" y="1048" on="0"/>
        <pt x="1004" y="1150" on="0"/>
        <pt x="886" y="1206" on="0"/>
        <pt x="810" y="1206" on="1"/>
        <pt x="614" y="1206" on="1"/>
        <pt x="568" y="819" on="1"/>
        <pt x="880" y="819" on="1"/>
        <pt x="858" y="641" on="1"/>
        <pt x="546" y="641" on="1"/>
        <pt x="500" y="251" on="1"/>
        <pt x="696" y="251" on="1"/>
        <pt x="796" y="251" on="0"/>
        <pt x="955" y="330" on="0"/>
        <pt x="1066" y="476" on="0"/>
        <pt x="1126" y="684" on="0"/>
      </contour>
    </TTGlyph>
    <TTGlyph name="Euro" xMin="44" yMin="-14" xMax="1230" yMax="1469">
      <contour>
        <pt x="96" y="946" on="1"/>
        <pt x="212" y="946" on="1"/>
        <pt x="251" y="1067" on="0"/>
        <pt x="377" y="1260" on="0"/>
        <pt x="542" y="1396" on="0"/>
        <pt x="738" y="1469" on="0"/>
        <pt x="846" y="1469" on="1"/>
        <pt x="916" y="1469" on="0"/>
        <pt x="1034" y="1440" on="0"/>
        <pt x="1130" y="1386" on="0"/>
        <pt x="1204" y="1311" on="0"/>
        <pt x="1230" y="1265" on="1"/>
        <pt x="1110" y="1154" on="1"/>
        <pt x="1096" y="1141" on="0"/>
        <pt x="1068" y="1122" on="0"/>
        <pt x="1044" y="1122" on="1"/>
        <pt x="1029" y="1122" on="0"/>
        <pt x="1006" y="1137" on="0"/>
        <pt x="983" y="1158" on="0"/>
        <pt x="957" y="1184" on="0"/>
        <pt x="919" y="1205" on="0"/>
        <pt x="865" y="1220" on="0"/>
        <pt x="826" y="1220" on="1"/>
        <pt x="723" y="1220" on="0"/>
        <pt x="562" y="1080" on="0"/>
        <pt x="517" y="946" on="1"/>
        <pt x="994" y="946" on="1"/>
        <pt x="984" y="856" on="1"/>
        <pt x="982" y="844" on="0"/>
        <pt x="967" y="819" on="0"/>
        <pt x="943" y="800" on="0"/>
        <pt x="911" y="787" on="0"/>
        <pt x="892" y="787" on="1"/>
        <pt x="480" y="787" on="1"/>
        <pt x="477" y="764" on="0"/>
        <pt x="472" y="715" on="0"/>
        <pt x="470" y="690" on="1"/>
        <pt x="868" y="690" on="1"/>
        <pt x="856" y="602" on="1"/>
        <pt x="854" y="589" on="0"/>
        <pt x="839" y="563" on="0"/>
        <pt x="815" y="543" on="0"/>
        <pt x="784" y="531" on="0"/>
        <pt x="766" y="531" on="1"/>
        <pt x="471" y="531" on="1"/>
        <pt x="483" y="384" on="0"/>
        <pt x="600" y="235" on="0"/>
        <pt x="694" y="235" on="1"/>
        <pt x="759" y="235" on="0"/>
        <pt x="838" y="270" on="0"/>
        <pt x="891" y="313" on="0"/>
        <pt x="929" y="348" on="0"/>
        <pt x="954" y="348" on="1"/>
        <pt x="968" y="348" on="0"/>
        <pt x="985" y="342" on="0"/>
        <pt x="994" y="331" on="1"/>
        <pt x="1110" y="214" on="1"/>
        <pt x="1027" y="102" on="0"/>
        <pt x="790" y="-14" on="0"/>
        <pt x="648" y="-14" on="1"/>
        <pt x="531" y="-14" on="0"/>
        <pt x="355" y="67" on="0"/>
        <pt x="234" y="212" on="0"/>
        <pt x="168" y="412" on="0"/>
        <pt x="161" y="531" on="1"/>
        <pt x="44" y="531" on="1"/>
        <pt x="64" y="690" on="1"/>
        <pt x="164" y="690" on="1"/>
        <pt x="166" y="715" on="0"/>
        <pt x="171" y="763" on="0"/>
        <pt x="175" y="787" on="1"/>
        <pt x="76" y="787" on="1"/>
      </contour>
    </TTGlyph>
    <TTGlyph name="F" xMin="44" yMin="0" xMax="1092" yMax="1457">
      <contour>
        <pt x="1060" y="1206" on="1"/>
        <pt x="521" y="1206" on="1"/>
        <pt x="473" y="822" on="1"/>
        <pt x="924" y="822" on="1"/>
        <pt x="890" y="571" on="1"/>
        <pt x="442" y="571" on="1"/>
        <pt x="372" y="0" on="1"/>
        <pt x="44" y="0" on="1"/>
        <pt x="224" y="1457" on="1"/>
        <pt x="1092" y="1457" on="1"/>
      </contour>
    </TTGlyph>
    <TTGlyph name="G" xMin="50" yMin="-16" xMax="1332" yMax="1473">
      <contour>
        <pt x="710" y="235" on="1"/>
        <pt x="770" y="235" on="0"/>
        <pt x="866" y="256" on="0"/>
        <pt x="910" y="275" on="1"/>
        <pt x="938" y="513" on="1"/>
        <pt x="814" y="513" on="1"/>
        <pt x="786" y="513" on="0"/>
        <pt x="756" y="539" on="0"/>
        <pt x="756" y="561" on="1"/>
        <pt x="778" y="749" on="1"/>
        <pt x="1264" y="749" on="1"/>
        <pt x="1188" y="140" on="1"/>
        <pt x="1132" y="99" on="0"/>
        <pt x="1012" y="40" on="0"/>
        <pt x="881" y="2" on="0"/>
        <pt x="736" y="-16" on="0"/>
        <pt x="654" y="-16" on="1"/>
        <pt x="519" y="-16" on="0"/>
        <pt x="296" y="83" on="0"/>
        <pt x="137" y="257" on="0"/>
        <pt x="50" y="495" on="0"/>
        <pt x="50" y="634" on="1"/>
        <pt x="50" y="755" on="0"/>
        <pt x="105" y="974" on="0"/>
        <pt x="207" y="1160" on="0"/>
        <pt x="350" y="1310" on="0"/>
        <pt x="525" y="1416" on="0"/>
        <pt x="727" y="1473" on="0"/>
        <pt x="838" y="1473" on="1"/>
        <pt x="931" y="1473" on="0"/>
        <pt x="1082" y="1439" on="0"/>
        <pt x="1202" y="1382" on="0"/>
        <pt x="1296" y="1307" on="0"/>
        <pt x="1332" y="1267" on="1"/>
        <pt x="1226" y="1136" on="1"/>
        <pt x="1190" y="1092" on="0"/>
        <pt x="1145" y="1092" on="1"/>
        <pt x="1118" y="1092" on="0"/>
        <pt x="1090" y="1110" on="1"/>
        <pt x="1054" y="1133" on="0"/>
        <pt x="992" y="1168" on="0"/>
        <pt x="929" y="1191" on="0"/>
        <pt x="858" y="1203" on="0"/>
        <pt x="814" y="1203" on="1"/>
        <pt x="719" y="1203" on="0"/>
        <pt x="561" y="1122" on="0"/>
        <pt x="447" y="975" on="0"/>
        <pt x="384" y="769" on="0"/>
        <pt x="384" y="645" on="1"/>
        <pt x="384" y="549" on="0"/>
        <pt x="431" y="396" on="0"/>
        <pt x="517" y="291" on="0"/>
        <pt x="637" y="235" on="0"/>
      </contour>
    </TTGlyph>
    <TTGlyph name="H" xMin="44" yMin="0" xMax="1406" yMax="1457">
      <contour>
        <pt x="1226" y="0" on="1"/>
        <pt x="898" y="0" on="1"/>
        <pt x="974" y="620" on="1"/>
        <pt x="448" y="620" on="1"/>
        <pt x="372" y="0" on="1"/>
        <pt x="44" y="0" on="1"/>
        <pt x="224" y="1457" on="1"/>
        <pt x="552" y="1457" on="1"/>
        <pt x="476" y="842" on="1"/>
        <pt x="1002" y="842" on="1"/>
        <pt x="1078" y="1457" on="1"/>
        <pt x="1406" y="1457" on="1"/>
      </contour>
    </TTGlyph>
    <TTGlyph name="I" xMin="72" yMin="0" xMax="578" yMax="1457">
      <contour>
        <pt x="400" y="0" on="1"/>
        <pt x="72" y="0" on="1"/>
        <pt x="250" y="1457" on="1"/>
        <pt x="578" y="1457" on="1"/>
      </contour>
    </TTGlyph>
    <TTGlyph name="Iacute" xMin="72" yMin="0" xMax="881" yMax="1796">
      <component glyphName="I" x="0" y="0" flags="0x204"/>
      <component glyphName="acute.case" x="-5" y="0" flags="0x4"/>
    </TTGlyph>
    <TTGlyph name="Icircumflex" xMin="53" yMin="0" xMax="803" yMax="1776">
      <component glyphName="I" x="0" y="0" flags="0x204"/>
      <component glyphName="circumflex.case" x="-5" y="0" flags="0x4"/>
    </TTGlyph>
    <TTGlyph name="Idieresis" xMin="72" yMin="0" xMax="733" yMax="1804">
      <component glyphName="I" x="0" y="0" flags="0x204"/>
      <component glyphName="dieresis.case" x="-5" y="0" flags="0x4"/>
    </TTGlyph>
    <TTGlyph name="Igrave" xMin="19" yMin="0" xMax="599" yMax="1796">
      <component glyphName="I" x="0" y="0" flags="0x204"/>
      <component glyphName="grave.case" x="-5" y="0" flags="0x4"/>
    </TTGlyph>
    <TTGlyph name="J" xMin="-48" yMin="-16" xMax="802" yMax="1457">
      <contour>
        <pt x="688" y="523" on="1"/>
        <pt x="673" y="401" on="0"/>
        <pt x="593" y="203" on="0"/>
        <pt x="461" y="61" on="0"/>
        <pt x="278" y="-16" on="0"/>
        <pt x="160" y="-16" on="1"/>
        <pt x="107" y="-16" on="0"/>
        <pt x="6" y="-4" on="0"/>
        <pt x="-48" y="10" on="1"/>
        <pt x="-24" y="197" on="1"/>
        <pt x="-21" y="222" on="0"/>
        <pt x="8" y="255" on="0"/>
        <pt x="40" y="255" on="1"/>
        <pt x="64" y="255" on="0"/>
        <pt x="124" y="244" on="0"/>
        <pt x="160" y="244" on="1"/>
        <pt x="241" y="244" on="0"/>
        <pt x="345" y="371" on="0"/>
        <pt x="362" y="515" on="1"/>
        <pt x="476" y="1457" on="1"/>
        <pt x="802" y="1457" on="1"/>
      </contour>
    </TTGlyph>
    <TTGlyph name="K" xMin="44" yMin="0" xMax="1404" yMax="1457">
      <contour>
        <pt x="474" y="861" on="1"/>
        <pt x="522" y="861" on="1"/>
        <pt x="557" y="861" on="0"/>
        <pt x="611" y="884" on="0"/>
        <pt x="628" y="909" on="1"/>
        <pt x="974" y="1392" on="1"/>
        <pt x="1002" y="1431" on="0"/>
        <pt x="1074" y="1457" on="0"/>
        <pt x="1122" y="1457" on="1"/>
        <pt x="1404" y="1457" on="1"/>
        <pt x="946" y="862" on="1"/>
        <pt x="923" y="831" on="0"/>
        <pt x="873" y="791" on="0"/>
        <pt x="846" y="777" on="1"/>
        <pt x="880" y="763" on="0"/>
        <pt x="932" y="716" on="0"/>
        <pt x="950" y="676" on="1"/>
        <pt x="1258" y="0" on="1"/>
        <pt x="968" y="0" on="1"/>
        <pt x="940" y="0" on="0"/>
        <pt x="901" y="8" on="0"/>
        <pt x="874" y="23" on="0"/>
        <pt x="856" y="46" on="0"/>
        <pt x="850" y="60" on="1"/>
        <pt x="624" y="572" on="1"/>
        <pt x="611" y="601" on="0"/>
        <pt x="562" y="624" on="0"/>
        <pt x="520" y="624" on="1"/>
        <pt x="445" y="624" on="1"/>
        <pt x="368" y="0" on="1"/>
        <pt x="44" y="0" on="1"/>
        <pt x="222" y="1457" on="1"/>
        <pt x="548" y="1457" on="1"/>
      </contour>
    </TTGlyph>
    <TTGlyph name="L" xMin="44" yMin="0" xMax="892" yMax="1457">
      <contour>
        <pt x="402" y="260" on="1"/>
        <pt x="892" y="260" on="1"/>
        <pt x="860" y="0" on="1"/>
        <pt x="44" y="0" on="1"/>
        <pt x="224" y="1457" on="1"/>
        <pt x="550" y="1457" on="1"/>
      </contour>
    </TTGlyph>
    <TTGlyph name="Lslash" xMin="-4" yMin="0" xMax="966" yMax="1457">
      <contour>
        <pt x="558" y="926" on="1"/>
        <pt x="864" y="1081" on="1"/>
        <pt x="836" y="867" on="1"/>
        <pt x="833" y="845" on="0"/>
        <pt x="809" y="816" on="0"/>
        <pt x="792" y="807" on="1"/>
        <pt x="526" y="666" on="1"/>
        <pt x="476" y="260" on="1"/>
        <pt x="966" y="260" on="1"/>
        <pt x="934" y="0" on="1"/>
        <pt x="118" y="0" on="1"/>
        <pt x="181" y="513" on="1"/>
        <pt x="-4" y="424" on="1"/>
        <pt x="24" y="642" on="1"/>
        <pt x="28" y="679" on="0"/>
        <pt x="64" y="696" on="1"/>
        <pt x="213" y="770" on="1"/>
        <pt x="298" y="1457" on="1"/>
        <pt x="624" y="1457" on="1"/>
      </contour>
    </TTGlyph>
    <TTGlyph name="M" xMin="44" yMin="0" xMax="1746" yMax="1457">
      <contour>
        <pt x="830" y="640" on="1"/>
        <pt x="851" y="577" on="0"/>
        <pt x="866" y="511" on="1"/>
        <pt x="882" y="544" on="0"/>
        <pt x="917" y="608" on="0"/>
        <pt x="936" y="640" on="1"/>
        <pt x="1382" y="1407" on="1"/>
        <pt x="1402" y="1441" on="0"/>
        <pt x="1462" y="1457" on="0"/>
        <pt x="1490" y="1457" on="1"/>
        <pt x="1746" y="1457" on="1"/>
        <pt x="1566" y="0" on="1"/>
        <pt x="1280" y="0" on="1"/>
        <pt x="1382" y="848" on="1"/>
        <pt x="1385" y="875" on="0"/>
        <pt x="1398" y="940" on="0"/>
        <pt x="1406" y="975" on="1"/>
        <pt x="968" y="223" on="1"/>
        <pt x="948" y="189" on="0"/>
        <pt x="884" y="156" on="0"/>
        <pt x="846" y="156" on="1"/>
        <pt x="802" y="156" on="1"/>
        <pt x="764" y="156" on="0"/>
        <pt x="707" y="190" on="0"/>
        <pt x="696" y="223" on="1"/>
        <pt x="440" y="977" on="1"/>
        <pt x="438" y="943" on="0"/>
        <pt x="435" y="879" on="0"/>
        <pt x="432" y="853" on="1"/>
        <pt x="332" y="0" on="1"/>
        <pt x="44" y="0" on="1"/>
        <pt x="224" y="1457" on="1"/>
        <pt x="472" y="1457" on="1"/>
        <pt x="493" y="1457" on="0"/>
        <pt x="525" y="1455" on="0"/>
        <pt x="550" y="1446" on="0"/>
        <pt x="568" y="1426" on="0"/>
        <pt x="574" y="1407" on="1"/>
        <pt x="830" y="640" on="1"/>
      </contour>
    </TTGlyph>
    <TTGlyph name="N" xMin="44" yMin="0" xMax="1406" yMax="1457">
      <contour>
        <pt x="396" y="1457" on="1"/>
        <pt x="417" y="1457" on="0"/>
        <pt x="446" y="1454" on="0"/>
        <pt x="469" y="1443" on="0"/>
        <pt x="487" y="1423" on="0"/>
        <pt x="496" y="1407" on="1"/>
        <pt x="1007" y="507" on="1"/>
        <pt x="1009" y="542" on="0"/>
        <pt x="1017" y="606" on="0"/>
        <pt x="1020" y="634" on="1"/>
        <pt x="1118" y="1457" on="1"/>
        <pt x="1406" y="1457" on="1"/>
        <pt x="1226" y="0" on="1"/>
        <pt x="1056" y="0" on="1"/>
        <pt x="1018" y="0" on="0"/>
        <pt x="968" y="22" on="0"/>
        <pt x="950" y="54" on="1"/>
        <pt x="441" y="953" on="1"/>
        <pt x="439" y="925" on="0"/>
        <pt x="434" y="873" on="0"/>
        <pt x="432" y="850" on="1"/>
        <pt x="332" y="0" on="1"/>
        <pt x="44" y="0" on="1"/>
        <pt x="224" y="1457" on="1"/>
        <pt x="396" y="1457" on="1"/>
      </contour>
    </TTGlyph>
    <TTGlyph name="Nacute" xMin="44" yMin="0" xMax="1406" yMax="1796">
      <component glyphName="N" x="0" y="0" flags="0x204"/>
      <component glyphName="acute.case" x="384" y="0" flags="0x4"/>
    </TTGlyph>
    <TTGlyph name="Ntilde" xMin="44" yMin="0" xMax="1406" yMax="1784">
      <component glyphName="N" x="0" y="0" flags="0x204"/>
      <component glyphName="tilde.case" x="384" y="0" flags="0x4"/>
    </TTGlyph>
    <TTGlyph name="O" xMin="50" yMin="-16" xMax="1468" yMax="1473">
      <contour>
        <pt x="1468" y="822" on="1"/>
        <pt x="1468" y="704" on="0"/>
        <pt x="1413" y="488" on="0"/>
        <pt x="1312" y="302" on="0"/>
        <pt x="1169" y="150" on="0"/>
        <pt x="991" y="43" on="0"/>
        <pt x="783" y="-16" on="0"/>
        <pt x="668" y="-16" on="1"/>
        <pt x="524" y="-16" on="0"/>
        <pt x="295" y="85" on="0"/>
        <pt x="135" y="260" on="0"/>
        <pt x="50" y="497" on="0"/>
        <pt x="50" y="634" on="1"/>
        <pt x="50" y="752" on="0"/>
        <pt x="105" y="969" on="0"/>
        <pt x="206" y="1155" on="0"/>
        <pt x="350" y="1307" on="0"/>
        <pt x="528" y="1414" on="0"/>
        <pt x="736" y="1473" on="0"/>
        <pt x="852" y="1473" on="1"/>
        <pt x="995" y="1473" on="0"/>
        <pt x="1224" y="1372" on="0"/>
        <pt x="1383" y="1196" on="0"/>
        <pt x="1468" y="958" on="0"/>
      </contour>
      <contour>
        <pt x="1134" y="814" on="1"/>
        <pt x="1134" y="904" on="0"/>
        <pt x="1091" y="1051" on="0"/>
        <pt x="1008" y="1156" on="0"/>
        <pt x="888" y="1213" on="0"/>
        <pt x="812" y="1213" on="1"/>
        <pt x="712" y="1213" on="0"/>
        <pt x="554" y="1130" on="0"/>
        <pt x="443" y="980" on="0"/>
        <pt x="384" y="769" on="0"/>
        <pt x="384" y="641" on="1"/>
        <pt x="384" y="551" on="0"/>
        <pt x="426" y="405" on="0"/>
        <pt x="507" y="301" on="0"/>
        <pt x="627" y="244" on="0"/>
        <pt x="704" y="244" on="1"/>
        <pt x="804" y="244" on="0"/>
        <pt x="963" y="326" on="0"/>
        <pt x="1074" y="476" on="0"/>
        <pt x="1134" y="686" on="0"/>
      </contour>
    </TTGlyph>
    <TTGlyph name="OE" xMin="50" yMin="-16" xMax="2008" yMax="1473">
      <contour>
        <pt x="1976" y="1206" on="1"/>
        <pt x="1435" y="1206" on="1"/>
        <pt x="1392" y="852" on="1"/>
        <pt x="1804" y="852" on="1"/>
        <pt x="1774" y="610" on="1"/>
        <pt x="1362" y="610" on="1"/>
        <pt x="1318" y="251" on="1"/>
        <pt x="1860" y="251" on="1"/>
        <pt x="1828" y="0" on="1"/>
        <pt x="998" y="0" on="1"/>
        <pt x="1015" y="136" on="1"/>
        <pt x="929" y="64" on="0"/>
        <pt x="719" y="-16" on="0"/>
        <pt x="598" y="-16" on="1"/>
        <pt x="470" y="-16" on="0"/>
        <pt x="266" y="83" on="0"/>
        <pt x="125" y="255" on="0"/>
        <pt x="50" y="489" on="0"/>
        <pt x="50" y="624" on="1"/>
        <pt x="50" y="803" on="0"/>
        <pt x="160" y="1113" on="0"/>
        <pt x="355" y="1342" on="0"/>
        <pt x="622" y="1473" on="0"/>
        <pt x="780" y="1473" on="1"/>
        <pt x="903" y="1473" on="0"/>
        <pt x="1092" y="1380" on="0"/>
        <pt x="1158" y="1299" on="1"/>
        <pt x="1178" y="1457" on="1"/>
        <pt x="2008" y="1457" on="1"/>
      </contour>
      <contour>
        <pt x="1056" y="824" on="1"/>
        <pt x="1056" y="912" on="0"/>
        <pt x="1021" y="1058" on="0"/>
        <pt x="952" y="1163" on="0"/>
        <pt x="849" y="1222" on="0"/>
        <pt x="782" y="1222" on="1"/>
        <pt x="689" y="1222" on="0"/>
        <pt x="541" y="1135" on="0"/>
        <pt x="439" y="978" on="0"/>
        <pt x="384" y="761" on="0"/>
        <pt x="384" y="631" on="1"/>
        <pt x="384" y="544" on="0"/>
        <pt x="419" y="398" on="0"/>
        <pt x="489" y="293" on="0"/>
        <pt x="593" y="235" on="0"/>
        <pt x="662" y="235" on="1"/>
        <pt x="753" y="235" on="0"/>
        <pt x="899" y="322" on="0"/>
        <pt x="1001" y="478" on="0"/>
        <pt x="1056" y="694" on="0"/>
      </contour>
    </TTGlyph>
    <TTGlyph name="Oacute" xMin="50" yMin="-16" xMax="1468" yMax="1796">
      <component glyphName="O" x="0" y="0" flags="0x204"/>
      <component glyphName="acute.case" x="424" y="0" flags="0x4"/>
    </TTGlyph>
    <TTGlyph name="Ocircumflex" xMin="50" yMin="-16" xMax="1468" yMax="1776">
      <component glyphName="O" x="0" y="0" flags="0x204"/>
      <component glyphName="circumflex.case" x="424" y="0" flags="0x4"/>
    </TTGlyph>
    <TTGlyph name="Odieresis" xMin="50" yMin="-16" xMax="1468" yMax="1804">
      <component glyphName="O" x="0" y="0" flags="0x204"/>
      <component glyphName="dieresis.case" x="424" y="0" flags="0x4"/>
    </TTGlyph>
    <TTGlyph name="Ograve" xMin="50" yMin="-16" xMax="1468" yMax="1796">
      <component glyphName="O" x="0" y="0" flags="0x204"/>
      <component glyphName="grave.case" x="424" y="0" flags="0x4"/>
    </TTGlyph>
    <TTGlyph name="Omega" xMin="3" yMin="0" xMax="1354" yMax="1471">
      <contour>
        <pt x="660" y="0" on="1"/>
        <pt x="728" y="535" on="1"/>
        <pt x="786" y="545" on="0"/>
        <pt x="891" y="599" on="0"/>
        <pt x="971" y="695" on="0"/>
        <pt x="1018" y="838" on="0"/>
        <pt x="1018" y="937" on="1"/>
        <pt x="1018" y="1070" on="0"/>
        <pt x="891" y="1220" on="0"/>
        <pt x="762" y="1220" on="1"/>
        <pt x="677" y="1220" on="0"/>
        <pt x="550" y="1164" on="0"/>
        <pt x="466" y="1059" on="0"/>
        <pt x="424" y="909" on="0"/>
        <pt x="424" y="815" on="1"/>
        <pt x="424" y="750" on="0"/>
        <pt x="456" y="652" on="0"/>
        <pt x="513" y="584" on="0"/>
        <pt x="590" y="543" on="0"/>
        <pt x="634" y="535" on="1"/>
        <pt x="568" y="0" on="1"/>
        <pt x="98" y="0" on="1"/>
        <pt x="53" y="0" on="0"/>
        <pt x="3" y="46" on="0"/>
        <pt x="3" y="84" on="1"/>
        <pt x="3" y="93" on="0"/>
        <pt x="4" y="98" on="1"/>
        <pt x="24" y="259" on="1"/>
        <pt x="350" y="259" on="1"/>
        <pt x="365" y="378" on="1"/>
        <pt x="296" y="403" on="0"/>
        <pt x="193" y="489" on="0"/>
        <pt x="125" y="603" on="0"/>
        <pt x="92" y="739" on="0"/>
        <pt x="92" y="814" on="1"/>
        <pt x="92" y="947" on="0"/>
        <pt x="194" y="1186" on="0"/>
        <pt x="380" y="1366" on="0"/>
        <pt x="638" y="1471" on="0"/>
        <pt x="794" y="1471" on="1"/>
        <pt x="927" y="1471" on="0"/>
        <pt x="1136" y="1387" on="0"/>
        <pt x="1279" y="1244" on="0"/>
        <pt x="1354" y="1055" on="0"/>
        <pt x="1354" y="950" on="1"/>
        <pt x="1354" y="852" on="0"/>
        <pt x="1302" y="669" on="0"/>
        <pt x="1202" y="517" on="0"/>
        <pt x="1053" y="404" on="0"/>
        <pt x="956" y="375" on="1"/>
        <pt x="942" y="259" on="1"/>
        <pt x="1270" y="259" on="1"/>
        <pt x="1250" y="98" on="1"/>
        <pt x="1245" y="54" on="0"/>
        <pt x="1180" y="0" on="0"/>
        <pt x="1130" y="0" on="1"/>
      </contour>
    </TTGlyph>
    <TTGlyph name="Oslash" xMin="-2" yMin="-113" xMax="1528" yMax="1521">
      <contour>
        <pt x="1468" y="822" on="1"/>
        <pt x="1468" y="704" on="0"/>
        <pt x="1413" y="488" on="0"/>
        <pt x="1312" y="302" on="0"/>
        <pt x="1169" y="150" on="0"/>
        <pt x="991" y="43" on="0"/>
        <pt x="783" y="-16" on="0"/>
        <pt x="668" y="-16" on="1"/>
        <pt x="584" y="-16" on="0"/>
        <pt x="437" y="18" on="0"/>
        <pt x="374" y="50" on="1"/>
        <pt x="312" y="-29" on="1"/>
        <pt x="293" y="-53" on="0"/>
        <pt x="247" y="-85" on="0"/>
        <pt x="198" y="-105" on="0"/>
        <pt x="148" y="-113" on="0"/>
        <pt x="126" y="-113" on="1"/>
        <pt x="-2" y="-113" on="1"/>
        <pt x="219" y="168" on="1"/>
        <pt x="137" y="257" on="0"/>
        <pt x="50" y="495" on="0"/>
        <pt x="50" y="634" on="1"/>
        <pt x="50" y="752" on="0"/>
        <pt x="105" y="969" on="0"/>
        <pt x="206" y="1155" on="0"/>
        <pt x="350" y="1307" on="0"/>
        <pt x="528" y="1414" on="0"/>
        <pt x="736" y="1473" on="0"/>
        <pt x="852" y="1473" on="1"/>
        <pt x="946" y="1473" on="0"/>
        <pt x="1108" y="1429" on="0"/>
        <pt x="1176" y="1388" on="1"/>
        <pt x="1220" y="1444" on="1"/>
        <pt x="1237" y="1466" on="0"/>
        <pt x="1266" y="1496" on="0"/>
        <pt x="1298" y="1514" on="0"/>
        <pt x="1336" y="1521" on="0"/>
        <pt x="1362" y="1521" on="1"/>
        <pt x="1528" y="1521" on="1"/>
        <pt x="1323" y="1260" on="1"/>
        <pt x="1394" y="1173" on="0"/>
        <pt x="1468" y="950" on="0"/>
      </contour>
      <contour>
        <pt x="384" y="641" on="1"/>
        <pt x="384" y="518" on="0"/>
        <pt x="423" y="428" on="1"/>
        <pt x="994" y="1157" on="1"/>
        <pt x="957" y="1184" on="0"/>
        <pt x="866" y="1213" on="0"/>
        <pt x="812" y="1213" on="1"/>
        <pt x="712" y="1213" on="0"/>
        <pt x="554" y="1130" on="0"/>
        <pt x="443" y="980" on="0"/>
        <pt x="384" y="769" on="0"/>
      </contour>
      <contour>
        <pt x="1134" y="814" on="1"/>
        <pt x="1134" y="862" on="0"/>
        <pt x="1121" y="949" on="0"/>
        <pt x="1109" y="987" on="1"/>
        <pt x="553" y="279" on="1"/>
        <pt x="618" y="244" on="0"/>
        <pt x="704" y="244" on="1"/>
        <pt x="804" y="244" on="0"/>
        <pt x="963" y="326" on="0"/>
        <pt x="1074" y="476" on="0"/>
        <pt x="1134" y="686" on="0"/>
      </contour>
    </TTGlyph>
    <TTGlyph name="Otilde" xMin="50" yMin="-16" xMax="1468" yMax="1784">
      <component glyphName="O" x="0" y="0" flags="0x204"/>
      <component glyphName="tilde.case" x="424" y="0" flags="0x4"/>
    </TTGlyph>
    <TTGlyph name="P" xMin="44" yMin="0" xMax="1194" yMax="1457">
      <contour>
        <pt x="428" y="491" on="1"/>
        <pt x="368" y="0" on="1"/>
        <pt x="44" y="0" on="1"/>
        <pt x="222" y="1457" on="1"/>
        <pt x="704" y="1457" on="1"/>
        <pt x="834" y="1457" on="0"/>
        <pt x="1019" y="1394" on="0"/>
        <pt x="1138" y="1283" on="0"/>
        <pt x="1194" y="1132" on="0"/>
        <pt x="1194" y="1045" on="1"/>
        <pt x="1194" y="926" on="0"/>
        <pt x="1121" y="723" on="0"/>
        <pt x="971" y="575" on="0"/>
        <pt x="741" y="491" on="0"/>
        <pt x="584" y="491" on="1"/>
      </contour>
      <contour>
        <pt x="518" y="1214" on="1"/>
        <pt x="459" y="736" on="1"/>
        <pt x="616" y="736" on="1"/>
        <pt x="686" y="736" on="0"/>
        <pt x="781" y="777" on="0"/>
        <pt x="840" y="852" on="0"/>
        <pt x="866" y="956" on="0"/>
        <pt x="866" y="1018" on="1"/>
        <pt x="866" y="1061" on="0"/>
        <pt x="843" y="1133" on="0"/>
        <pt x="795" y="1185" on="0"/>
        <pt x="722" y="1214" on="0"/>
        <pt x="672" y="1214" on="1"/>
      </contour>
    </TTGlyph>
    <TTGlyph name="Q" xMin="50" yMin="-274" xMax="1468" yMax="1473">
      <contour>
        <pt x="1468" y="822" on="1"/>
        <pt x="1468" y="711" on="0"/>
        <pt x="1420" y="507" on="0"/>
        <pt x="1330" y="328" on="0"/>
        <pt x="1202" y="179" on="0"/>
        <pt x="1123" y="124" on="1"/>
        <pt x="1414" y="-274" on="1"/>
        <pt x="1146" y="-274" on="1"/>
        <pt x="1089" y="-274" on="0"/>
        <pt x="997" y="-247" on="0"/>
        <pt x="968" y="-204" on="1"/>
        <pt x="827" y="-1" on="1"/>
        <pt x="750" y="-16" on="0"/>
        <pt x="668" y="-16" on="1"/>
        <pt x="524" y="-16" on="0"/>
        <pt x="295" y="85" on="0"/>
        <pt x="135" y="260" on="0"/>
        <pt x="50" y="497" on="0"/>
        <pt x="50" y="634" on="1"/>
        <pt x="50" y="752" on="0"/>
        <pt x="105" y="969" on="0"/>
        <pt x="206" y="1155" on="0"/>
        <pt x="350" y="1307" on="0"/>
        <pt x="528" y="1414" on="0"/>
        <pt x="736" y="1473" on="0"/>
        <pt x="852" y="1473" on="1"/>
        <pt x="995" y="1473" on="0"/>
        <pt x="1224" y="1372" on="0"/>
        <pt x="1383" y="1196" on="0"/>
        <pt x="1468" y="958" on="0"/>
      </contour>
      <contour>
        <pt x="1134" y="814" on="1"/>
        <pt x="1134" y="904" on="0"/>
        <pt x="1091" y="1051" on="0"/>
        <pt x="1008" y="1156" on="0"/>
        <pt x="888" y="1213" on="0"/>
        <pt x="812" y="1213" on="1"/>
        <pt x="712" y="1213" on="0"/>
        <pt x="554" y="1130" on="0"/>
        <pt x="443" y="980" on="0"/>
        <pt x="384" y="769" on="0"/>
        <pt x="384" y="641" on="1"/>
        <pt x="384" y="551" on="0"/>
        <pt x="426" y="405" on="0"/>
        <pt x="507" y="301" on="0"/>
        <pt x="627" y="244" on="0"/>
        <pt x="704" y="244" on="1"/>
        <pt x="804" y="244" on="0"/>
        <pt x="963" y="326" on="0"/>
        <pt x="1074" y="476" on="0"/>
        <pt x="1134" y="686" on="0"/>
      </contour>
    </TTGlyph>
    <TTGlyph name="R" xMin="44" yMin="0" xMax="1162" yMax="1457">
      <contour>
        <pt x="435" y="544" on="1"/>
        <pt x="368" y="0" on="1"/>
        <pt x="44" y="0" on="1"/>
        <pt x="222" y="1457" on="1"/>
        <pt x="664" y="1457" on="1"/>
        <pt x="798" y="1457" on="0"/>
        <pt x="987" y="1400" on="0"/>
        <pt x="1107" y="1300" on="0"/>
        <pt x="1162" y="1163" on="0"/>
        <pt x="1162" y="1083" on="1"/>
        <pt x="1162" y="1002" on="0"/>
        <pt x="1119" y="858" on="0"/>
        <pt x="1037" y="737" on="0"/>
        <pt x="918" y="644" on="0"/>
        <pt x="842" y="614" on="1"/>
        <pt x="872" y="597" on="0"/>
        <pt x="925" y="549" on="0"/>
        <pt x="940" y="513" on="1"/>
        <pt x="1152" y="0" on="1"/>
        <pt x="858" y="0" on="1"/>
        <pt x="817" y="0" on="0"/>
        <pt x="761" y="32" on="0"/>
        <pt x="750" y="62" on="1"/>
        <pt x="592" y="493" on="1"/>
        <pt x="581" y="521" on="0"/>
        <pt x="544" y="544" on="0"/>
        <pt x="508" y="544" on="1"/>
      </contour>
      <contour>
        <pt x="518" y="1214" on="1"/>
        <pt x="463" y="769" on="1"/>
        <pt x="582" y="769" on="1"/>
        <pt x="652" y="769" on="0"/>
        <pt x="750" y="812" on="0"/>
        <pt x="811" y="884" on="0"/>
        <pt x="838" y="980" on="0"/>
        <pt x="838" y="1033" on="1"/>
        <pt x="838" y="1074" on="0"/>
        <pt x="814" y="1141" on="0"/>
        <pt x="763" y="1188" on="0"/>
        <pt x="686" y="1214" on="0"/>
        <pt x="634" y="1214" on="1"/>
      </contour>
    </TTGlyph>
    <TTGlyph name="S" xMin="-30" yMin="-16" xMax="1040" yMax="1471">
      <contour>
        <pt x="942" y="1165" on="1"/>
        <pt x="925" y="1141" on="0"/>
        <pt x="890" y="1119" on="0"/>
        <pt x="866" y="1119" on="1"/>
        <pt x="843" y="1119" on="0"/>
        <pt x="797" y="1149" on="0"/>
        <pt x="740" y="1185" on="0"/>
        <pt x="666" y="1215" on="0"/>
        <pt x="616" y="1215" on="1"/>
        <pt x="570" y="1215" on="0"/>
        <pt x="501" y="1189" on="0"/>
        <pt x="455" y="1143" on="0"/>
        <pt x="432" y="1081" on="0"/>
        <pt x="432" y="1044" on="1"/>
        <pt x="432" y="1004" on="0"/>
        <pt x="477" y="950" on="0"/>
        <pt x="552" y="909" on="0"/>
        <pt x="646" y="875" on="0"/>
        <pt x="745" y="835" on="0"/>
        <pt x="840" y="783" on="0"/>
        <pt x="915" y="705" on="0"/>
        <pt x="960" y="595" on="0"/>
        <pt x="960" y="518" on="1"/>
        <pt x="960" y="408" on="0"/>
        <pt x="884" y="214" on="0"/>
        <pt x="742" y="69" on="0"/>
        <pt x="539" y="-16" on="0"/>
        <pt x="412" y="-16" on="1"/>
        <pt x="349" y="-16" on="0"/>
        <pt x="222" y="12" on="0"/>
        <pt x="105" y="63" on="0"/>
        <pt x="5" y="133" on="0"/>
        <pt x="-30" y="176" on="1"/>
        <pt x="86" y="328" on="1"/>
        <pt x="99" y="345" on="0"/>
        <pt x="141" y="367" on="0"/>
        <pt x="162" y="367" on="1"/>
        <pt x="190" y="367" on="0"/>
        <pt x="243" y="328" on="0"/>
        <pt x="307" y="281" on="0"/>
        <pt x="392" y="242" on="0"/>
        <pt x="454" y="242" on="1"/>
        <pt x="545" y="242" on="0"/>
        <pt x="644" y="341" on="0"/>
        <pt x="644" y="438" on="1"/>
        <pt x="644" y="483" on="0"/>
        <pt x="599" y="541" on="0"/>
        <pt x="526" y="581" on="0"/>
        <pt x="432" y="612" on="0"/>
        <pt x="334" y="648" on="0"/>
        <pt x="240" y="697" on="0"/>
        <pt x="167" y="776" on="0"/>
        <pt x="122" y="891" on="0"/>
        <pt x="122" y="975" on="1"/>
        <pt x="122" y="1072" on="0"/>
        <pt x="195" y="1251" on="0"/>
        <pt x="331" y="1389" on="0"/>
        <pt x="525" y="1471" on="0"/>
        <pt x="646" y="1471" on="1"/>
        <pt x="708" y="1471" on="0"/>
        <pt x="825" y="1445" on="0"/>
        <pt x="927" y="1399" on="0"/>
        <pt x="1011" y="1336" on="0"/>
        <pt x="1040" y="1299" on="1"/>
      </contour>
    </TTGlyph>
    <TTGlyph name="Sacute" xMin="-30" yMin="-16" xMax="1124" yMax="1796">
      <component glyphName="S" x="0" y="0" flags="0x204"/>
      <component glyphName="acute.case" x="238" y="0" flags="0x4"/>
    </TTGlyph>
    <TTGlyph name="Scaron" xMin="-30" yMin="-16" xMax="1060" yMax="1776">
      <component glyphName="S" x="0" y="0" flags="0x204"/>
      <component glyphName="caron.case" x="220" y="0" flags="0x4"/>
    </TTGlyph>
    <TTGlyph name="T" xMin="104" yMin="0" xMax="1206" yMax="1457">
      <contour>
        <pt x="1206" y="1457" on="1"/>
        <pt x="1172" y="1199" on="1"/>
        <pt x="802" y="1199" on="1"/>
        <pt x="654" y="0" on="1"/>
        <pt x="330" y="0" on="1"/>
        <pt x="476" y="1199" on="1"/>
        <pt x="104" y="1199" on="1"/>
        <pt x="136" y="1457" on="1"/>
      </contour>
    </TTGlyph>
    <TTGlyph name="Thorn" xMin="104" yMin="0" xMax="1226" yMax="1457">
      <contour>
        <pt x="578" y="1216" on="1"/>
        <pt x="736" y="1216" on="1"/>
        <pt x="865" y="1216" on="0"/>
        <pt x="1050" y="1153" on="0"/>
        <pt x="1170" y="1044" on="0"/>
        <pt x="1226" y="895" on="0"/>
        <pt x="1226" y="808" on="1"/>
        <pt x="1226" y="688" on="0"/>
        <pt x="1153" y="485" on="0"/>
        <pt x="1003" y="337" on="0"/>
        <pt x="773" y="254" on="0"/>
        <pt x="616" y="254" on="1"/>
        <pt x="459" y="254" on="1"/>
        <pt x="428" y="0" on="1"/>
        <pt x="104" y="0" on="1"/>
        <pt x="282" y="1457" on="1"/>
        <pt x="608" y="1457" on="1"/>
      </contour>
      <contour>
        <pt x="548" y="973" on="1"/>
        <pt x="489" y="499" on="1"/>
        <pt x="648" y="499" on="1"/>
        <pt x="718" y="499" on="0"/>
        <pt x="813" y="540" on="0"/>
        <pt x="872" y="615" on="0"/>
        <pt x="898" y="719" on="0"/>
        <pt x="898" y="781" on="1"/>
        <pt x="898" y="824" on="0"/>
        <pt x="875" y="894" on="0"/>
        <pt x="827" y="945" on="0"/>
        <pt x="754" y="973" on="0"/>
        <pt x="704" y="973" on="1"/>
      </contour>
    </TTGlyph>
    <TTGlyph name="U" xMin="94" yMin="-16" xMax="1368" yMax="1457">
      <contour>
        <pt x="640" y="256" on="1"/>
        <pt x="701" y="256" on="0"/>
        <pt x="801" y="303" on="0"/>
        <pt x="877" y="390" on="0"/>
        <pt x="927" y="514" on="0"/>
        <pt x="936" y="591" on="1"/>
        <pt x="1042" y="1457" on="1"/>
        <pt x="1368" y="1457" on="1"/>
        <pt x="1262" y="591" on="1"/>
        <pt x="1245" y="458" on="0"/>
        <pt x="1138" y="235" on="0"/>
        <pt x="967" y="74" on="0"/>
        <pt x="741" y="-16" on="0"/>
        <pt x="606" y="-16" on="1"/>
        <pt x="484" y="-16" on="0"/>
        <pt x="293" y="58" on="0"/>
        <pt x="162" y="193" on="0"/>
        <pt x="94" y="381" on="0"/>
        <pt x="94" y="494" on="1"/>
        <pt x="94" y="541" on="0"/>
        <pt x="100" y="591" on="1"/>
        <pt x="204" y="1457" on="1"/>
        <pt x="530" y="1457" on="1"/>
        <pt x="424" y="591" on="1"/>
        <pt x="422" y="573" on="0"/>
        <pt x="420" y="538" on="0"/>
        <pt x="420" y="521" on="1"/>
        <pt x="420" y="397" on="0"/>
        <pt x="533" y="256" on="0"/>
      </contour>
    </TTGlyph>
    <TTGlyph name="Uacute" xMin="94" yMin="-16" xMax="1368" yMax="1795">
      <component glyphName="U" x="0" y="0" flags="0x204"/>
      <component glyphName="acute.case" x="364" y="-1" flags="0x4"/>
    </TTGlyph>
    <TTGlyph name="Ucircumflex" xMin="94" yMin="-16" xMax="1368" yMax="1775">
      <component glyphName="U" x="0" y="0" flags="0x204"/>
      <component glyphName="circumflex.case" x="364" y="-1" flags="0x4"/>
    </TTGlyph>
    <TTGlyph name="Udieresis" xMin="94" yMin="-16" xMax="1368" yMax="1803">
      <component glyphName="U" x="0" y="0" flags="0x204"/>
      <component glyphName="dieresis.case" x="364" y="-1" flags="0x4"/>
    </TTGlyph>
    <TTGlyph name="Ugrave" xMin="94" yMin="-16" xMax="1368" yMax="1795">
      <component glyphName="U" x="0" y="0" flags="0x204"/>
      <component glyphName="grave.case" x="364" y="-1" flags="0x4"/>
    </TTGlyph>
    <TTGlyph name="V" xMin="118" yMin="0" xMax="1488" yMax="1457">
      <contour>
        <pt x="118" y="1457" on="1"/>
        <pt x="380" y="1457" on="1"/>
        <pt x="422" y="1457" on="0"/>
        <pt x="472" y="1417" on="0"/>
        <pt x="478" y="1386" on="1"/>
        <pt x="630" y="583" on="1"/>
        <pt x="639" y="534" on="0"/>
        <pt x="664" y="411" on="0"/>
        <pt x="672" y="348" on="1"/>
        <pt x="693" y="411" on="0"/>
        <pt x="747" y="532" on="0"/>
        <pt x="768" y="583" on="1"/>
        <pt x="1108" y="1386" on="1"/>
        <pt x="1114" y="1399" on="0"/>
        <pt x="1136" y="1425" on="0"/>
        <pt x="1167" y="1445" on="0"/>
        <pt x="1204" y="1457" on="0"/>
        <pt x="1224" y="1457" on="1"/>
        <pt x="1488" y="1457" on="1"/>
        <pt x="772" y="0" on="1"/>
        <pt x="476" y="0" on="1"/>
      </contour>
    </TTGlyph>
    <TTGlyph name="W" xMin="128" yMin="0" xMax="2092" yMax="1457">
      <contour>
        <pt x="128" y="1457" on="1"/>
        <pt x="384" y="1457" on="1"/>
        <pt x="426" y="1457" on="0"/>
        <pt x="477" y="1418" on="0"/>
        <pt x="482" y="1386" on="1"/>
        <pt x="584" y="601" on="1"/>
        <pt x="588" y="573" on="0"/>
        <pt x="592" y="514" on="0"/>
        <pt x="594" y="490" on="1"/>
        <pt x="596" y="461" on="0"/>
        <pt x="596" y="434" on="1"/>
        <pt x="611" y="481" on="0"/>
        <pt x="644" y="564" on="0"/>
        <pt x="658" y="601" on="1"/>
        <pt x="956" y="1386" on="1"/>
        <pt x="967" y="1413" on="0"/>
        <pt x="1029" y="1457" on="0"/>
        <pt x="1070" y="1457" on="1"/>
        <pt x="1146" y="1457" on="1"/>
        <pt x="1188" y="1457" on="0"/>
        <pt x="1241" y="1418" on="0"/>
        <pt x="1246" y="1386" on="1"/>
        <pt x="1358" y="601" on="1"/>
        <pt x="1363" y="566" on="0"/>
        <pt x="1374" y="483" on="0"/>
        <pt x="1378" y="438" on="1"/>
        <pt x="1391" y="483" on="0"/>
        <pt x="1417" y="565" on="0"/>
        <pt x="1430" y="601" on="1"/>
        <pt x="1718" y="1386" on="1"/>
        <pt x="1728" y="1414" on="0"/>
        <pt x="1793" y="1457" on="0"/>
        <pt x="1834" y="1457" on="1"/>
        <pt x="2092" y="1457" on="1"/>
        <pt x="1498" y="0" on="1"/>
        <pt x="1202" y="0" on="1"/>
        <pt x="1068" y="920" on="1"/>
        <pt x="1065" y="942" on="0"/>
        <pt x="1057" y="995" on="0"/>
        <pt x="1054" y="1024" on="1"/>
        <pt x="1043" y="995" on="0"/>
        <pt x="1022" y="942" on="0"/>
        <pt x="1014" y="920" on="1"/>
        <pt x="658" y="0" on="1"/>
        <pt x="364" y="0" on="1"/>
      </contour>
    </TTGlyph>
    <TTGlyph name="X" xMin="-76" yMin="0" xMax="1404" yMax="1457">
      <contour>
        <pt x="472" y="777" on="1"/>
        <pt x="156" y="1457" on="1"/>
        <pt x="452" y="1457" on="1"/>
        <pt x="484" y="1457" on="0"/>
        <pt x="511" y="1440" on="0"/>
        <pt x="520" y="1420" on="1"/>
        <pt x="712" y="960" on="1"/>
        <pt x="717" y="970" on="0"/>
        <pt x="729" y="988" on="0"/>
        <pt x="736" y="999" on="1"/>
        <pt x="992" y="1415" on="1"/>
        <pt x="1006" y="1438" on="0"/>
        <pt x="1039" y="1457" on="0"/>
        <pt x="1062" y="1457" on="1"/>
        <pt x="1404" y="1457" on="1"/>
        <pt x="919" y="793" on="1"/>
        <pt x="1270" y="0" on="1"/>
        <pt x="978" y="0" on="1"/>
        <pt x="946" y="0" on="0"/>
        <pt x="910" y="32" on="0"/>
        <pt x="902" y="52" on="1"/>
        <pt x="687" y="587" on="1"/>
        <pt x="683" y="580" on="0"/>
        <pt x="674" y="568" on="0"/>
        <pt x="670" y="562" on="1"/>
        <pt x="348" y="52" on="1"/>
        <pt x="329" y="23" on="0"/>
        <pt x="279" y="0" on="0"/>
        <pt x="250" y="0" on="1"/>
        <pt x="-76" y="0" on="1"/>
      </contour>
    </TTGlyph>
    <TTGlyph name="Y" xMin="98" yMin="0" xMax="1396" yMax="1457">
      <contour>
        <pt x="799" y="558" on="1"/>
        <pt x="730" y="0" on="1"/>
        <pt x="404" y="0" on="1"/>
        <pt x="473" y="555" on="1"/>
        <pt x="98" y="1457" on="1"/>
        <pt x="388" y="1457" on="1"/>
        <pt x="430" y="1457" on="0"/>
        <pt x="477" y="1418" on="0"/>
        <pt x="488" y="1386" on="1"/>
        <pt x="628" y="945" on="1"/>
        <pt x="642" y="901" on="0"/>
        <pt x="665" y="819" on="0"/>
        <pt x="673" y="781" on="1"/>
        <pt x="692" y="819" on="0"/>
        <pt x="738" y="900" on="0"/>
        <pt x="764" y="945" on="1"/>
        <pt x="1012" y="1386" on="1"/>
        <pt x="1027" y="1413" on="0"/>
        <pt x="1085" y="1457" on="0"/>
        <pt x="1126" y="1457" on="1"/>
        <pt x="1396" y="1457" on="1"/>
      </contour>
    </TTGlyph>
    <TTGlyph name="Yacute" xMin="98" yMin="0" xMax="1396" yMax="1793">
      <component glyphName="Y" x="0" y="0" flags="0x204"/>
      <component glyphName="acute.case" x="350" y="-3" flags="0x4"/>
    </TTGlyph>
    <TTGlyph name="Ydieresis" xMin="98" yMin="0" xMax="1396" yMax="1801">
      <component glyphName="Y" x="0" y="0" flags="0x204"/>
      <component glyphName="dieresis.case" x="350" y="-3" flags="0x4"/>
    </TTGlyph>
    <TTGlyph name="Z" xMin="-28" yMin="0" xMax="1212" yMax="1457">
      <contour>
        <pt x="1212" y="1457" on="1"/>
        <pt x="1198" y="1359" on="1"/>
        <pt x="1195" y="1339" on="0"/>
        <pt x="1176" y="1303" on="0"/>
        <pt x="1164" y="1286" on="1"/>
        <pt x="428" y="251" on="1"/>
        <pt x="1044" y="251" on="1"/>
        <pt x="1012" y="0" on="1"/>
        <pt x="-28" y="0" on="1"/>
        <pt x="-16" y="96" on="1"/>
        <pt x="-13" y="116" on="0"/>
        <pt x="6" y="152" on="0"/>
        <pt x="18" y="169" on="1"/>
        <pt x="755" y="1206" on="1"/>
        <pt x="172" y="1206" on="1"/>
        <pt x="204" y="1457" on="1"/>
      </contour>
    </TTGlyph>
    <TTGlyph name="Zacute" xMin="-28" yMin="0" xMax="1212" yMax="1795">
      <component glyphName="Z" x="0" y="0" flags="0x204"/>
      <component glyphName="acute.case" x="290" y="-1" flags="0x4"/>
    </TTGlyph>
    <TTGlyph name="Zcaron" xMin="-28" yMin="0" xMax="1212" yMax="1775">
      <component glyphName="Z" x="0" y="0" flags="0x204"/>
      <component glyphName="caron.case" x="290" y="-1" flags="0x4"/>
    </TTGlyph>
    <TTGlyph name="Zdotaccent" xMin="-28" yMin="0" xMax="1212" yMax="1876">
      <component glyphName="Z" x="0" y="0" flags="0x204"/>
      <component glyphName="dotaccent.case" x="290" y="-1" flags="0x4"/>
    </TTGlyph>
    <TTGlyph name="a" xMin="29" yMin="-16" xMax="1023" yMax="1053">
      <contour>
        <pt x="897" y="0" on="1"/>
        <pt x="731" y="0" on="1"/>
        <pt x="702" y="0" on="0"/>
        <pt x="663" y="15" on="0"/>
        <pt x="640" y="41" on="0"/>
        <pt x="631" y="77" on="0"/>
        <pt x="631" y="98" on="1"/>
        <pt x="631" y="172" on="1"/>
        <pt x="567" y="84" on="0"/>
        <pt x="411" y="-16" on="0"/>
        <pt x="317" y="-16" on="1"/>
        <pt x="261" y="-16" on="0"/>
        <pt x="157" y="29" on="0"/>
        <pt x="77" y="120" on="0"/>
        <pt x="29" y="261" on="0"/>
        <pt x="29" y="357" on="1"/>
        <pt x="29" y="498" on="0"/>
        <pt x="132" y="751" on="0"/>
        <pt x="317" y="941" on="0"/>
        <pt x="571" y="1053" on="0"/>
        <pt x="723" y="1053" on="1"/>
        <pt x="797" y="1053" on="0"/>
        <pt x="949" y="1033" on="0"/>
        <pt x="1023" y="1007" on="1"/>
      </contour>
      <contour>
        <pt x="441" y="229" on="1"/>
        <pt x="475" y="229" on="0"/>
        <pt x="539" y="280" on="0"/>
        <pt x="596" y="368" on="0"/>
        <pt x="644" y="486" on="0"/>
        <pt x="661" y="553" on="1"/>
        <pt x="697" y="840" on="1"/>
        <pt x="679" y="840" on="1"/>
        <pt x="603" y="840" on="0"/>
        <pt x="478" y="772" on="0"/>
        <pt x="388" y="655" on="0"/>
        <pt x="339" y="500" on="0"/>
        <pt x="339" y="412" on="1"/>
        <pt x="339" y="362" on="0"/>
        <pt x="355" y="292" on="0"/>
        <pt x="382" y="249" on="0"/>
        <pt x="419" y="229" on="0"/>
      </contour>
    </TTGlyph>
    <TTGlyph name="aacute" xMin="29" yMin="-16" xMax="1099" yMax="1471">
      <component glyphName="a" x="0" y="0" flags="0x204"/>
      <component glyphName="acute" x="297" y="0" flags="0x4"/>
    </TTGlyph>
    <TTGlyph name="acircumflex" xMin="29" yMin="-16" xMax="1043" yMax="1455">
      <component glyphName="a" x="0" y="0" flags="0x204"/>
      <component glyphName="circumflex" x="297" y="0" flags="0x4"/>
    </TTGlyph>
    <TTGlyph name="acute" xMin="248" yMin="1168" xMax="802" yMax="1471">
      <contour>
        <pt x="802" y="1471" on="1"/>
        <pt x="528" y="1208" on="1"/>
        <pt x="504" y="1185" on="0"/>
        <pt x="459" y="1168" on="0"/>
        <pt x="426" y="1168" on="1"/>
        <pt x="248" y="1168" on="1"/>
        <pt x="402" y="1413" on="1"/>
        <pt x="420" y="1441" on="0"/>
        <pt x="469" y="1471" on="0"/>
        <pt x="514" y="1471" on="1"/>
      </contour>
    </TTGlyph>
    <TTGlyph name="acute.case" xMin="246" yMin="1551" xMax="886" yMax="1796">
      <contour>
        <pt x="886" y="1796" on="1"/>
        <pt x="604" y="1592" on="1"/>
        <pt x="572" y="1569" on="0"/>
        <pt x="522" y="1551" on="0"/>
        <pt x="491" y="1551" on="1"/>
        <pt x="246" y="1551" on="1"/>
        <pt x="438" y="1752" on="1"/>
        <pt x="453" y="1765" on="0"/>
        <pt x="477" y="1783" on="0"/>
        <pt x="504" y="1792" on="0"/>
        <pt x="535" y="1796" on="0"/>
        <pt x="558" y="1796" on="1"/>
      </contour>
    </TTGlyph>
    <TTGlyph name="adieresis" xMin="29" yMin="-16" xMax="1059" yMax="1476">
      <component glyphName="a" x="0" y="0" flags="0x204"/>
      <component glyphName="dieresis" x="297" y="0" flags="0x4"/>
    </TTGlyph>
    <TTGlyph name="ae" xMin="0" yMin="-16" xMax="1454" yMax="1055">
      <contour>
        <pt x="1122" y="1051" on="1"/>
        <pt x="1189" y="1051" on="0"/>
        <pt x="1306" y="1007" on="0"/>
        <pt x="1393" y="931" on="0"/>
        <pt x="1442" y="830" on="0"/>
        <pt x="1442" y="773" on="1"/>
        <pt x="1442" y="737" on="0"/>
        <pt x="1424" y="662" on="0"/>
        <pt x="1376" y="591" on="0"/>
        <pt x="1294" y="528" on="0"/>
        <pt x="1165" y="478" on="0"/>
        <pt x="985" y="445" on="0"/>
        <pt x="864" y="441" on="1"/>
        <pt x="867" y="322" on="0"/>
        <pt x="961" y="216" on="0"/>
        <pt x="1046" y="216" on="1"/>
        <pt x="1087" y="216" on="0"/>
        <pt x="1147" y="230" on="0"/>
        <pt x="1192" y="252" on="0"/>
        <pt x="1228" y="276" on="0"/>
        <pt x="1261" y="298" on="0"/>
        <pt x="1297" y="312" on="0"/>
        <pt x="1320" y="312" on="1"/>
        <pt x="1335" y="312" on="0"/>
        <pt x="1363" y="297" on="0"/>
        <pt x="1374" y="285" on="1"/>
        <pt x="1454" y="192" on="1"/>
        <pt x="1399" y="138" on="0"/>
        <pt x="1294" y="59" on="0"/>
        <pt x="1183" y="8" on="0"/>
        <pt x="1058" y="-16" on="0"/>
        <pt x="984" y="-16" on="1"/>
        <pt x="892" y="-16" on="0"/>
        <pt x="732" y="71" on="0"/>
        <pt x="681" y="164" on="1"/>
        <pt x="646" y="117" on="0"/>
        <pt x="561" y="49" on="0"/>
        <pt x="466" y="5" on="0"/>
        <pt x="365" y="-16" on="0"/>
        <pt x="316" y="-16" on="1"/>
        <pt x="154" y="-16" on="0"/>
        <pt x="0" y="118" on="0"/>
        <pt x="0" y="237" on="1"/>
        <pt x="0" y="279" on="0"/>
        <pt x="23" y="368" on="0"/>
        <pt x="77" y="451" on="0"/>
        <pt x="167" y="526" on="0"/>
        <pt x="300" y="583" on="0"/>
        <pt x="481" y="619" on="0"/>
        <pt x="600" y="622" on="1"/>
        <pt x="605" y="654" on="0"/>
        <pt x="607" y="682" on="0"/>
        <pt x="607" y="693" on="1"/>
        <pt x="607" y="762" on="0"/>
        <pt x="550" y="825" on="0"/>
        <pt x="498" y="825" on="1"/>
        <pt x="448" y="825" on="0"/>
        <pt x="383" y="800" on="0"/>
        <pt x="329" y="771" on="0"/>
        <pt x="278" y="746" on="0"/>
        <pt x="244" y="746" on="1"/>
        <pt x="214" y="746" on="0"/>
        <pt x="174" y="776" on="0"/>
        <pt x="164" y="798" on="1"/>
        <pt x="122" y="892" on="1"/>
        <pt x="219" y="974" on="0"/>
        <pt x="419" y="1055" on="0"/>
        <pt x="532" y="1055" on="1"/>
        <pt x="635" y="1055" on="0"/>
        <pt x="763" y="982" on="0"/>
        <pt x="795" y="918" on="1"/>
        <pt x="858" y="981" on="0"/>
        <pt x="1021" y="1051" on="0"/>
      </contour>
      <contour>
        <pt x="578" y="446" on="1"/>
        <pt x="487" y="441" on="0"/>
        <pt x="374" y="410" on="0"/>
        <pt x="311" y="364" on="0"/>
        <pt x="288" y="305" on="0"/>
        <pt x="288" y="273" on="1"/>
        <pt x="288" y="181" on="0"/>
        <pt x="374" y="181" on="1"/>
        <pt x="411" y="181" on="0"/>
        <pt x="478" y="207" on="0"/>
        <pt x="531" y="265" on="0"/>
        <pt x="568" y="358" on="0"/>
        <pt x="576" y="425" on="1"/>
      </contour>
      <contour>
        <pt x="1082" y="844" on="1"/>
        <pt x="1038" y="844" on="0"/>
        <pt x="969" y="811" on="0"/>
        <pt x="918" y="750" on="0"/>
        <pt x="884" y="664" on="0"/>
        <pt x="875" y="611" on="1"/>
        <pt x="971" y="620" on="0"/>
        <pt x="1088" y="651" on="0"/>
        <pt x="1151" y="689" on="0"/>
        <pt x="1172" y="734" on="0"/>
        <pt x="1172" y="758" on="1"/>
        <pt x="1172" y="793" on="0"/>
        <pt x="1132" y="844" on="0"/>
      </contour>
    </TTGlyph>
    <TTGlyph name="agrave" xMin="29" yMin="-16" xMax="1023" yMax="1471">
      <component glyphName="a" x="0" y="0" flags="0x204"/>
      <component glyphName="grave" x="395" y="0" flags="0x4"/>
    </TTGlyph>
    <TTGlyph name="ampersand" xMin="26" yMin="-16" xMax="1290" yMax="1471">
      <contour>
        <pt x="732" y="1471" on="1"/>
        <pt x="822" y="1471" on="0"/>
        <pt x="956" y="1417" on="0"/>
        <pt x="1045" y="1326" on="0"/>
        <pt x="1090" y="1204" on="0"/>
        <pt x="1090" y="1137" on="1"/>
        <pt x="910" y="1102" on="1"/>
        <pt x="893" y="1099" on="0"/>
        <pt x="881" y="1099" on="1"/>
        <pt x="858" y="1099" on="0"/>
        <pt x="832" y="1120" on="0"/>
        <pt x="824" y="1145" on="1"/>
        <pt x="790" y="1251" on="0"/>
        <pt x="704" y="1251" on="1"/>
        <pt x="670" y="1251" on="0"/>
        <pt x="617" y="1220" on="0"/>
        <pt x="581" y="1168" on="0"/>
        <pt x="562" y="1098" on="0"/>
        <pt x="562" y="1059" on="1"/>
        <pt x="562" y="1019" on="0"/>
        <pt x="589" y="931" on="0"/>
        <pt x="622" y="880" on="1"/>
        <pt x="894" y="521" on="1"/>
        <pt x="949" y="631" on="0"/>
        <pt x="973" y="758" on="1"/>
        <pt x="978" y="785" on="0"/>
        <pt x="1007" y="819" on="0"/>
        <pt x="1036" y="819" on="1"/>
        <pt x="1248" y="819" on="1"/>
        <pt x="1229" y="672" on="0"/>
        <pt x="1127" y="418" on="0"/>
        <pt x="1051" y="315" on="1"/>
        <pt x="1290" y="0" on="1"/>
        <pt x="1030" y="0" on="1"/>
        <pt x="994" y="0" on="0"/>
        <pt x="943" y="9" on="0"/>
        <pt x="903" y="29" on="0"/>
        <pt x="870" y="60" on="0"/>
        <pt x="852" y="83" on="1"/>
        <pt x="834" y="106" on="1"/>
        <pt x="746" y="47" on="0"/>
        <pt x="548" y="-16" on="0"/>
        <pt x="442" y="-16" on="1"/>
        <pt x="341" y="-16" on="0"/>
        <pt x="185" y="37" on="0"/>
        <pt x="80" y="136" on="0"/>
        <pt x="26" y="275" on="0"/>
        <pt x="26" y="361" on="1"/>
        <pt x="26" y="437" on="0"/>
        <pt x="73" y="570" on="0"/>
        <pt x="155" y="683" on="0"/>
        <pt x="269" y="774" on="0"/>
        <pt x="335" y="807" on="1"/>
        <pt x="307" y="868" on="0"/>
        <pt x="284" y="987" on="0"/>
        <pt x="284" y="1041" on="1"/>
        <pt x="284" y="1128" on="0"/>
        <pt x="346" y="1284" on="0"/>
        <pt x="462" y="1402" on="0"/>
        <pt x="628" y="1471" on="0"/>
      </contour>
      <contour>
        <pt x="334" y="399" on="1"/>
        <pt x="334" y="358" on="0"/>
        <pt x="352" y="290" on="0"/>
        <pt x="393" y="241" on="0"/>
        <pt x="459" y="214" on="0"/>
        <pt x="506" y="214" on="1"/>
        <pt x="558" y="214" on="0"/>
        <pt x="658" y="250" on="0"/>
        <pt x="704" y="284" on="1"/>
        <pt x="443" y="641" on="1"/>
        <pt x="381" y="588" on="0"/>
        <pt x="334" y="466" on="0"/>
      </contour>
    </TTGlyph>
    <TTGlyph name="aogonek" xMin="29" yMin="-347" xMax="1023" yMax="1053">
      <contour>
        <pt x="859" y="-171" on="1"/>
        <pt x="880" y="-171" on="0"/>
        <pt x="883" y="-190" on="1"/>
        <pt x="913" y="-297" on="1"/>
        <pt x="878" y="-318" on="0"/>
        <pt x="777" y="-347" on="0"/>
        <pt x="723" y="-347" on="1"/>
        <pt x="629" y="-347" on="0"/>
        <pt x="537" y="-271" on="0"/>
        <pt x="537" y="-214" on="1"/>
        <pt x="537" y="-157" on="0"/>
        <pt x="612" y="-46" on="0"/>
        <pt x="698" y="3" on="1"/>
        <pt x="659" y="11" on="0"/>
        <pt x="631" y="63" on="0"/>
        <pt x="631" y="98" on="1"/>
        <pt x="631" y="172" on="1"/>
        <pt x="567" y="84" on="0"/>
        <pt x="411" y="-16" on="0"/>
        <pt x="317" y="-16" on="1"/>
        <pt x="261" y="-16" on="0"/>
        <pt x="157" y="29" on="0"/>
        <pt x="77" y="120" on="0"/>
        <pt x="29" y="261" on="0"/>
        <pt x="29" y="357" on="1"/>
        <pt x="29" y="498" on="0"/>
        <pt x="132" y="751" on="0"/>
        <pt x="317" y="941" on="0"/>
        <pt x="571" y="1053" on="0"/>
        <pt x="723" y="1053" on="1"/>
        <pt x="797" y="1053" on="0"/>
        <pt x="949" y="1033" on="0"/>
        <pt x="1023" y="1007" on="1"/>
        <pt x="897" y="0" on="1"/>
        <pt x="867" y="0" on="1"/>
        <pt x="825" y="-23" on="0"/>
        <pt x="767" y="-91" on="0"/>
        <pt x="767" y="-134" on="1"/>
        <pt x="767" y="-154" on="0"/>
        <pt x="787" y="-180" on="0"/>
        <pt x="807" y="-180" on="1"/>
        <pt x="834" y="-180" on="0"/>
        <pt x="850" y="-171" on="0"/>
      </contour>
      <contour>
        <pt x="441" y="229" on="1"/>
        <pt x="475" y="229" on="0"/>
        <pt x="539" y="280" on="0"/>
        <pt x="596" y="368" on="0"/>
        <pt x="644" y="486" on="0"/>
        <pt x="661" y="553" on="1"/>
        <pt x="697" y="840" on="1"/>
        <pt x="679" y="840" on="1"/>
        <pt x="603" y="840" on="0"/>
        <pt x="478" y="772" on="0"/>
        <pt x="388" y="655" on="0"/>
        <pt x="339" y="500" on="0"/>
        <pt x="339" y="412" on="1"/>
        <pt x="339" y="362" on="0"/>
        <pt x="355" y="292" on="0"/>
        <pt x="382" y="249" on="0"/>
        <pt x="419" y="229" on="0"/>
      </contour>
    </TTGlyph>
    <TTGlyph name="approxequal" xMin="150" yMin="336" xMax="1056" yMax="1014">
      <contour>
        <pt x="850" y="921" on="1"/>
        <pt x="883" y="921" on="0"/>
        <pt x="947" y="936" on="0"/>
        <pt x="1000" y="956" on="0"/>
        <pt x="1038" y="978" on="0"/>
        <pt x="1046" y="985" on="1"/>
        <pt x="1056" y="802" on="1"/>
        <pt x="1008" y="748" on="0"/>
        <pt x="871" y="702" on="0"/>
        <pt x="802" y="702" on="1"/>
        <pt x="749" y="702" on="0"/>
        <pt x="646" y="732" on="0"/>
        <pt x="548" y="768" on="0"/>
        <pt x="456" y="798" on="0"/>
        <pt x="414" y="798" on="1"/>
        <pt x="379" y="798" on="0"/>
        <pt x="313" y="782" on="0"/>
        <pt x="259" y="760" on="0"/>
        <pt x="221" y="736" on="0"/>
        <pt x="214" y="727" on="1"/>
        <pt x="194" y="905" on="1"/>
        <pt x="244" y="963" on="0"/>
        <pt x="387" y="1014" on="0"/>
        <pt x="462" y="1014" on="1"/>
        <pt x="514" y="1014" on="0"/>
        <pt x="617" y="985" on="0"/>
        <pt x="715" y="950" on="0"/>
        <pt x="807" y="921" on="0"/>
      </contour>
      <contour>
        <pt x="804" y="552" on="1"/>
        <pt x="837" y="552" on="0"/>
        <pt x="901" y="567" on="0"/>
        <pt x="955" y="588" on="0"/>
        <pt x="993" y="610" on="0"/>
        <pt x="1000" y="617" on="1"/>
        <pt x="1010" y="433" on="1"/>
        <pt x="962" y="381" on="0"/>
        <pt x="825" y="336" on="0"/>
        <pt x="756" y="336" on="1"/>
        <pt x="703" y="336" on="0"/>
        <pt x="600" y="365" on="0"/>
        <pt x="503" y="400" on="0"/>
        <pt x="411" y="429" on="0"/>
        <pt x="368" y="429" on="1"/>
        <pt x="334" y="429" on="0"/>
        <pt x="268" y="414" on="0"/>
        <pt x="214" y="393" on="0"/>
        <pt x="175" y="370" on="0"/>
        <pt x="168" y="361" on="1"/>
        <pt x="150" y="537" on="1"/>
        <pt x="198" y="595" on="0"/>
        <pt x="341" y="648" on="0"/>
        <pt x="416" y="648" on="1"/>
        <pt x="469" y="648" on="0"/>
        <pt x="572" y="618" on="0"/>
        <pt x="670" y="582" on="0"/>
        <pt x="762" y="552" on="0"/>
      </contour>
    </TTGlyph>
    <TTGlyph name="aring" xMin="29" yMin="-16" xMax="1023" yMax="1554">
      <component glyphName="a" x="0" y="0" flags="0x204"/>
      <component glyphName="ring" x="317" y="0" flags="0x4"/>
    </TTGlyph>
    <TTGlyph name="asciicircum" xMin="140" yMin="768" xMax="1114" yMax="1457">
      <contour>
        <pt x="1114" y="768" on="1"/>
        <pt x="886" y="768" on="1"/>
        <pt x="859" y="768" on="0"/>
        <pt x="823" y="795" on="0"/>
        <pt x="812" y="816" on="1"/>
        <pt x="688" y="1053" on="1"/>
        <pt x="671" y="1085" on="0"/>
        <pt x="642" y="1143" on="0"/>
        <pt x="631" y="1172" on="1"/>
        <pt x="621" y="1143" on="0"/>
        <pt x="595" y="1085" on="0"/>
        <pt x="578" y="1053" on="1"/>
        <pt x="458" y="816" on="1"/>
        <pt x="447" y="796" on="0"/>
        <pt x="410" y="768" on="0"/>
        <pt x="380" y="768" on="1"/>
        <pt x="140" y="768" on="1"/>
        <pt x="526" y="1457" on="1"/>
        <pt x="728" y="1457" on="1"/>
      </contour>
    </TTGlyph>
    <TTGlyph name="asciitilde" xMin="20" yMin="385" xMax="1020" yMax="799">
      <contour>
        <pt x="670" y="677" on="1"/>
        <pt x="718" y="677" on="0"/>
        <pt x="770" y="739" on="0"/>
        <pt x="770" y="799" on="1"/>
        <pt x="1020" y="799" on="1"/>
        <pt x="1020" y="714" on="0"/>
        <pt x="975" y="578" on="0"/>
        <pt x="891" y="483" on="0"/>
        <pt x="768" y="432" on="0"/>
        <pt x="690" y="432" on="1"/>
        <pt x="637" y="432" on="0"/>
        <pt x="544" y="455" on="0"/>
        <pt x="464" y="484" on="0"/>
        <pt x="397" y="507" on="0"/>
        <pt x="370" y="507" on="1"/>
        <pt x="322" y="507" on="0"/>
        <pt x="270" y="445" on="0"/>
        <pt x="270" y="385" on="1"/>
        <pt x="20" y="385" on="1"/>
        <pt x="20" y="470" on="0"/>
        <pt x="65" y="606" on="0"/>
        <pt x="149" y="701" on="0"/>
        <pt x="272" y="752" on="0"/>
        <pt x="350" y="752" on="1"/>
        <pt x="403" y="752" on="0"/>
        <pt x="496" y="729" on="0"/>
        <pt x="576" y="700" on="0"/>
        <pt x="643" y="677" on="0"/>
      </contour>
    </TTGlyph>
    <TTGlyph name="asterisk" xMin="116" yMin="819" xMax="784" yMax="1522">
      <contour>
        <pt x="336" y="819" on="1"/>
        <pt x="358" y="994" on="1"/>
        <pt x="363" y="1036" on="0"/>
        <pt x="378" y="1071" on="1"/>
        <pt x="364" y="1057" on="0"/>
        <pt x="331" y="1035" on="0"/>
        <pt x="312" y="1025" on="1"/>
        <pt x="170" y="938" on="1"/>
        <pt x="116" y="1053" on="1"/>
        <pt x="258" y="1140" on="1"/>
        <pt x="278" y="1151" on="0"/>
        <pt x="317" y="1167" on="0"/>
        <pt x="337" y="1171" on="1"/>
        <pt x="299" y="1177" on="0"/>
        <pt x="266" y="1201" on="1"/>
        <pt x="144" y="1290" on="1"/>
        <pt x="228" y="1406" on="1"/>
        <pt x="350" y="1316" on="1"/>
        <pt x="365" y="1306" on="0"/>
        <pt x="393" y="1284" on="0"/>
        <pt x="404" y="1271" on="1"/>
        <pt x="400" y="1288" on="0"/>
        <pt x="400" y="1313" on="1"/>
        <pt x="400" y="1321" on="0"/>
        <pt x="400" y="1338" on="0"/>
        <pt x="402" y="1346" on="1"/>
        <pt x="424" y="1522" on="1"/>
        <pt x="564" y="1522" on="1"/>
        <pt x="542" y="1347" on="1"/>
        <pt x="539" y="1327" on="0"/>
        <pt x="530" y="1279" on="0"/>
        <pt x="521" y="1262" on="1"/>
        <pt x="535" y="1276" on="0"/>
        <pt x="568" y="1306" on="0"/>
        <pt x="588" y="1316" on="1"/>
        <pt x="730" y="1404" on="1"/>
        <pt x="784" y="1288" on="1"/>
        <pt x="642" y="1201" on="1"/>
        <pt x="622" y="1190" on="0"/>
        <pt x="582" y="1175" on="0"/>
        <pt x="562" y="1171" on="1"/>
        <pt x="581" y="1167" on="0"/>
        <pt x="617" y="1152" on="0"/>
        <pt x="634" y="1140" on="1"/>
        <pt x="754" y="1051" on="1"/>
        <pt x="672" y="938" on="1"/>
        <pt x="550" y="1025" on="1"/>
        <pt x="534" y="1035" on="0"/>
        <pt x="507" y="1057" on="0"/>
        <pt x="496" y="1070" on="1"/>
        <pt x="498" y="1060" on="0"/>
        <pt x="500" y="1040" on="0"/>
        <pt x="500" y="1029" on="1"/>
        <pt x="500" y="1021" on="0"/>
        <pt x="499" y="1004" on="0"/>
        <pt x="498" y="996" on="1"/>
        <pt x="476" y="819" on="1"/>
      </contour>
    </TTGlyph>
    <TTGlyph name="at" xMin="46" yMin="-242" xMax="1482" yMax="1396">
      <contour>
        <pt x="1016" y="182" on="1"/>
        <pt x="988" y="182" on="0"/>
        <pt x="934" y="195" on="0"/>
        <pt x="889" y="224" on="0"/>
        <pt x="855" y="270" on="0"/>
        <pt x="846" y="303" on="1"/>
        <pt x="783" y="238" on="0"/>
        <pt x="655" y="183" on="0"/>
        <pt x="586" y="183" on="1"/>
        <pt x="533" y="183" on="0"/>
        <pt x="454" y="221" on="0"/>
        <pt x="402" y="287" on="0"/>
        <pt x="376" y="377" on="0"/>
        <pt x="376" y="430" on="1"/>
        <pt x="376" y="491" on="0"/>
        <pt x="408" y="620" on="0"/>
        <pt x="471" y="740" on="0"/>
        <pt x="565" y="847" on="0"/>
        <pt x="691" y="927" on="0"/>
        <pt x="848" y="973" on="0"/>
        <pt x="942" y="973" on="1"/>
        <pt x="984" y="973" on="0"/>
        <pt x="1050" y="967" on="0"/>
        <pt x="1107" y="955" on="0"/>
        <pt x="1156" y="938" on="0"/>
        <pt x="1182" y="926" on="1"/>
        <pt x="1044" y="548" on="1"/>
        <pt x="1030" y="509" on="0"/>
        <pt x="1017" y="450" on="0"/>
        <pt x="1017" y="429" on="1"/>
        <pt x="1017" y="391" on="0"/>
        <pt x="1053" y="361" on="0"/>
        <pt x="1082" y="361" on="1"/>
        <pt x="1121" y="361" on="0"/>
        <pt x="1190" y="428" on="0"/>
        <pt x="1242" y="543" on="0"/>
        <pt x="1272" y="697" on="0"/>
        <pt x="1272" y="785" on="1"/>
        <pt x="1272" y="888" on="0"/>
        <pt x="1217" y="1047" on="0"/>
        <pt x="1112" y="1156" on="0"/>
        <pt x="959" y="1212" on="0"/>
        <pt x="862" y="1212" on="1"/>
        <pt x="731" y="1212" on="0"/>
        <pt x="511" y="1100" on="0"/>
        <pt x="352" y="903" on="0"/>
        <pt x="262" y="637" on="0"/>
        <pt x="262" y="483" on="1"/>
        <pt x="262" y="351" on="0"/>
        <pt x="332" y="150" on="0"/>
        <pt x="461" y="14" on="0"/>
        <pt x="643" y="-56" on="0"/>
        <pt x="756" y="-56" on="1"/>
        <pt x="829" y="-56" on="0"/>
        <pt x="949" y="-41" on="0"/>
        <pt x="1043" y="-17" on="0"/>
        <pt x="1112" y="12" on="0"/>
        <pt x="1134" y="26" on="1"/>
        <pt x="1151" y="36" on="0"/>
        <pt x="1180" y="43" on="0"/>
        <pt x="1192" y="43" on="1"/>
        <pt x="1218" y="43" on="0"/>
        <pt x="1247" y="13" on="0"/>
        <pt x="1252" y="-7" on="1"/>
        <pt x="1274" y="-88" on="1"/>
        <pt x="1224" y="-121" on="0"/>
        <pt x="1107" y="-177" on="0"/>
        <pt x="972" y="-219" on="0"/>
        <pt x="819" y="-242" on="0"/>
        <pt x="734" y="-242" on="1"/>
        <pt x="576" y="-242" on="0"/>
        <pt x="322" y="-140" on="0"/>
        <pt x="143" y="47" on="0"/>
        <pt x="46" y="311" on="0"/>
        <pt x="46" y="473" on="1"/>
        <pt x="46" y="597" on="0"/>
        <pt x="106" y="830" on="0"/>
        <pt x="215" y="1035" on="0"/>
        <pt x="369" y="1206" on="0"/>
        <pt x="555" y="1328" on="0"/>
        <pt x="770" y="1396" on="0"/>
        <pt x="886" y="1396" on="1"/>
        <pt x="1010" y="1396" on="0"/>
        <pt x="1227" y="1309" on="0"/>
        <pt x="1389" y="1149" on="0"/>
        <pt x="1482" y="924" on="0"/>
        <pt x="1482" y="785" on="1"/>
        <pt x="1482" y="660" on="0"/>
        <pt x="1410" y="440" on="0"/>
        <pt x="1284" y="277" on="0"/>
        <pt x="1114" y="182" on="0"/>
      </contour>
      <contour>
        <pt x="670" y="369" on="1"/>
        <pt x="689" y="369" on="0"/>
        <pt x="726" y="383" on="0"/>
        <pt x="762" y="418" on="0"/>
        <pt x="797" y="475" on="0"/>
        <pt x="812" y="517" on="1"/>
        <pt x="912" y="791" on="1"/>
        <pt x="891" y="794" on="0"/>
        <pt x="870" y="794" on="1"/>
        <pt x="822" y="794" on="0"/>
        <pt x="728" y="739" on="0"/>
        <pt x="654" y="647" on="0"/>
        <pt x="608" y="526" on="0"/>
        <pt x="608" y="461" on="1"/>
        <pt x="608" y="369" on="0"/>
      </contour>
    </TTGlyph>
    <TTGlyph name="atilde" xMin="29" yMin="-16" xMax="1047" yMax="1457">
      <component glyphName="a" x="0" y="0" flags="0x204"/>
      <component glyphName="tilde" x="297" y="0" flags="0x4"/>
    </TTGlyph>
    <TTGlyph name="b" xMin="43" yMin="-16" xMax="1065" yMax="1497">
      <contour>
        <pt x="43" y="0" on="1"/>
        <pt x="225" y="1497" on="1"/>
        <pt x="529" y="1497" on="1"/>
        <pt x="452" y="874" on="1"/>
        <pt x="521" y="958" on="0"/>
        <pt x="684" y="1053" on="0"/>
        <pt x="775" y="1053" on="1"/>
        <pt x="839" y="1053" on="0"/>
        <pt x="945" y="1008" on="0"/>
        <pt x="1022" y="912" on="0"/>
        <pt x="1065" y="763" on="0"/>
        <pt x="1065" y="660" on="1"/>
        <pt x="1065" y="524" on="0"/>
        <pt x="982" y="279" on="0"/>
        <pt x="842" y="93" on="0"/>
        <pt x="659" y="-16" on="0"/>
        <pt x="559" y="-16" on="1"/>
        <pt x="482" y="-16" on="0"/>
        <pt x="365" y="43" on="0"/>
        <pt x="324" y="91" on="1"/>
        <pt x="321" y="81" on="1"/>
        <pt x="307" y="39" on="0"/>
        <pt x="263" y="0" on="0"/>
        <pt x="213" y="0" on="1"/>
      </contour>
      <contour>
        <pt x="651" y="818" on="1"/>
        <pt x="618" y="818" on="0"/>
        <pt x="547" y="768" on="0"/>
        <pt x="481" y="681" on="0"/>
        <pt x="424" y="564" on="0"/>
        <pt x="405" y="498" on="1"/>
        <pt x="375" y="256" on="1"/>
        <pt x="404" y="232" on="0"/>
        <pt x="476" y="212" on="0"/>
        <pt x="509" y="212" on="1"/>
        <pt x="563" y="212" on="0"/>
        <pt x="654" y="284" on="0"/>
        <pt x="720" y="401" on="0"/>
        <pt x="757" y="551" on="0"/>
        <pt x="757" y="629" on="1"/>
        <pt x="757" y="728" on="0"/>
        <pt x="699" y="818" on="0"/>
      </contour>
    </TTGlyph>
    <TTGlyph name="backslash" xMin="100" yMin="-101" xMax="688" yMax="1459">
      <contour>
        <pt x="100" y="1459" on="1"/>
        <pt x="226" y="1459" on="1"/>
        <pt x="279" y="1459" on="0"/>
        <pt x="350" y="1405" on="0"/>
        <pt x="364" y="1357" on="1"/>
        <pt x="688" y="-101" on="1"/>
        <pt x="562" y="-101" on="1"/>
        <pt x="515" y="-101" on="0"/>
        <pt x="434" y="-46" on="0"/>
        <pt x="420" y="7" on="1"/>
      </contour>
    </TTGlyph>
    <TTGlyph name="bar" xMin="120" yMin="-329" xMax="360" yMax="1557">
      <contour>
        <pt x="120" y="1557" on="1"/>
        <pt x="360" y="1557" on="1"/>
        <pt x="360" y="-329" on="1"/>
        <pt x="120" y="-329" on="1"/>
      </contour>
    </TTGlyph>
    <TTGlyph name="braceleft" xMin="12" yMin="-320" xMax="630" yMax="1555">
      <contour>
        <pt x="96" y="432" on="1"/>
        <pt x="96" y="477" on="0"/>
        <pt x="59" y="534" on="0"/>
        <pt x="14" y="534" on="1"/>
        <pt x="36" y="701" on="1"/>
        <pt x="73" y="701" on="0"/>
        <pt x="119" y="733" on="0"/>
        <pt x="145" y="796" on="0"/>
        <pt x="154" y="892" on="0"/>
        <pt x="154" y="956" on="1"/>
        <pt x="154" y="967" on="0"/>
        <pt x="153" y="1001" on="0"/>
        <pt x="153" y="1038" on="0"/>
        <pt x="152" y="1072" on="0"/>
        <pt x="152" y="1084" on="1"/>
        <pt x="152" y="1198" on="0"/>
        <pt x="202" y="1373" on="0"/>
        <pt x="307" y="1493" on="0"/>
        <pt x="471" y="1555" on="0"/>
        <pt x="584" y="1555" on="1"/>
        <pt x="630" y="1555" on="1"/>
        <pt x="614" y="1425" on="1"/>
        <pt x="612" y="1410" on="0"/>
        <pt x="597" y="1390" on="0"/>
        <pt x="577" y="1376" on="0"/>
        <pt x="556" y="1370" on="0"/>
        <pt x="548" y="1370" on="1"/>
        <pt x="491" y="1370" on="0"/>
        <pt x="431" y="1288" on="0"/>
        <pt x="422" y="1216" on="1"/>
        <pt x="415" y="1161" on="0"/>
        <pt x="411" y="1064" on="0"/>
        <pt x="408" y="973" on="0"/>
        <pt x="405" y="886" on="0"/>
        <pt x="400" y="841" on="1"/>
        <pt x="395" y="803" on="0"/>
        <pt x="367" y="732" on="0"/>
        <pt x="322" y="672" on="0"/>
        <pt x="261" y="628" on="0"/>
        <pt x="222" y="616" on="1"/>
        <pt x="285" y="594" on="0"/>
        <pt x="346" y="490" on="0"/>
        <pt x="346" y="427" on="1"/>
        <pt x="346" y="370" on="0"/>
        <pt x="323" y="261" on="0"/>
        <pt x="295" y="153" on="0"/>
        <pt x="272" y="43" on="0"/>
        <pt x="272" y="-16" on="1"/>
        <pt x="272" y="-70" on="0"/>
        <pt x="316" y="-134" on="0"/>
        <pt x="364" y="-134" on="1"/>
        <pt x="380" y="-134" on="0"/>
        <pt x="416" y="-159" on="0"/>
        <pt x="416" y="-185" on="1"/>
        <pt x="416" y="-192" on="0"/>
        <pt x="412" y="-230" on="0"/>
        <pt x="406" y="-273" on="0"/>
        <pt x="401" y="-312" on="0"/>
        <pt x="400" y="-320" on="1"/>
        <pt x="352" y="-320" on="1"/>
        <pt x="263" y="-320" on="0"/>
        <pt x="134" y="-277" on="0"/>
        <pt x="51" y="-198" on="0"/>
        <pt x="12" y="-88" on="0"/>
        <pt x="12" y="-22" on="1"/>
        <pt x="12" y="42" on="0"/>
        <pt x="38" y="159" on="0"/>
        <pt x="70" y="269" on="0"/>
        <pt x="96" y="377" on="0"/>
      </contour>
    </TTGlyph>
    <TTGlyph name="braceright" xMin="-48" yMin="-320" xMax="570" yMax="1555">
      <contour>
        <pt x="430" y="151" on="1"/>
        <pt x="430" y="37" on="0"/>
        <pt x="380" y="-138" on="0"/>
        <pt x="275" y="-258" on="0"/>
        <pt x="112" y="-320" on="0"/>
        <pt x="0" y="-320" on="1"/>
        <pt x="-48" y="-320" on="1"/>
        <pt x="-30" y="-192" on="1"/>
        <pt x="-25" y="-162" on="0"/>
        <pt x="21" y="-134" on="0"/>
        <pt x="38" y="-134" on="1"/>
        <pt x="94" y="-133" on="0"/>
        <pt x="153" y="-52" on="0"/>
        <pt x="162" y="19" on="1"/>
        <pt x="169" y="73" on="0"/>
        <pt x="174" y="170" on="0"/>
        <pt x="176" y="261" on="0"/>
        <pt x="179" y="348" on="0"/>
        <pt x="184" y="392" on="1"/>
        <pt x="188" y="430" on="0"/>
        <pt x="216" y="501" on="0"/>
        <pt x="261" y="561" on="0"/>
        <pt x="322" y="605" on="0"/>
        <pt x="360" y="617" on="1"/>
        <pt x="297" y="639" on="0"/>
        <pt x="236" y="744" on="0"/>
        <pt x="236" y="809" on="1"/>
        <pt x="236" y="865" on="0"/>
        <pt x="260" y="973" on="0"/>
        <pt x="288" y="1081" on="0"/>
        <pt x="312" y="1192" on="0"/>
        <pt x="312" y="1251" on="1"/>
        <pt x="312" y="1304" on="0"/>
        <pt x="269" y="1369" on="0"/>
        <pt x="222" y="1370" on="1"/>
        <pt x="214" y="1370" on="0"/>
        <pt x="195" y="1375" on="0"/>
        <pt x="179" y="1387" on="0"/>
        <pt x="168" y="1405" on="0"/>
        <pt x="168" y="1418" on="1"/>
        <pt x="168" y="1419" on="0"/>
        <pt x="172" y="1451" on="0"/>
        <pt x="176" y="1490" on="0"/>
        <pt x="180" y="1523" on="0"/>
        <pt x="180" y="1524" on="1"/>
        <pt x="184" y="1555" on="1"/>
        <pt x="232" y="1555" on="1"/>
        <pt x="320" y="1555" on="0"/>
        <pt x="448" y="1512" on="0"/>
        <pt x="531" y="1433" on="0"/>
        <pt x="570" y="1322" on="0"/>
        <pt x="570" y="1255" on="1"/>
        <pt x="570" y="1192" on="0"/>
        <pt x="544" y="1075" on="0"/>
        <pt x="514" y="965" on="0"/>
        <pt x="488" y="857" on="0"/>
        <pt x="488" y="803" on="1"/>
        <pt x="488" y="758" on="0"/>
        <pt x="523" y="701" on="0"/>
        <pt x="568" y="701" on="1"/>
        <pt x="548" y="534" on="1"/>
        <pt x="511" y="534" on="0"/>
        <pt x="465" y="503" on="0"/>
        <pt x="439" y="439" on="0"/>
        <pt x="430" y="343" on="0"/>
        <pt x="430" y="278" on="1"/>
      </contour>
    </TTGlyph>
    <TTGlyph name="bracketleft" xMin="-22" yMin="-320" xMax="628" yMax="1555">
      <contour>
        <pt x="-22" y="-320" on="1"/>
        <pt x="208" y="1555" on="1"/>
        <pt x="628" y="1555" on="1"/>
        <pt x="614" y="1441" on="1"/>
        <pt x="610" y="1412" on="0"/>
        <pt x="561" y="1370" on="0"/>
        <pt x="528" y="1370" on="1"/>
        <pt x="435" y="1370" on="1"/>
        <pt x="249" y="-134" on="1"/>
        <pt x="346" y="-134" on="1"/>
        <pt x="376" y="-134" on="0"/>
        <pt x="413" y="-171" on="0"/>
        <pt x="413" y="-198" on="1"/>
        <pt x="413" y="-199" on="0"/>
        <pt x="412" y="-205" on="0"/>
        <pt x="409" y="-228" on="0"/>
        <pt x="403" y="-277" on="0"/>
        <pt x="398" y="-320" on="1"/>
      </contour>
    </TTGlyph>
    <TTGlyph name="bracketright" xMin="-46" yMin="-320" xMax="606" yMax="1555">
      <contour>
        <pt x="-30" y="-207" on="1"/>
        <pt x="-25" y="-177" on="0"/>
        <pt x="21" y="-134" on="0"/>
        <pt x="54" y="-134" on="1"/>
        <pt x="149" y="-134" on="1"/>
        <pt x="335" y="1370" on="1"/>
        <pt x="238" y="1370" on="1"/>
        <pt x="207" y="1370" on="0"/>
        <pt x="169" y="1406" on="0"/>
        <pt x="169" y="1432" on="1"/>
        <pt x="169" y="1434" on="0"/>
        <pt x="170" y="1439" on="0"/>
        <pt x="170" y="1441" on="1"/>
        <pt x="186" y="1555" on="1"/>
        <pt x="606" y="1555" on="1"/>
        <pt x="374" y="-320" on="1"/>
        <pt x="-46" y="-320" on="1"/>
      </contour>
    </TTGlyph>
    <TTGlyph name="breve" xMin="116" yMin="1159" xMax="734" yMax="1455">
      <contour>
        <pt x="390" y="1159" on="1"/>
        <pt x="313" y="1159" on="0"/>
        <pt x="208" y="1196" on="0"/>
        <pt x="144" y="1260" on="0"/>
        <pt x="116" y="1348" on="0"/>
        <pt x="116" y="1398" on="1"/>
        <pt x="116" y="1412" on="0"/>
        <pt x="118" y="1441" on="0"/>
        <pt x="120" y="1455" on="1"/>
        <pt x="328" y="1455" on="1"/>
        <pt x="325" y="1434" on="0"/>
        <pt x="325" y="1417" on="1"/>
        <pt x="325" y="1379" on="0"/>
        <pt x="363" y="1341" on="0"/>
        <pt x="414" y="1341" on="1"/>
        <pt x="445" y="1341" on="0"/>
        <pt x="485" y="1356" on="0"/>
        <pt x="510" y="1384" on="0"/>
        <pt x="523" y="1427" on="0"/>
        <pt x="526" y="1455" on="1"/>
        <pt x="734" y="1455" on="1"/>
        <pt x="726" y="1395" on="0"/>
        <pt x="683" y="1287" on="0"/>
        <pt x="602" y="1206" on="0"/>
        <pt x="478" y="1159" on="0"/>
      </contour>
    </TTGlyph>
    <TTGlyph name="breve.case" xMin="145" yMin="1528" xMax="782" yMax="1778">
      <contour>
        <pt x="434" y="1528" on="1"/>
        <pt x="299" y="1528" on="0"/>
        <pt x="145" y="1630" on="0"/>
        <pt x="145" y="1737" on="1"/>
        <pt x="145" y="1757" on="0"/>
        <pt x="148" y="1778" on="1"/>
        <pt x="336" y="1778" on="1"/>
        <pt x="335" y="1773" on="0"/>
        <pt x="335" y="1765" on="1"/>
        <pt x="335" y="1728" on="0"/>
        <pt x="398" y="1699" on="0"/>
        <pt x="456" y="1699" on="1"/>
        <pt x="518" y="1699" on="0"/>
        <pt x="587" y="1733" on="0"/>
        <pt x="592" y="1778" on="1"/>
        <pt x="782" y="1778" on="1"/>
        <pt x="774" y="1721" on="0"/>
        <pt x="719" y="1629" on="0"/>
        <pt x="629" y="1564" on="0"/>
        <pt x="507" y="1528" on="0"/>
      </contour>
    </TTGlyph>
    <TTGlyph name="brokenbar" xMin="120" yMin="-329" xMax="360" yMax="1557">
      <contour>
        <pt x="120" y="1557" on="1"/>
        <pt x="360" y="1557" on="1"/>
        <pt x="360" y="738" on="1"/>
        <pt x="120" y="738" on="1"/>
      </contour>
      <contour>
        <pt x="120" y="490" on="1"/>
        <pt x="360" y="490" on="1"/>
        <pt x="360" y="-329" on="1"/>
        <pt x="120" y="-329" on="1"/>
      </contour>
    </TTGlyph>
    <TTGlyph name="bullet" xMin="100" yMin="111" xMax="1090" yMax="1076">
      <contour>
        <pt x="100" y="592" on="1"/>
        <pt x="100" y="692" on="0"/>
        <pt x="178" y="868" on="0"/>
        <pt x="312" y="1000" on="0"/>
        <pt x="492" y="1076" on="0"/>
        <pt x="594" y="1076" on="1"/>
        <pt x="697" y="1076" on="0"/>
        <pt x="877" y="1000" on="0"/>
        <pt x="1012" y="868" on="0"/>
        <pt x="1090" y="692" on="0"/>
        <pt x="1090" y="592" on="1"/>
        <pt x="1090" y="493" on="0"/>
        <pt x="1012" y="317" on="0"/>
        <pt x="877" y="187" on="0"/>
        <pt x="697" y="111" on="0"/>
        <pt x="594" y="111" on="1"/>
        <pt x="492" y="111" on="0"/>
        <pt x="312" y="187" on="0"/>
        <pt x="178" y="317" on="0"/>
        <pt x="100" y="493" on="0"/>
      </contour>
    </TTGlyph>
    <TTGlyph name="c" xMin="41" yMin="-16" xMax="911" yMax="1051">
      <contour>
        <pt x="855" y="182" on="1"/>
        <pt x="805" y="127" on="0"/>
        <pt x="713" y="51" on="0"/>
        <pt x="615" y="5" on="0"/>
        <pt x="504" y="-16" on="0"/>
        <pt x="437" y="-16" on="1"/>
        <pt x="346" y="-16" on="0"/>
        <pt x="200" y="46" on="0"/>
        <pt x="97" y="160" on="0"/>
        <pt x="41" y="322" on="0"/>
        <pt x="41" y="423" on="1"/>
        <pt x="41" y="550" on="0"/>
        <pt x="124" y="778" on="0"/>
        <pt x="273" y="950" on="0"/>
        <pt x="477" y="1051" on="0"/>
        <pt x="599" y="1051" on="1"/>
        <pt x="703" y="1051" on="0"/>
        <pt x="852" y="980" on="0"/>
        <pt x="911" y="904" on="1"/>
        <pt x="811" y="789" on="1"/>
        <pt x="800" y="778" on="0"/>
        <pt x="772" y="761" on="0"/>
        <pt x="755" y="761" on="1"/>
        <pt x="735" y="761" on="0"/>
        <pt x="708" y="778" on="0"/>
        <pt x="676" y="797" on="0"/>
        <pt x="630" y="814" on="0"/>
        <pt x="593" y="814" on="1"/>
        <pt x="547" y="814" on="0"/>
        <pt x="460" y="761" on="0"/>
        <pt x="392" y="661" on="0"/>
        <pt x="351" y="515" on="0"/>
        <pt x="351" y="422" on="1"/>
        <pt x="351" y="370" on="0"/>
        <pt x="375" y="293" on="0"/>
        <pt x="417" y="242" on="0"/>
        <pt x="473" y="216" on="0"/>
        <pt x="505" y="216" on="1"/>
        <pt x="553" y="216" on="0"/>
        <pt x="612" y="243" on="0"/>
        <pt x="656" y="275" on="0"/>
        <pt x="694" y="302" on="0"/>
        <pt x="721" y="302" on="1"/>
        <pt x="736" y="302" on="0"/>
        <pt x="765" y="288" on="0"/>
        <pt x="775" y="276" on="1"/>
        <pt x="855" y="182" on="1"/>
      </contour>
    </TTGlyph>
    <TTGlyph name="cacute" xMin="41" yMin="-16" xMax="983" yMax="1473">
      <component glyphName="c" x="0" y="0" flags="0x204"/>
      <component glyphName="acute" x="181" y="2" flags="0x4"/>
    </TTGlyph>
    <TTGlyph name="caron" xMin="68" yMin="1168" xMax="782" yMax="1455">
      <contour>
        <pt x="68" y="1455" on="1"/>
        <pt x="274" y="1455" on="1"/>
        <pt x="291" y="1455" on="0"/>
        <pt x="320" y="1444" on="0"/>
        <pt x="328" y="1436" on="1"/>
        <pt x="392" y="1358" on="1"/>
        <pt x="397" y="1353" on="0"/>
        <pt x="409" y="1338" on="0"/>
        <pt x="414" y="1330" on="1"/>
        <pt x="421" y="1338" on="0"/>
        <pt x="436" y="1352" on="0"/>
        <pt x="442" y="1358" on="1"/>
        <pt x="524" y="1436" on="1"/>
        <pt x="532" y="1444" on="0"/>
        <pt x="566" y="1455" on="0"/>
        <pt x="584" y="1455" on="1"/>
        <pt x="782" y="1455" on="1"/>
        <pt x="530" y="1168" on="1"/>
        <pt x="248" y="1168" on="1"/>
      </contour>
    </TTGlyph>
    <TTGlyph name="caron.case" xMin="88" yMin="1551" xMax="840" yMax="1776">
      <contour>
        <pt x="88" y="1776" on="1"/>
        <pt x="358" y="1776" on="1"/>
        <pt x="440" y="1709" on="1"/>
        <pt x="444" y="1706" on="0"/>
        <pt x="452" y="1700" on="0"/>
        <pt x="456" y="1696" on="1"/>
        <pt x="461" y="1700" on="0"/>
        <pt x="469" y="1706" on="0"/>
        <pt x="474" y="1709" on="1"/>
        <pt x="570" y="1776" on="1"/>
        <pt x="840" y="1776" on="1"/>
        <pt x="586" y="1551" on="1"/>
        <pt x="286" y="1551" on="1"/>
      </contour>
    </TTGlyph>
    <TTGlyph name="caron.salt" xMin="240" yMin="1139" xMax="590" yMax="1497">
      <contour>
        <pt x="548" y="1497" on="1"/>
        <pt x="575" y="1497" on="0"/>
        <pt x="590" y="1475" on="0"/>
        <pt x="590" y="1464" on="1"/>
        <pt x="590" y="1455" on="0"/>
        <pt x="584" y="1430" on="0"/>
        <pt x="557" y="1374" on="0"/>
        <pt x="503" y="1273" on="0"/>
        <pt x="454" y="1189" on="1"/>
        <pt x="434" y="1156" on="0"/>
        <pt x="384" y="1139" on="0"/>
        <pt x="346" y="1139" on="1"/>
        <pt x="240" y="1139" on="1"/>
        <pt x="346" y="1497" on="1"/>
      </contour>
    </TTGlyph>
    <TTGlyph name="ccedilla" xMin="41" yMin="-347" xMax="911" yMax="1051">
      <contour>
        <pt x="293" y="-214" on="1"/>
        <pt x="308" y="-214" on="0"/>
        <pt x="331" y="-224" on="0"/>
        <pt x="349" y="-224" on="1"/>
        <pt x="372" y="-224" on="0"/>
        <pt x="393" y="-200" on="0"/>
        <pt x="393" y="-186" on="1"/>
        <pt x="393" y="-166" on="0"/>
        <pt x="342" y="-145" on="0"/>
        <pt x="279" y="-136" on="1"/>
        <pt x="330" y="-4" on="1"/>
        <pt x="263" y="12" on="0"/>
        <pt x="156" y="86" on="0"/>
        <pt x="81" y="195" on="0"/>
        <pt x="41" y="338" on="0"/>
        <pt x="41" y="423" on="1"/>
        <pt x="41" y="550" on="0"/>
        <pt x="124" y="778" on="0"/>
        <pt x="273" y="950" on="0"/>
        <pt x="477" y="1051" on="0"/>
        <pt x="599" y="1051" on="1"/>
        <pt x="703" y="1051" on="0"/>
        <pt x="852" y="980" on="0"/>
        <pt x="911" y="904" on="1"/>
        <pt x="811" y="789" on="1"/>
        <pt x="800" y="778" on="0"/>
        <pt x="772" y="761" on="0"/>
        <pt x="755" y="761" on="1"/>
        <pt x="735" y="761" on="0"/>
        <pt x="708" y="778" on="0"/>
        <pt x="676" y="797" on="0"/>
        <pt x="630" y="814" on="0"/>
        <pt x="593" y="814" on="1"/>
        <pt x="547" y="814" on="0"/>
        <pt x="460" y="761" on="0"/>
        <pt x="392" y="661" on="0"/>
        <pt x="351" y="515" on="0"/>
        <pt x="351" y="422" on="1"/>
        <pt x="351" y="370" on="0"/>
        <pt x="375" y="293" on="0"/>
        <pt x="417" y="242" on="0"/>
        <pt x="473" y="216" on="0"/>
        <pt x="505" y="216" on="1"/>
        <pt x="553" y="216" on="0"/>
        <pt x="612" y="243" on="0"/>
        <pt x="656" y="275" on="0"/>
        <pt x="694" y="302" on="0"/>
        <pt x="721" y="302" on="1"/>
        <pt x="736" y="302" on="0"/>
        <pt x="765" y="288" on="0"/>
        <pt x="775" y="276" on="1"/>
        <pt x="855" y="182" on="1"/>
        <pt x="813" y="135" on="0"/>
        <pt x="734" y="66" on="0"/>
        <pt x="653" y="20" on="0"/>
        <pt x="565" y="-7" on="0"/>
        <pt x="514" y="-12" on="1"/>
        <pt x="501" y="-47" on="1"/>
        <pt x="572" y="-68" on="0"/>
        <pt x="627" y="-137" on="0"/>
        <pt x="627" y="-178" on="1"/>
        <pt x="627" y="-217" on="0"/>
        <pt x="586" y="-280" on="0"/>
        <pt x="514" y="-324" on="0"/>
        <pt x="414" y="-347" on="0"/>
        <pt x="355" y="-347" on="1"/>
        <pt x="317" y="-347" on="0"/>
        <pt x="254" y="-339" on="0"/>
        <pt x="219" y="-329" on="1"/>
        <pt x="259" y="-239" on="1"/>
        <pt x="264" y="-228" on="0"/>
        <pt x="279" y="-214" on="0"/>
      </contour>
    </TTGlyph>
    <TTGlyph name="cedilla" xMin="22" yMin="-347" xMax="430" yMax="17">
      <contour>
        <pt x="96" y="-214" on="1"/>
        <pt x="111" y="-214" on="0"/>
        <pt x="134" y="-224" on="0"/>
        <pt x="152" y="-224" on="1"/>
        <pt x="175" y="-224" on="0"/>
        <pt x="196" y="-200" on="0"/>
        <pt x="196" y="-186" on="1"/>
        <pt x="196" y="-166" on="0"/>
        <pt x="145" y="-145" on="0"/>
        <pt x="82" y="-136" on="1"/>
        <pt x="142" y="17" on="1"/>
        <pt x="328" y="17" on="1"/>
        <pt x="304" y="-47" on="1"/>
        <pt x="375" y="-68" on="0"/>
        <pt x="430" y="-137" on="0"/>
        <pt x="430" y="-178" on="1"/>
        <pt x="430" y="-217" on="0"/>
        <pt x="389" y="-280" on="0"/>
        <pt x="317" y="-324" on="0"/>
        <pt x="217" y="-347" on="0"/>
        <pt x="158" y="-347" on="1"/>
        <pt x="120" y="-347" on="0"/>
        <pt x="57" y="-339" on="0"/>
        <pt x="22" y="-329" on="1"/>
        <pt x="62" y="-239" on="1"/>
        <pt x="67" y="-228" on="0"/>
        <pt x="82" y="-214" on="0"/>
      </contour>
    </TTGlyph>
    <TTGlyph name="cent" xMin="110" yMin="-213" xMax="1114" yMax="1263">
      <contour>
        <pt x="461" y="-7" on="1"/>
        <pt x="384" y="8" on="0"/>
        <pt x="256" y="83" on="0"/>
        <pt x="162" y="198" on="0"/>
        <pt x="110" y="352" on="0"/>
        <pt x="110" y="446" on="1"/>
        <pt x="110" y="569" on="0"/>
        <pt x="189" y="783" on="0"/>
        <pt x="339" y="944" on="0"/>
        <pt x="556" y="1042" on="0"/>
        <pt x="694" y="1048" on="1"/>
        <pt x="726" y="1192" on="1"/>
        <pt x="729" y="1205" on="0"/>
        <pt x="745" y="1230" on="0"/>
        <pt x="768" y="1250" on="0"/>
        <pt x="797" y="1263" on="0"/>
        <pt x="814" y="1263" on="1"/>
        <pt x="924" y="1263" on="1"/>
        <pt x="873" y="1034" on="1"/>
        <pt x="948" y="1018" on="0"/>
        <pt x="1066" y="951" on="0"/>
        <pt x="1114" y="900" on="1"/>
        <pt x="1024" y="798" on="1"/>
        <pt x="1010" y="781" on="0"/>
        <pt x="983" y="766" on="0"/>
        <pt x="960" y="766" on="1"/>
        <pt x="945" y="766" on="0"/>
        <pt x="918" y="776" on="0"/>
        <pt x="886" y="792" on="0"/>
        <pt x="849" y="809" on="0"/>
        <pt x="825" y="817" on="1"/>
        <pt x="690" y="204" on="1"/>
        <pt x="736" y="210" on="0"/>
        <pt x="800" y="236" on="0"/>
        <pt x="849" y="263" on="0"/>
        <pt x="889" y="284" on="0"/>
        <pt x="912" y="284" on="1"/>
        <pt x="950" y="284" on="0"/>
        <pt x="964" y="261" on="1"/>
        <pt x="1034" y="158" on="1"/>
        <pt x="990" y="115" on="0"/>
        <pt x="894" y="54" on="0"/>
        <pt x="794" y="14" on="0"/>
        <pt x="692" y="-8" on="0"/>
        <pt x="642" y="-12" on="1"/>
        <pt x="614" y="-141" on="1"/>
        <pt x="608" y="-169" on="0"/>
        <pt x="559" y="-213" on="0"/>
        <pt x="526" y="-213" on="1"/>
        <pt x="416" y="-213" on="1"/>
      </contour>
      <contour>
        <pt x="404" y="460" on="1"/>
        <pt x="404" y="375" on="0"/>
        <pt x="459" y="257" on="0"/>
        <pt x="513" y="228" on="1"/>
        <pt x="645" y="827" on="1"/>
        <pt x="582" y="816" on="0"/>
        <pt x="490" y="756" on="0"/>
        <pt x="432" y="661" on="0"/>
        <pt x="404" y="535" on="0"/>
      </contour>
    </TTGlyph>
    <TTGlyph name="circumflex" xMin="32" yMin="1168" xMax="746" yMax="1455">
      <contour>
        <pt x="746" y="1168" on="1"/>
        <pt x="548" y="1168" on="1"/>
        <pt x="531" y="1168" on="0"/>
        <pt x="500" y="1180" on="0"/>
        <pt x="494" y="1188" on="1"/>
        <pt x="430" y="1263" on="1"/>
        <pt x="425" y="1268" on="0"/>
        <pt x="414" y="1279" on="0"/>
        <pt x="409" y="1286" on="1"/>
        <pt x="401" y="1279" on="0"/>
        <pt x="388" y="1268" on="0"/>
        <pt x="382" y="1263" on="1"/>
        <pt x="298" y="1188" on="1"/>
        <pt x="289" y="1180" on="0"/>
        <pt x="256" y="1168" on="0"/>
        <pt x="238" y="1168" on="1"/>
        <pt x="32" y="1168" on="1"/>
        <pt x="284" y="1455" on="1"/>
        <pt x="566" y="1455" on="1"/>
      </contour>
    </TTGlyph>
    <TTGlyph name="circumflex.case" xMin="58" yMin="1551" xMax="808" yMax="1776">
      <contour>
        <pt x="808" y="1551" on="1"/>
        <pt x="582" y="1551" on="1"/>
        <pt x="565" y="1551" on="0"/>
        <pt x="525" y="1559" on="0"/>
        <pt x="514" y="1569" on="1"/>
        <pt x="442" y="1632" on="1"/>
        <pt x="354" y="1569" on="1"/>
        <pt x="341" y="1560" on="0"/>
        <pt x="300" y="1551" on="0"/>
        <pt x="282" y="1551" on="1"/>
        <pt x="58" y="1551" on="1"/>
        <pt x="310" y="1776" on="1"/>
        <pt x="610" y="1776" on="1"/>
      </contour>
    </TTGlyph>
    <TTGlyph name="colon" xMin="24" yMin="-14" xMax="472" yMax="1011">
      <contour>
        <pt x="24" y="157" on="1"/>
        <pt x="24" y="193" on="0"/>
        <pt x="51" y="255" on="0"/>
        <pt x="98" y="301" on="0"/>
        <pt x="162" y="328" on="0"/>
        <pt x="200" y="328" on="1"/>
        <pt x="237" y="328" on="0"/>
        <pt x="301" y="301" on="0"/>
        <pt x="349" y="255" on="0"/>
        <pt x="376" y="193" on="0"/>
        <pt x="376" y="157" on="1"/>
        <pt x="376" y="121" on="0"/>
        <pt x="349" y="58" on="0"/>
        <pt x="301" y="12" on="0"/>
        <pt x="237" y="-14" on="0"/>
        <pt x="200" y="-14" on="1"/>
        <pt x="162" y="-14" on="0"/>
        <pt x="98" y="12" on="0"/>
        <pt x="51" y="58" on="0"/>
        <pt x="24" y="121" on="0"/>
      </contour>
      <contour>
        <pt x="120" y="840" on="1"/>
        <pt x="120" y="876" on="0"/>
        <pt x="147" y="938" on="0"/>
        <pt x="194" y="984" on="0"/>
        <pt x="258" y="1011" on="0"/>
        <pt x="296" y="1011" on="1"/>
        <pt x="333" y="1011" on="0"/>
        <pt x="397" y="984" on="0"/>
        <pt x="445" y="938" on="0"/>
        <pt x="472" y="876" on="0"/>
        <pt x="472" y="840" on="1"/>
        <pt x="472" y="804" on="0"/>
        <pt x="445" y="741" on="0"/>
        <pt x="397" y="695" on="0"/>
        <pt x="333" y="669" on="0"/>
        <pt x="296" y="669" on="1"/>
        <pt x="258" y="669" on="0"/>
        <pt x="194" y="695" on="0"/>
        <pt x="147" y="741" on="0"/>
        <pt x="120" y="804" on="0"/>
      </contour>
    </TTGlyph>
    <TTGlyph name="comma" xMin="30" yMin="-295" xMax="374" yMax="328">
      <contour>
        <pt x="30" y="176" on="1"/>
        <pt x="30" y="208" on="0"/>
        <pt x="54" y="263" on="0"/>
        <pt x="99" y="304" on="0"/>
        <pt x="160" y="328" on="0"/>
        <pt x="198" y="328" on="1"/>
        <pt x="243" y="328" on="0"/>
        <pt x="309" y="297" on="0"/>
        <pt x="353" y="244" on="0"/>
        <pt x="374" y="175" on="0"/>
        <pt x="374" y="137" on="1"/>
        <pt x="374" y="87" on="0"/>
        <pt x="342" y="-26" on="0"/>
        <pt x="279" y="-140" on="0"/>
        <pt x="185" y="-250" on="0"/>
        <pt x="124" y="-295" on="1"/>
        <pt x="70" y="-247" on="1"/>
        <pt x="59" y="-236" on="0"/>
        <pt x="48" y="-218" on="0"/>
        <pt x="48" y="-205" on="1"/>
        <pt x="48" y="-189" on="0"/>
        <pt x="83" y="-149" on="0"/>
        <pt x="128" y="-98" on="0"/>
        <pt x="172" y="-35" on="0"/>
        <pt x="182" y="5" on="1"/>
        <pt x="148" y="8" on="0"/>
        <pt x="92" y="36" on="0"/>
        <pt x="52" y="81" on="0"/>
        <pt x="30" y="141" on="0"/>
      </contour>
    </TTGlyph>
    <TTGlyph name="copyright" xMin="70" yMin="-14" xMax="1560" yMax="1473">
      <contour>
        <pt x="1014" y="542" on="1"/>
        <pt x="1026" y="542" on="0"/>
        <pt x="1048" y="530" on="0"/>
        <pt x="1056" y="521" on="1"/>
        <pt x="1158" y="416" on="1"/>
        <pt x="1104" y="341" on="0"/>
        <pt x="929" y="264" on="0"/>
        <pt x="814" y="264" on="1"/>
        <pt x="713" y="264" on="0"/>
        <pt x="550" y="337" on="0"/>
        <pt x="436" y="464" on="0"/>
        <pt x="374" y="634" on="0"/>
        <pt x="374" y="732" on="1"/>
        <pt x="374" y="834" on="0"/>
        <pt x="446" y="1005" on="0"/>
        <pt x="571" y="1130" on="0"/>
        <pt x="739" y="1199" on="0"/>
        <pt x="836" y="1199" on="1"/>
        <pt x="951" y="1199" on="0"/>
        <pt x="1117" y="1119" on="0"/>
        <pt x="1168" y="1059" on="1"/>
        <pt x="1086" y="950" on="1"/>
        <pt x="1079" y="941" on="0"/>
        <pt x="1054" y="921" on="0"/>
        <pt x="1034" y="921" on="1"/>
        <pt x="1014" y="921" on="0"/>
        <pt x="985" y="939" on="0"/>
        <pt x="949" y="961" on="0"/>
        <pt x="896" y="979" on="0"/>
        <pt x="852" y="979" on="1"/>
        <pt x="751" y="979" on="0"/>
        <pt x="648" y="846" on="0"/>
        <pt x="648" y="732" on="1"/>
        <pt x="648" y="672" on="0"/>
        <pt x="675" y="580" on="0"/>
        <pt x="723" y="518" on="0"/>
        <pt x="790" y="486" on="0"/>
        <pt x="830" y="486" on="1"/>
        <pt x="877" y="486" on="0"/>
        <pt x="932" y="503" on="0"/>
        <pt x="968" y="523" on="0"/>
        <pt x="994" y="541" on="0"/>
      </contour>
      <contour>
        <pt x="70" y="729" on="1"/>
        <pt x="70" y="832" on="0"/>
        <pt x="123" y="1022" on="0"/>
        <pt x="220" y="1187" on="0"/>
        <pt x="356" y="1323" on="0"/>
        <pt x="522" y="1420" on="0"/>
        <pt x="711" y="1473" on="0"/>
        <pt x="814" y="1473" on="1"/>
        <pt x="917" y="1473" on="0"/>
        <pt x="1108" y="1420" on="0"/>
        <pt x="1273" y="1323" on="0"/>
        <pt x="1410" y="1187" on="0"/>
        <pt x="1507" y="1022" on="0"/>
        <pt x="1560" y="832" on="0"/>
        <pt x="1560" y="729" on="1"/>
        <pt x="1560" y="627" on="0"/>
        <pt x="1507" y="437" on="0"/>
        <pt x="1410" y="272" on="0"/>
        <pt x="1273" y="136" on="0"/>
        <pt x="1108" y="39" on="0"/>
        <pt x="917" y="-14" on="0"/>
        <pt x="814" y="-14" on="1"/>
        <pt x="711" y="-14" on="0"/>
        <pt x="522" y="39" on="0"/>
        <pt x="356" y="136" on="0"/>
        <pt x="220" y="272" on="0"/>
        <pt x="123" y="437" on="0"/>
        <pt x="70" y="626" on="0"/>
      </contour>
      <contour>
        <pt x="236" y="729" on="1"/>
        <pt x="236" y="602" on="0"/>
        <pt x="325" y="382" on="0"/>
        <pt x="481" y="219" on="0"/>
        <pt x="692" y="126" on="0"/>
        <pt x="814" y="126" on="1"/>
        <pt x="937" y="126" on="0"/>
        <pt x="1150" y="219" on="0"/>
        <pt x="1308" y="382" on="0"/>
        <pt x="1398" y="602" on="0"/>
        <pt x="1398" y="729" on="1"/>
        <pt x="1398" y="814" on="0"/>
        <pt x="1357" y="970" on="0"/>
        <pt x="1282" y="1105" on="0"/>
        <pt x="1176" y="1216" on="0"/>
        <pt x="1046" y="1294" on="0"/>
        <pt x="896" y="1337" on="0"/>
        <pt x="814" y="1337" on="1"/>
        <pt x="692" y="1337" on="0"/>
        <pt x="481" y="1243" on="0"/>
        <pt x="325" y="1078" on="0"/>
        <pt x="236" y="856" on="0"/>
      </contour>
    </TTGlyph>
    <TTGlyph name="currency" xMin="128" yMin="188" xMax="1108" yMax="1160">
      <contour>
        <pt x="238" y="674" on="1"/>
        <pt x="238" y="723" on="0"/>
        <pt x="261" y="813" on="0"/>
        <pt x="282" y="853" on="1"/>
        <pt x="128" y="1006" on="1"/>
        <pt x="284" y="1154" on="1"/>
        <pt x="434" y="1006" on="1"/>
        <pt x="475" y="1028" on="0"/>
        <pt x="567" y="1052" on="0"/>
        <pt x="618" y="1052" on="1"/>
        <pt x="666" y="1052" on="0"/>
        <pt x="755" y="1029" on="0"/>
        <pt x="795" y="1008" on="1"/>
        <pt x="948" y="1160" on="1"/>
        <pt x="1102" y="1010" on="1"/>
        <pt x="949" y="859" on="1"/>
        <pt x="972" y="818" on="0"/>
        <pt x="998" y="725" on="0"/>
        <pt x="998" y="674" on="1"/>
        <pt x="998" y="625" on="0"/>
        <pt x="975" y="535" on="0"/>
        <pt x="953" y="495" on="1"/>
        <pt x="1108" y="343" on="1"/>
        <pt x="952" y="194" on="1"/>
        <pt x="801" y="342" on="1"/>
        <pt x="760" y="320" on="0"/>
        <pt x="668" y="296" on="0"/>
        <pt x="618" y="296" on="1"/>
        <pt x="570" y="296" on="0"/>
        <pt x="481" y="318" on="0"/>
        <pt x="441" y="338" on="1"/>
        <pt x="288" y="188" on="1"/>
        <pt x="134" y="338" on="1"/>
        <pt x="286" y="488" on="1"/>
        <pt x="263" y="529" on="0"/>
        <pt x="238" y="623" on="0"/>
      </contour>
      <contour>
        <pt x="466" y="674" on="1"/>
        <pt x="466" y="642" on="0"/>
        <pt x="490" y="584" on="0"/>
        <pt x="531" y="540" on="0"/>
        <pt x="586" y="515" on="0"/>
        <pt x="618" y="515" on="1"/>
        <pt x="650" y="515" on="0"/>
        <pt x="706" y="540" on="0"/>
        <pt x="748" y="584" on="0"/>
        <pt x="772" y="642" on="0"/>
        <pt x="772" y="674" on="1"/>
        <pt x="772" y="708" on="0"/>
        <pt x="748" y="766" on="0"/>
        <pt x="706" y="810" on="0"/>
        <pt x="650" y="835" on="0"/>
        <pt x="618" y="835" on="1"/>
        <pt x="586" y="835" on="0"/>
        <pt x="531" y="810" on="0"/>
        <pt x="490" y="766" on="0"/>
        <pt x="466" y="708" on="0"/>
      </contour>
    </TTGlyph>
    <TTGlyph name="d" xMin="35" yMin="-16" xMax="1117" yMax="1497">
      <contour>
        <pt x="765" y="0" on="1"/>
        <pt x="736" y="0" on="0"/>
        <pt x="697" y="15" on="0"/>
        <pt x="674" y="41" on="0"/>
        <pt x="665" y="77" on="0"/>
        <pt x="665" y="98" on="1"/>
        <pt x="665" y="185" on="1"/>
        <pt x="594" y="91" on="0"/>
        <pt x="422" y="-16" on="0"/>
        <pt x="325" y="-16" on="1"/>
        <pt x="261" y="-16" on="0"/>
        <pt x="155" y="29" on="0"/>
        <pt x="78" y="125" on="0"/>
        <pt x="35" y="274" on="0"/>
        <pt x="35" y="378" on="1"/>
        <pt x="35" y="468" on="0"/>
        <pt x="73" y="639" on="0"/>
        <pt x="141" y="789" on="0"/>
        <pt x="235" y="914" on="0"/>
        <pt x="348" y="1003" on="0"/>
        <pt x="474" y="1053" on="0"/>
        <pt x="541" y="1053" on="1"/>
        <pt x="605" y="1053" on="0"/>
        <pt x="708" y="1010" on="0"/>
        <pt x="747" y="975" on="1"/>
        <pt x="813" y="1497" on="1"/>
        <pt x="1117" y="1497" on="1"/>
        <pt x="931" y="0" on="1"/>
      </contour>
      <contour>
        <pt x="449" y="220" on="1"/>
        <pt x="481" y="220" on="0"/>
        <pt x="550" y="268" on="0"/>
        <pt x="615" y="352" on="0"/>
        <pt x="671" y="465" on="0"/>
        <pt x="691" y="530" on="1"/>
        <pt x="723" y="782" on="1"/>
        <pt x="694" y="805" on="0"/>
        <pt x="623" y="825" on="0"/>
        <pt x="591" y="825" on="1"/>
        <pt x="537" y="825" on="0"/>
        <pt x="446" y="753" on="0"/>
        <pt x="380" y="636" on="0"/>
        <pt x="343" y="486" on="0"/>
        <pt x="343" y="408" on="1"/>
        <pt x="343" y="309" on="0"/>
        <pt x="401" y="220" on="0"/>
      </contour>
    </TTGlyph>
    <TTGlyph name="dagger" xMin="86" yMin="-353" xMax="1091" yMax="1512">
      <contour>
        <pt x="98" y="947" on="1"/>
        <pt x="101" y="971" on="0"/>
        <pt x="123" y="1015" on="0"/>
        <pt x="161" y="1049" on="0"/>
        <pt x="216" y="1070" on="0"/>
        <pt x="252" y="1070" on="1"/>
        <pt x="277" y="1070" on="0"/>
        <pt x="334" y="1060" on="0"/>
        <pt x="394" y="1046" on="0"/>
        <pt x="457" y="1030" on="0"/>
        <pt x="488" y="1024" on="1"/>
        <pt x="506" y="1475" on="1"/>
        <pt x="539" y="1492" on="0"/>
        <pt x="620" y="1512" on="0"/>
        <pt x="664" y="1512" on="1"/>
        <pt x="708" y="1512" on="0"/>
        <pt x="783" y="1492" on="0"/>
        <pt x="812" y="1475" on="1"/>
        <pt x="720" y="1024" on="1"/>
        <pt x="753" y="1030" on="0"/>
        <pt x="819" y="1046" on="0"/>
        <pt x="883" y="1060" on="0"/>
        <pt x="942" y="1070" on="0"/>
        <pt x="968" y="1070" on="1"/>
        <pt x="1001" y="1070" on="0"/>
        <pt x="1047" y="1053" on="0"/>
        <pt x="1077" y="1023" on="0"/>
        <pt x="1091" y="985" on="0"/>
        <pt x="1091" y="964" on="1"/>
        <pt x="1091" y="959" on="0"/>
        <pt x="1091" y="952" on="0"/>
        <pt x="1090" y="947" on="1"/>
        <pt x="1078" y="851" on="1"/>
        <pt x="698" y="851" on="1"/>
        <pt x="656" y="499" on="1"/>
        <pt x="594" y="-316" on="1"/>
        <pt x="559" y="-335" on="0"/>
        <pt x="478" y="-353" on="0"/>
        <pt x="434" y="-353" on="1"/>
        <pt x="390" y="-353" on="0"/>
        <pt x="315" y="-335" on="0"/>
        <pt x="286" y="-316" on="1"/>
        <pt x="424" y="499" on="1"/>
        <pt x="466" y="851" on="1"/>
        <pt x="86" y="851" on="1"/>
      </contour>
    </TTGlyph>
    <TTGlyph name="daggerdbl" xMin="7" yMin="-353" xMax="1091" yMax="1512">
      <contour>
        <pt x="20" y="308" on="1"/>
        <pt x="400" y="308" on="1"/>
        <pt x="467" y="851" on="1"/>
        <pt x="86" y="851" on="1"/>
        <pt x="98" y="947" on="1"/>
        <pt x="101" y="971" on="0"/>
        <pt x="123" y="1015" on="0"/>
        <pt x="161" y="1049" on="0"/>
        <pt x="216" y="1070" on="0"/>
        <pt x="252" y="1070" on="1"/>
        <pt x="277" y="1070" on="0"/>
        <pt x="334" y="1060" on="0"/>
        <pt x="394" y="1046" on="0"/>
        <pt x="457" y="1030" on="0"/>
        <pt x="488" y="1024" on="1"/>
        <pt x="506" y="1475" on="1"/>
        <pt x="539" y="1492" on="0"/>
        <pt x="620" y="1512" on="0"/>
        <pt x="664" y="1512" on="1"/>
        <pt x="708" y="1512" on="0"/>
        <pt x="783" y="1492" on="0"/>
        <pt x="812" y="1475" on="1"/>
        <pt x="720" y="1024" on="1"/>
        <pt x="753" y="1030" on="0"/>
        <pt x="819" y="1046" on="0"/>
        <pt x="883" y="1060" on="0"/>
        <pt x="942" y="1070" on="0"/>
        <pt x="968" y="1070" on="1"/>
        <pt x="1001" y="1070" on="0"/>
        <pt x="1047" y="1053" on="0"/>
        <pt x="1077" y="1023" on="0"/>
        <pt x="1091" y="985" on="0"/>
        <pt x="1091" y="964" on="1"/>
        <pt x="1091" y="959" on="0"/>
        <pt x="1091" y="952" on="0"/>
        <pt x="1090" y="947" on="1"/>
        <pt x="1078" y="851" on="1"/>
        <pt x="697" y="851" on="1"/>
        <pt x="630" y="308" on="1"/>
        <pt x="1012" y="308" on="1"/>
        <pt x="1000" y="212" on="1"/>
        <pt x="997" y="188" on="0"/>
        <pt x="975" y="142" on="0"/>
        <pt x="937" y="108" on="0"/>
        <pt x="882" y="87" on="0"/>
        <pt x="846" y="87" on="1"/>
        <pt x="820" y="87" on="0"/>
        <pt x="764" y="97" on="0"/>
        <pt x="703" y="111" on="0"/>
        <pt x="640" y="127" on="0"/>
        <pt x="609" y="133" on="1"/>
        <pt x="594" y="-316" on="1"/>
        <pt x="559" y="-335" on="0"/>
        <pt x="478" y="-353" on="0"/>
        <pt x="434" y="-353" on="1"/>
        <pt x="390" y="-353" on="0"/>
        <pt x="315" y="-335" on="0"/>
        <pt x="286" y="-316" on="1"/>
        <pt x="377" y="133" on="1"/>
        <pt x="344" y="127" on="0"/>
        <pt x="278" y="111" on="0"/>
        <pt x="215" y="97" on="0"/>
        <pt x="156" y="87" on="0"/>
        <pt x="130" y="87" on="1"/>
        <pt x="65" y="87" on="0"/>
        <pt x="7" y="150" on="0"/>
        <pt x="7" y="194" on="1"/>
        <pt x="7" y="199" on="0"/>
        <pt x="7" y="207" on="0"/>
        <pt x="8" y="212" on="1"/>
      </contour>
    </TTGlyph>
    <TTGlyph name="degree" xMin="112" yMin="765" xMax="842" yMax="1475">
      <contour>
        <pt x="112" y="1119" on="1"/>
        <pt x="112" y="1193" on="0"/>
        <pt x="168" y="1323" on="0"/>
        <pt x="266" y="1419" on="0"/>
        <pt x="399" y="1475" on="0"/>
        <pt x="476" y="1475" on="1"/>
        <pt x="553" y="1475" on="0"/>
        <pt x="687" y="1419" on="0"/>
        <pt x="786" y="1323" on="0"/>
        <pt x="842" y="1193" on="0"/>
        <pt x="842" y="1119" on="1"/>
        <pt x="842" y="1047" on="0"/>
        <pt x="786" y="918" on="0"/>
        <pt x="687" y="822" on="0"/>
        <pt x="553" y="765" on="0"/>
        <pt x="476" y="765" on="1"/>
        <pt x="399" y="765" on="0"/>
        <pt x="266" y="822" on="0"/>
        <pt x="168" y="918" on="0"/>
        <pt x="112" y="1047" on="0"/>
      </contour>
      <contour>
        <pt x="326" y="1117" on="1"/>
        <pt x="326" y="1084" on="0"/>
        <pt x="348" y="1027" on="0"/>
        <pt x="388" y="984" on="0"/>
        <pt x="443" y="960" on="0"/>
        <pt x="476" y="960" on="1"/>
        <pt x="509" y="960" on="0"/>
        <pt x="564" y="984" on="0"/>
        <pt x="604" y="1027" on="0"/>
        <pt x="626" y="1084" on="0"/>
        <pt x="626" y="1117" on="1"/>
        <pt x="626" y="1151" on="0"/>
        <pt x="604" y="1210" on="0"/>
        <pt x="564" y="1253" on="0"/>
        <pt x="509" y="1278" on="0"/>
        <pt x="476" y="1278" on="1"/>
        <pt x="443" y="1278" on="0"/>
        <pt x="388" y="1253" on="0"/>
        <pt x="348" y="1210" on="0"/>
        <pt x="326" y="1151" on="0"/>
      </contour>
    </TTGlyph>
    <TTGlyph name="dieresis" xMin="54" yMin="1164" xMax="762" yMax="1476">
      <contour>
        <pt x="376" y="1317" on="1"/>
        <pt x="376" y="1285" on="0"/>
        <pt x="350" y="1229" on="0"/>
        <pt x="305" y="1188" on="0"/>
        <pt x="246" y="1164" on="0"/>
        <pt x="212" y="1164" on="1"/>
        <pt x="180" y="1164" on="0"/>
        <pt x="123" y="1188" on="0"/>
        <pt x="80" y="1229" on="0"/>
        <pt x="54" y="1285" on="0"/>
        <pt x="54" y="1317" on="1"/>
        <pt x="54" y="1350" on="0"/>
        <pt x="80" y="1408" on="0"/>
        <pt x="123" y="1451" on="0"/>
        <pt x="180" y="1476" on="0"/>
        <pt x="212" y="1476" on="1"/>
        <pt x="246" y="1476" on="0"/>
        <pt x="305" y="1451" on="0"/>
        <pt x="350" y="1408" on="0"/>
        <pt x="376" y="1350" on="0"/>
      </contour>
      <contour>
        <pt x="762" y="1317" on="1"/>
        <pt x="762" y="1285" on="0"/>
        <pt x="737" y="1229" on="0"/>
        <pt x="693" y="1188" on="0"/>
        <pt x="634" y="1164" on="0"/>
        <pt x="600" y="1164" on="1"/>
        <pt x="567" y="1164" on="0"/>
        <pt x="509" y="1188" on="0"/>
        <pt x="465" y="1229" on="0"/>
        <pt x="440" y="1285" on="0"/>
        <pt x="440" y="1317" on="1"/>
        <pt x="440" y="1350" on="0"/>
        <pt x="465" y="1408" on="0"/>
        <pt x="509" y="1451" on="0"/>
        <pt x="567" y="1476" on="0"/>
        <pt x="600" y="1476" on="1"/>
        <pt x="634" y="1476" on="0"/>
        <pt x="693" y="1451" on="0"/>
        <pt x="737" y="1408" on="0"/>
        <pt x="762" y="1350" on="0"/>
      </contour>
    </TTGlyph>
    <TTGlyph name="dieresis.case" xMin="102" yMin="1534" xMax="738" yMax="1804">
      <contour>
        <pt x="380" y="1666" on="1"/>
        <pt x="380" y="1638" on="0"/>
        <pt x="358" y="1590" on="0"/>
        <pt x="319" y="1554" on="0"/>
        <pt x="267" y="1534" on="0"/>
        <pt x="238" y="1534" on="1"/>
        <pt x="211" y="1534" on="0"/>
        <pt x="162" y="1554" on="0"/>
        <pt x="124" y="1590" on="0"/>
        <pt x="102" y="1638" on="0"/>
        <pt x="102" y="1666" on="1"/>
        <pt x="102" y="1694" on="0"/>
        <pt x="124" y="1745" on="0"/>
        <pt x="162" y="1782" on="0"/>
        <pt x="211" y="1804" on="0"/>
        <pt x="238" y="1804" on="1"/>
        <pt x="267" y="1804" on="0"/>
        <pt x="319" y="1782" on="0"/>
        <pt x="358" y="1745" on="0"/>
        <pt x="380" y="1694" on="0"/>
      </contour>
      <contour>
        <pt x="738" y="1666" on="1"/>
        <pt x="738" y="1638" on="0"/>
        <pt x="716" y="1590" on="0"/>
        <pt x="678" y="1554" on="0"/>
        <pt x="627" y="1534" on="0"/>
        <pt x="598" y="1534" on="1"/>
        <pt x="569" y="1534" on="0"/>
        <pt x="519" y="1554" on="0"/>
        <pt x="482" y="1590" on="0"/>
        <pt x="460" y="1638" on="0"/>
        <pt x="460" y="1666" on="1"/>
        <pt x="460" y="1694" on="0"/>
        <pt x="482" y="1745" on="0"/>
        <pt x="519" y="1782" on="0"/>
        <pt x="569" y="1804" on="0"/>
        <pt x="598" y="1804" on="1"/>
        <pt x="627" y="1804" on="0"/>
        <pt x="678" y="1782" on="0"/>
        <pt x="716" y="1745" on="0"/>
        <pt x="738" y="1694" on="0"/>
      </contour>
    </TTGlyph>
    <TTGlyph name="divide" xMin="94" yMin="149" xMax="1110" yMax="1195">
      <contour>
        <pt x="122" y="779" on="1"/>
        <pt x="1110" y="779" on="1"/>
        <pt x="1082" y="565" on="1"/>
        <pt x="94" y="565" on="1"/>
      </contour>
      <contour>
        <pt x="472" y="1008" on="1"/>
        <pt x="472" y="1047" on="0"/>
        <pt x="503" y="1115" on="0"/>
        <pt x="556" y="1166" on="0"/>
        <pt x="626" y="1195" on="0"/>
        <pt x="666" y="1195" on="1"/>
        <pt x="699" y="1195" on="0"/>
        <pt x="755" y="1172" on="0"/>
        <pt x="795" y="1131" on="0"/>
        <pt x="818" y="1076" on="0"/>
        <pt x="818" y="1045" on="1"/>
        <pt x="818" y="1006" on="0"/>
        <pt x="786" y="938" on="0"/>
        <pt x="732" y="889" on="0"/>
        <pt x="662" y="861" on="0"/>
        <pt x="624" y="861" on="1"/>
        <pt x="590" y="861" on="0"/>
        <pt x="534" y="884" on="0"/>
        <pt x="494" y="923" on="0"/>
        <pt x="472" y="977" on="0"/>
      </contour>
      <contour>
        <pt x="384" y="296" on="1"/>
        <pt x="384" y="335" on="0"/>
        <pt x="415" y="403" on="0"/>
        <pt x="468" y="454" on="0"/>
        <pt x="538" y="483" on="0"/>
        <pt x="578" y="483" on="1"/>
        <pt x="611" y="483" on="0"/>
        <pt x="667" y="460" on="0"/>
        <pt x="707" y="419" on="0"/>
        <pt x="730" y="364" on="0"/>
        <pt x="730" y="333" on="1"/>
        <pt x="730" y="294" on="0"/>
        <pt x="698" y="226" on="0"/>
        <pt x="644" y="177" on="0"/>
        <pt x="574" y="149" on="0"/>
        <pt x="536" y="149" on="1"/>
        <pt x="502" y="149" on="0"/>
        <pt x="446" y="172" on="0"/>
        <pt x="406" y="211" on="0"/>
        <pt x="384" y="265" on="0"/>
      </contour>
    </TTGlyph>
    <TTGlyph name="dollar" xMin="2" yMin="-213" xMax="1174" yMax="1652">
      <contour>
        <pt x="375" y="-6" on="1"/>
        <pt x="319" y="3" on="0"/>
        <pt x="212" y="37" on="0"/>
        <pt x="116" y="84" on="0"/>
        <pt x="33" y="142" on="0"/>
        <pt x="2" y="176" on="1"/>
        <pt x="112" y="309" on="1"/>
        <pt x="126" y="326" on="0"/>
        <pt x="167" y="348" on="0"/>
        <pt x="190" y="348" on="1"/>
        <pt x="214" y="348" on="0"/>
        <pt x="260" y="322" on="0"/>
        <pt x="315" y="285" on="0"/>
        <pt x="383" y="247" on="0"/>
        <pt x="428" y="235" on="1"/>
        <pt x="513" y="627" on="1"/>
        <pt x="449" y="645" on="0"/>
        <pt x="324" y="695" on="0"/>
        <pt x="224" y="775" on="0"/>
        <pt x="162" y="896" on="0"/>
        <pt x="162" y="986" on="1"/>
        <pt x="162" y="1076" on="0"/>
        <pt x="236" y="1245" on="0"/>
        <pt x="375" y="1378" on="0"/>
        <pt x="573" y="1462" on="0"/>
        <pt x="697" y="1468" on="1"/>
        <pt x="722" y="1581" on="1"/>
        <pt x="728" y="1609" on="0"/>
        <pt x="777" y="1652" on="0"/>
        <pt x="810" y="1652" on="1"/>
        <pt x="920" y="1652" on="1"/>
        <pt x="877" y="1456" on="1"/>
        <pt x="983" y="1436" on="0"/>
        <pt x="1126" y="1349" on="0"/>
        <pt x="1174" y="1297" on="1"/>
        <pt x="1088" y="1190" on="1"/>
        <pt x="1068" y="1165" on="0"/>
        <pt x="1032" y="1144" on="0"/>
        <pt x="1008" y="1144" on="1"/>
        <pt x="993" y="1144" on="0"/>
        <pt x="955" y="1159" on="0"/>
        <pt x="909" y="1182" on="0"/>
        <pt x="855" y="1206" on="0"/>
        <pt x="824" y="1215" on="1"/>
        <pt x="744" y="847" on="1"/>
        <pt x="808" y="827" on="0"/>
        <pt x="936" y="777" on="0"/>
        <pt x="1037" y="700" on="0"/>
        <pt x="1100" y="588" on="0"/>
        <pt x="1100" y="506" on="1"/>
        <pt x="1100" y="406" on="0"/>
        <pt x="1025" y="225" on="0"/>
        <pt x="884" y="85" on="0"/>
        <pt x="683" y="-4" on="0"/>
        <pt x="556" y="-13" on="1"/>
        <pt x="528" y="-144" on="1"/>
        <pt x="523" y="-170" on="0"/>
        <pt x="473" y="-213" on="0"/>
        <pt x="440" y="-213" on="1"/>
        <pt x="330" y="-213" on="1"/>
      </contour>
      <contour>
        <pt x="808" y="436" on="1"/>
        <pt x="808" y="489" on="0"/>
        <pt x="739" y="552" on="0"/>
        <pt x="685" y="574" on="1"/>
        <pt x="609" y="228" on="1"/>
        <pt x="709" y="243" on="0"/>
        <pt x="808" y="348" on="0"/>
      </contour>
      <contour>
        <pt x="450" y="1051" on="1"/>
        <pt x="450" y="997" on="0"/>
        <pt x="519" y="930" on="0"/>
        <pt x="574" y="906" on="1"/>
        <pt x="643" y="1222" on="1"/>
        <pt x="590" y="1215" on="0"/>
        <pt x="516" y="1183" on="0"/>
        <pt x="470" y="1138" on="0"/>
        <pt x="450" y="1082" on="0"/>
      </contour>
    </TTGlyph>
    <TTGlyph name="dotaccent" xMin="224" yMin="1142" xMax="598" yMax="1504">
      <contour>
        <pt x="598" y="1322" on="1"/>
        <pt x="598" y="1285" on="0"/>
        <pt x="568" y="1219" on="0"/>
        <pt x="516" y="1170" on="0"/>
        <pt x="447" y="1142" on="0"/>
        <pt x="408" y="1142" on="1"/>
        <pt x="370" y="1142" on="0"/>
        <pt x="304" y="1170" on="0"/>
        <pt x="253" y="1219" on="0"/>
        <pt x="224" y="1285" on="0"/>
        <pt x="224" y="1322" on="1"/>
        <pt x="224" y="1359" on="0"/>
        <pt x="253" y="1426" on="0"/>
        <pt x="304" y="1475" on="0"/>
        <pt x="370" y="1504" on="0"/>
        <pt x="408" y="1504" on="1"/>
        <pt x="447" y="1504" on="0"/>
        <pt x="516" y="1475" on="0"/>
        <pt x="568" y="1426" on="0"/>
        <pt x="598" y="1359" on="0"/>
      </contour>
    </TTGlyph>
    <TTGlyph name="dotaccent.case" xMin="262" yMin="1532" xMax="618" yMax="1877">
      <contour>
        <pt x="618" y="1702" on="1"/>
        <pt x="618" y="1668" on="0"/>
        <pt x="589" y="1606" on="0"/>
        <pt x="540" y="1560" on="0"/>
        <pt x="473" y="1532" on="0"/>
        <pt x="436" y="1532" on="1"/>
        <pt x="401" y="1532" on="0"/>
        <pt x="338" y="1560" on="0"/>
        <pt x="290" y="1606" on="0"/>
        <pt x="262" y="1668" on="0"/>
        <pt x="262" y="1702" on="1"/>
        <pt x="262" y="1738" on="0"/>
        <pt x="290" y="1801" on="0"/>
        <pt x="338" y="1849" on="0"/>
        <pt x="401" y="1877" on="0"/>
        <pt x="436" y="1877" on="1"/>
        <pt x="473" y="1877" on="0"/>
        <pt x="540" y="1849" on="0"/>
        <pt x="589" y="1801" on="0"/>
        <pt x="618" y="1738" on="0"/>
      </contour>
    </TTGlyph>
    <TTGlyph name="dotlessi" xMin="55" yMin="0" xMax="485" yMax="1037">
      <contour>
        <pt x="485" y="1037" on="1"/>
        <pt x="361" y="0" on="1"/>
        <pt x="55" y="0" on="1"/>
        <pt x="179" y="1037" on="1"/>
      </contour>
    </TTGlyph>
    <TTGlyph name="e" xMin="41" yMin="-16" xMax="951" yMax="1051">
      <contour>
        <pt x="951" y="782" on="1"/>
        <pt x="951" y="711" on="0"/>
        <pt x="895" y="593" on="0"/>
        <pt x="756" y="502" on="0"/>
        <pt x="521" y="438" on="0"/>
        <pt x="343" y="420" on="1"/>
        <pt x="345" y="314" on="0"/>
        <pt x="434" y="216" on="0"/>
        <pt x="521" y="216" on="1"/>
        <pt x="562" y="216" on="0"/>
        <pt x="622" y="230" on="0"/>
        <pt x="667" y="252" on="0"/>
        <pt x="703" y="276" on="0"/>
        <pt x="736" y="298" on="0"/>
        <pt x="772" y="312" on="0"/>
        <pt x="795" y="312" on="1"/>
        <pt x="810" y="312" on="0"/>
        <pt x="838" y="297" on="0"/>
        <pt x="849" y="285" on="1"/>
        <pt x="929" y="192" on="1"/>
        <pt x="874" y="138" on="0"/>
        <pt x="769" y="59" on="0"/>
        <pt x="658" y="8" on="0"/>
        <pt x="533" y="-16" on="0"/>
        <pt x="459" y="-16" on="1"/>
        <pt x="367" y="-16" on="0"/>
        <pt x="213" y="47" on="0"/>
        <pt x="102" y="162" on="0"/>
        <pt x="41" y="324" on="0"/>
        <pt x="41" y="423" on="1"/>
        <pt x="41" y="506" on="0"/>
        <pt x="78" y="664" on="0"/>
        <pt x="147" y="803" on="0"/>
        <pt x="247" y="920" on="0"/>
        <pt x="372" y="1004" on="0"/>
        <pt x="521" y="1051" on="0"/>
        <pt x="605" y="1051" on="1"/>
        <pt x="688" y="1051" on="0"/>
        <pt x="817" y="1003" on="0"/>
        <pt x="905" y="926" on="0"/>
        <pt x="951" y="830" on="0"/>
      </contour>
      <contour>
        <pt x="587" y="842" on="1"/>
        <pt x="510" y="842" on="0"/>
        <pt x="394" y="719" on="0"/>
        <pt x="365" y="612" on="1"/>
        <pt x="462" y="627" on="0"/>
        <pt x="582" y="660" on="0"/>
        <pt x="648" y="699" on="0"/>
        <pt x="671" y="744" on="0"/>
        <pt x="671" y="770" on="1"/>
        <pt x="671" y="796" on="0"/>
        <pt x="631" y="842" on="0"/>
      </contour>
    </TTGlyph>
    <TTGlyph name="eacute" xMin="41" yMin="-16" xMax="1019" yMax="1471">
      <component glyphName="e" x="0" y="0" flags="0x204"/>
      <component glyphName="acute" x="217" y="0" flags="0x4"/>
    </TTGlyph>
    <TTGlyph name="ecircumflex" xMin="41" yMin="-16" xMax="963" yMax="1455">
      <component glyphName="e" x="0" y="0" flags="0x204"/>
      <component glyphName="circumflex" x="217" y="0" flags="0x4"/>
    </TTGlyph>
    <TTGlyph name="edieresis" xMin="41" yMin="-16" xMax="979" yMax="1476">
      <component glyphName="e" x="0" y="0" flags="0x204"/>
      <component glyphName="dieresis" x="217" y="0" flags="0x4"/>
    </TTGlyph>
    <TTGlyph name="egrave" xMin="41" yMin="-16" xMax="951" yMax="1471">
      <component glyphName="e" x="0" y="0" flags="0x204"/>
      <component glyphName="grave" x="275" y="0" flags="0x4"/>
    </TTGlyph>
    <TTGlyph name="eight" xMin="50" yMin="-16" xMax="1124" yMax="1471">
      <contour>
        <pt x="518" y="-16" on="1"/>
        <pt x="411" y="-16" on="0"/>
        <pt x="239" y="39" on="0"/>
        <pt x="116" y="139" on="0"/>
        <pt x="50" y="280" on="0"/>
        <pt x="50" y="366" on="1"/>
        <pt x="50" y="435" on="0"/>
        <pt x="83" y="557" on="0"/>
        <pt x="155" y="658" on="0"/>
        <pt x="267" y="735" on="0"/>
        <pt x="345" y="760" on="1"/>
        <pt x="262" y="801" on="0"/>
        <pt x="180" y="937" on="0"/>
        <pt x="180" y="1028" on="1"/>
        <pt x="180" y="1123" on="0"/>
        <pt x="260" y="1285" on="0"/>
        <pt x="401" y="1404" on="0"/>
        <pt x="590" y="1471" on="0"/>
        <pt x="700" y="1471" on="1"/>
        <pt x="795" y="1471" on="0"/>
        <pt x="952" y="1416" on="0"/>
        <pt x="1063" y="1321" on="0"/>
        <pt x="1124" y="1191" on="0"/>
        <pt x="1124" y="1116" on="1"/>
        <pt x="1124" y="988" on="0"/>
        <pt x="1003" y="805" on="0"/>
        <pt x="882" y="756" on="1"/>
        <pt x="993" y="714" on="0"/>
        <pt x="1092" y="563" on="0"/>
        <pt x="1092" y="463" on="1"/>
        <pt x="1092" y="354" on="0"/>
        <pt x="1006" y="177" on="0"/>
        <pt x="853" y="52" on="0"/>
        <pt x="642" y="-16" on="0"/>
      </contour>
      <contour>
        <pt x="546" y="210" on="1"/>
        <pt x="607" y="210" on="0"/>
        <pt x="696" y="248" on="0"/>
        <pt x="755" y="314" on="0"/>
        <pt x="784" y="405" on="0"/>
        <pt x="784" y="458" on="1"/>
        <pt x="784" y="498" on="0"/>
        <pt x="764" y="565" on="0"/>
        <pt x="719" y="612" on="0"/>
        <pt x="648" y="638" on="0"/>
        <pt x="598" y="638" on="1"/>
        <pt x="532" y="638" on="0"/>
        <pt x="442" y="601" on="0"/>
        <pt x="386" y="535" on="0"/>
        <pt x="362" y="444" on="0"/>
        <pt x="362" y="391" on="1"/>
        <pt x="362" y="352" on="0"/>
        <pt x="383" y="286" on="0"/>
        <pt x="428" y="238" on="0"/>
        <pt x="498" y="210" on="0"/>
      </contour>
      <contour>
        <pt x="626" y="864" on="1"/>
        <pt x="691" y="864" on="0"/>
        <pt x="771" y="909" on="0"/>
        <pt x="815" y="977" on="0"/>
        <pt x="830" y="1059" on="0"/>
        <pt x="830" y="1095" on="1"/>
        <pt x="830" y="1126" on="0"/>
        <pt x="813" y="1183" on="0"/>
        <pt x="776" y="1227" on="0"/>
        <pt x="717" y="1253" on="0"/>
        <pt x="674" y="1253" on="1"/>
        <pt x="620" y="1253" on="0"/>
        <pt x="543" y="1217" on="0"/>
        <pt x="493" y="1156" on="0"/>
        <pt x="470" y="1076" on="0"/>
        <pt x="470" y="1032" on="1"/>
        <pt x="470" y="1000" on="0"/>
        <pt x="485" y="940" on="0"/>
        <pt x="521" y="893" on="0"/>
        <pt x="581" y="864" on="0"/>
      </contour>
    </TTGlyph>
    <TTGlyph name="ellipsis" xMin="24" yMin="-14" xMax="1480" yMax="328">
      <contour>
        <pt x="24" y="157" on="1"/>
        <pt x="24" y="193" on="0"/>
        <pt x="51" y="255" on="0"/>
        <pt x="98" y="301" on="0"/>
        <pt x="162" y="328" on="0"/>
        <pt x="200" y="328" on="1"/>
        <pt x="237" y="328" on="0"/>
        <pt x="301" y="301" on="0"/>
        <pt x="349" y="255" on="0"/>
        <pt x="376" y="193" on="0"/>
        <pt x="376" y="157" on="1"/>
        <pt x="376" y="121" on="0"/>
        <pt x="349" y="58" on="0"/>
        <pt x="301" y="12" on="0"/>
        <pt x="237" y="-14" on="0"/>
        <pt x="200" y="-14" on="1"/>
        <pt x="162" y="-14" on="0"/>
        <pt x="98" y="12" on="0"/>
        <pt x="51" y="58" on="0"/>
        <pt x="24" y="121" on="0"/>
      </contour>
      <contour>
        <pt x="576" y="157" on="1"/>
        <pt x="576" y="193" on="0"/>
        <pt x="603" y="255" on="0"/>
        <pt x="650" y="301" on="0"/>
        <pt x="714" y="328" on="0"/>
        <pt x="752" y="328" on="1"/>
        <pt x="789" y="328" on="0"/>
        <pt x="853" y="301" on="0"/>
        <pt x="901" y="255" on="0"/>
        <pt x="928" y="193" on="0"/>
        <pt x="928" y="157" on="1"/>
        <pt x="928" y="121" on="0"/>
        <pt x="901" y="58" on="0"/>
        <pt x="853" y="12" on="0"/>
        <pt x="789" y="-14" on="0"/>
        <pt x="752" y="-14" on="1"/>
        <pt x="714" y="-14" on="0"/>
        <pt x="650" y="12" on="0"/>
        <pt x="603" y="58" on="0"/>
        <pt x="576" y="121" on="0"/>
      </contour>
      <contour>
        <pt x="1128" y="157" on="1"/>
        <pt x="1128" y="193" on="0"/>
        <pt x="1155" y="255" on="0"/>
        <pt x="1202" y="301" on="0"/>
        <pt x="1266" y="328" on="0"/>
        <pt x="1304" y="328" on="1"/>
        <pt x="1341" y="328" on="0"/>
        <pt x="1405" y="301" on="0"/>
        <pt x="1453" y="255" on="0"/>
        <pt x="1480" y="193" on="0"/>
        <pt x="1480" y="157" on="1"/>
        <pt x="1480" y="121" on="0"/>
        <pt x="1453" y="58" on="0"/>
        <pt x="1405" y="12" on="0"/>
        <pt x="1341" y="-14" on="0"/>
        <pt x="1304" y="-14" on="1"/>
        <pt x="1266" y="-14" on="0"/>
        <pt x="1202" y="12" on="0"/>
        <pt x="1155" y="58" on="0"/>
        <pt x="1128" y="121" on="0"/>
      </contour>
    </TTGlyph>
    <TTGlyph name="emdash" xMin="160" yMin="503" xMax="1462" yMax="708">
      <contour>
        <pt x="186" y="708" on="1"/>
        <pt x="1462" y="708" on="1"/>
        <pt x="1436" y="503" on="1"/>
        <pt x="160" y="503" on="1"/>
      </contour>
    </TTGlyph>
    <TTGlyph name="endash" xMin="160" yMin="503" xMax="942" yMax="708">
      <contour>
        <pt x="186" y="708" on="1"/>
        <pt x="942" y="708" on="1"/>
        <pt x="916" y="503" on="1"/>
        <pt x="160" y="503" on="1"/>
      </contour>
    </TTGlyph>
    <TTGlyph name="eogonek" xMin="41" yMin="-347" xMax="951" yMax="1051">
      <contour>
        <pt x="595" y="-171" on="1"/>
        <pt x="616" y="-171" on="0"/>
        <pt x="619" y="-190" on="1"/>
        <pt x="649" y="-297" on="1"/>
        <pt x="614" y="-318" on="0"/>
        <pt x="513" y="-347" on="0"/>
        <pt x="459" y="-347" on="1"/>
        <pt x="365" y="-347" on="0"/>
        <pt x="273" y="-271" on="0"/>
        <pt x="273" y="-214" on="1"/>
        <pt x="273" y="-161" on="0"/>
        <pt x="335" y="-59" on="0"/>
        <pt x="407" y="-13" on="1"/>
        <pt x="325" y="-4" on="0"/>
        <pt x="190" y="65" on="0"/>
        <pt x="94" y="178" on="0"/>
        <pt x="41" y="331" on="0"/>
        <pt x="41" y="423" on="1"/>
        <pt x="41" y="506" on="0"/>
        <pt x="78" y="664" on="0"/>
        <pt x="147" y="803" on="0"/>
        <pt x="247" y="920" on="0"/>
        <pt x="372" y="1004" on="0"/>
        <pt x="521" y="1051" on="0"/>
        <pt x="605" y="1051" on="1"/>
        <pt x="688" y="1051" on="0"/>
        <pt x="817" y="1003" on="0"/>
        <pt x="905" y="926" on="0"/>
        <pt x="951" y="830" on="0"/>
        <pt x="951" y="782" on="1"/>
        <pt x="951" y="711" on="0"/>
        <pt x="895" y="593" on="0"/>
        <pt x="756" y="502" on="0"/>
        <pt x="521" y="438" on="0"/>
        <pt x="343" y="420" on="1"/>
        <pt x="345" y="314" on="0"/>
        <pt x="434" y="216" on="0"/>
        <pt x="521" y="216" on="1"/>
        <pt x="562" y="216" on="0"/>
        <pt x="622" y="230" on="0"/>
        <pt x="667" y="252" on="0"/>
        <pt x="703" y="276" on="0"/>
        <pt x="736" y="298" on="0"/>
        <pt x="772" y="312" on="0"/>
        <pt x="795" y="312" on="1"/>
        <pt x="810" y="312" on="0"/>
        <pt x="838" y="297" on="0"/>
        <pt x="849" y="285" on="1"/>
        <pt x="929" y="192" on="1"/>
        <pt x="847" y="111" on="0"/>
        <pt x="691" y="16" on="0"/>
        <pt x="597" y="-3" on="1"/>
        <pt x="557" y="-26" on="0"/>
        <pt x="503" y="-92" on="0"/>
        <pt x="503" y="-134" on="1"/>
        <pt x="503" y="-154" on="0"/>
        <pt x="523" y="-180" on="0"/>
        <pt x="543" y="-180" on="1"/>
        <pt x="570" y="-180" on="0"/>
        <pt x="586" y="-171" on="0"/>
      </contour>
      <contour>
        <pt x="587" y="842" on="1"/>
        <pt x="510" y="842" on="0"/>
        <pt x="394" y="719" on="0"/>
        <pt x="365" y="612" on="1"/>
        <pt x="462" y="627" on="0"/>
        <pt x="582" y="660" on="0"/>
        <pt x="648" y="699" on="0"/>
        <pt x="671" y="744" on="0"/>
        <pt x="671" y="770" on="1"/>
        <pt x="671" y="796" on="0"/>
        <pt x="631" y="842" on="0"/>
      </contour>
    </TTGlyph>
    <TTGlyph name="equal" xMin="112" yMin="383" xMax="1090" yMax="960">
      <contour>
        <pt x="140" y="597" on="1"/>
        <pt x="1046" y="597" on="1"/>
        <pt x="1018" y="383" on="1"/>
        <pt x="112" y="383" on="1"/>
      </contour>
      <contour>
        <pt x="186" y="960" on="1"/>
        <pt x="1090" y="960" on="1"/>
        <pt x="1064" y="745" on="1"/>
        <pt x="158" y="745" on="1"/>
      </contour>
    </TTGlyph>
    <TTGlyph name="eth" xMin="41" yMin="-16" xMax="1039" yMax="1443">
      <contour>
        <pt x="405" y="1057" on="1"/>
        <pt x="397" y="1069" on="0"/>
        <pt x="397" y="1085" on="1"/>
        <pt x="397" y="1099" on="0"/>
        <pt x="412" y="1122" on="0"/>
        <pt x="423" y="1129" on="1"/>
        <pt x="527" y="1189" on="1"/>
        <pt x="501" y="1201" on="0"/>
        <pt x="445" y="1222" on="0"/>
        <pt x="414" y="1233" on="1"/>
        <pt x="353" y="1253" on="0"/>
        <pt x="353" y="1298" on="1"/>
        <pt x="353" y="1310" on="0"/>
        <pt x="361" y="1336" on="0"/>
        <pt x="369" y="1351" on="1"/>
        <pt x="415" y="1443" on="1"/>
        <pt x="515" y="1426" on="0"/>
        <pt x="692" y="1357" on="0"/>
        <pt x="767" y="1303" on="1"/>
        <pt x="958" y="1410" on="1"/>
        <pt x="1008" y="1315" on="1"/>
        <pt x="1016" y="1299" on="0"/>
        <pt x="1016" y="1284" on="1"/>
        <pt x="1016" y="1270" on="0"/>
        <pt x="1002" y="1246" on="0"/>
        <pt x="985" y="1236" on="1"/>
        <pt x="894" y="1183" on="1"/>
        <pt x="963" y="1097" on="0"/>
        <pt x="1039" y="871" on="0"/>
        <pt x="1039" y="728" on="1"/>
        <pt x="1039" y="554" on="0"/>
        <pt x="959" y="278" on="0"/>
        <pt x="809" y="86" on="0"/>
        <pt x="593" y="-16" on="0"/>
        <pt x="457" y="-16" on="1"/>
        <pt x="365" y="-16" on="0"/>
        <pt x="212" y="43" on="0"/>
        <pt x="102" y="153" on="0"/>
        <pt x="41" y="312" on="0"/>
        <pt x="41" y="411" on="1"/>
        <pt x="41" y="517" on="0"/>
        <pt x="116" y="708" on="0"/>
        <pt x="248" y="851" on="0"/>
        <pt x="427" y="935" on="0"/>
        <pt x="531" y="935" on="1"/>
        <pt x="622" y="935" on="0"/>
        <pt x="755" y="870" on="0"/>
        <pt x="801" y="808" on="1"/>
        <pt x="796" y="896" on="0"/>
        <pt x="741" y="1034" on="0"/>
        <pt x="683" y="1089" on="1"/>
        <pt x="461" y="960" on="1"/>
      </contour>
      <contour>
        <pt x="493" y="205" on="1"/>
        <pt x="532" y="205" on="0"/>
        <pt x="609" y="239" on="0"/>
        <pt x="676" y="321" on="0"/>
        <pt x="729" y="459" on="0"/>
        <pt x="744" y="564" on="1"/>
        <pt x="734" y="596" on="0"/>
        <pt x="705" y="651" on="0"/>
        <pt x="661" y="692" on="0"/>
        <pt x="603" y="715" on="0"/>
        <pt x="565" y="715" on="1"/>
        <pt x="512" y="715" on="0"/>
        <pt x="428" y="670" on="0"/>
        <pt x="369" y="592" on="0"/>
        <pt x="337" y="486" on="0"/>
        <pt x="337" y="424" on="1"/>
        <pt x="337" y="318" on="0"/>
        <pt x="424" y="205" on="0"/>
      </contour>
    </TTGlyph>
    <TTGlyph name="exclam" xMin="150" yMin="-14" xMax="610" yMax="1457">
      <contour>
        <pt x="610" y="1457" on="1"/>
        <pt x="540" y="883" on="1"/>
        <pt x="529" y="792" on="0"/>
        <pt x="485" y="611" on="0"/>
        <pt x="456" y="516" on="1"/>
        <pt x="254" y="516" on="1"/>
        <pt x="252" y="554" on="0"/>
        <pt x="249" y="628" on="0"/>
        <pt x="249" y="665" on="1"/>
        <pt x="249" y="720" on="0"/>
        <pt x="255" y="828" on="0"/>
        <pt x="262" y="883" on="1"/>
        <pt x="332" y="1457" on="1"/>
      </contour>
      <contour>
        <pt x="150" y="157" on="1"/>
        <pt x="150" y="193" on="0"/>
        <pt x="177" y="255" on="0"/>
        <pt x="224" y="301" on="0"/>
        <pt x="288" y="328" on="0"/>
        <pt x="326" y="328" on="1"/>
        <pt x="363" y="328" on="0"/>
        <pt x="427" y="301" on="0"/>
        <pt x="475" y="255" on="0"/>
        <pt x="502" y="193" on="0"/>
        <pt x="502" y="157" on="1"/>
        <pt x="502" y="121" on="0"/>
        <pt x="475" y="58" on="0"/>
        <pt x="427" y="12" on="0"/>
        <pt x="363" y="-14" on="0"/>
        <pt x="326" y="-14" on="1"/>
        <pt x="288" y="-14" on="0"/>
        <pt x="224" y="12" on="0"/>
        <pt x="177" y="58" on="0"/>
        <pt x="150" y="121" on="0"/>
      </contour>
    </TTGlyph>
    <TTGlyph name="exclamdown" xMin="110" yMin="-331" xMax="574" yMax="1053">
      <contour>
        <pt x="110" y="-331" on="1"/>
        <pt x="176" y="198" on="1"/>
        <pt x="187" y="290" on="0"/>
        <pt x="231" y="471" on="0"/>
        <pt x="260" y="565" on="1"/>
        <pt x="464" y="565" on="1"/>
        <pt x="466" y="527" on="0"/>
        <pt x="469" y="454" on="0"/>
        <pt x="469" y="417" on="1"/>
        <pt x="469" y="362" on="0"/>
        <pt x="463" y="253" on="0"/>
        <pt x="456" y="198" on="1"/>
        <pt x="392" y="-331" on="1"/>
      </contour>
      <contour>
        <pt x="222" y="882" on="1"/>
        <pt x="222" y="918" on="0"/>
        <pt x="249" y="980" on="0"/>
        <pt x="296" y="1026" on="0"/>
        <pt x="360" y="1053" on="0"/>
        <pt x="398" y="1053" on="1"/>
        <pt x="435" y="1053" on="0"/>
        <pt x="499" y="1026" on="0"/>
        <pt x="547" y="980" on="0"/>
        <pt x="574" y="918" on="0"/>
        <pt x="574" y="882" on="1"/>
        <pt x="574" y="846" on="0"/>
        <pt x="547" y="783" on="0"/>
        <pt x="499" y="737" on="0"/>
        <pt x="435" y="711" on="0"/>
        <pt x="398" y="711" on="1"/>
        <pt x="360" y="711" on="0"/>
        <pt x="296" y="737" on="0"/>
        <pt x="249" y="783" on="0"/>
        <pt x="222" y="846" on="0"/>
      </contour>
    </TTGlyph>
    <TTGlyph name="f" xMin="51" yMin="-246" xMax="787" yMax="1485">
      <contour>
        <pt x="484" y="823" on="1"/>
        <pt x="391" y="50" on="1"/>
        <pt x="337" y="-124" on="1"/>
        <pt x="319" y="-182" on="0"/>
        <pt x="245" y="-246" on="0"/>
        <pt x="177" y="-246" on="1"/>
        <pt x="51" y="-246" on="1"/>
        <pt x="180" y="824" on="1"/>
        <pt x="119" y="838" on="1"/>
        <pt x="93" y="844" on="0"/>
        <pt x="58" y="875" on="0"/>
        <pt x="58" y="902" on="1"/>
        <pt x="58" y="909" on="0"/>
        <pt x="59" y="913" on="1"/>
        <pt x="75" y="1035" on="1"/>
        <pt x="206" y="1035" on="1"/>
        <pt x="213" y="1094" on="1"/>
        <pt x="224" y="1183" on="0"/>
        <pt x="300" y="1327" on="0"/>
        <pt x="418" y="1429" on="0"/>
        <pt x="573" y="1485" on="0"/>
        <pt x="663" y="1485" on="1"/>
        <pt x="698" y="1485" on="0"/>
        <pt x="757" y="1476" on="0"/>
        <pt x="787" y="1466" on="1"/>
        <pt x="759" y="1310" on="1"/>
        <pt x="754" y="1284" on="0"/>
        <pt x="708" y="1268" on="0"/>
        <pt x="685" y="1268" on="1"/>
        <pt x="608" y="1268" on="0"/>
        <pt x="517" y="1186" on="0"/>
        <pt x="505" y="1084" on="1"/>
        <pt x="499" y="1035" on="1"/>
        <pt x="709" y="1035" on="1"/>
        <pt x="681" y="823" on="1"/>
      </contour>
    </TTGlyph>
    <TTGlyph name="fi" xMin="49" yMin="-248" xMax="1109" yMax="1502">
      <contour>
        <pt x="496" y="1035" on="1"/>
        <pt x="1109" y="1035" on="1"/>
        <pt x="983" y="0" on="1"/>
        <pt x="679" y="0" on="1"/>
        <pt x="781" y="823" on="1"/>
        <pt x="482" y="823" on="1"/>
        <pt x="389" y="48" on="1"/>
        <pt x="335" y="-126" on="1"/>
        <pt x="317" y="-184" on="0"/>
        <pt x="243" y="-248" on="0"/>
        <pt x="175" y="-248" on="1"/>
        <pt x="49" y="-248" on="1"/>
        <pt x="181" y="825" on="1"/>
        <pt x="125" y="838" on="1"/>
        <pt x="95" y="845" on="0"/>
        <pt x="58" y="873" on="0"/>
        <pt x="58" y="899" on="1"/>
        <pt x="58" y="900" on="0"/>
        <pt x="59" y="907" on="0"/>
        <pt x="62" y="933" on="0"/>
        <pt x="68" y="987" on="0"/>
        <pt x="73" y="1035" on="1"/>
        <pt x="207" y="1035" on="1"/>
        <pt x="209" y="1050" on="1"/>
        <pt x="220" y="1144" on="0"/>
        <pt x="301" y="1309" on="0"/>
        <pt x="443" y="1432" on="0"/>
        <pt x="650" y="1502" on="0"/>
        <pt x="787" y="1502" on="1"/>
        <pt x="829" y="1502" on="0"/>
        <pt x="919" y="1493" on="0"/>
        <pt x="951" y="1484" on="1"/>
        <pt x="921" y="1333" on="1"/>
        <pt x="918" y="1320" on="0"/>
        <pt x="904" y="1305" on="0"/>
        <pt x="884" y="1296" on="0"/>
        <pt x="860" y="1293" on="0"/>
        <pt x="849" y="1293" on="1"/>
        <pt x="751" y="1293" on="0"/>
        <pt x="623" y="1262" on="0"/>
        <pt x="543" y="1201" on="0"/>
        <pt x="504" y="1107" on="0"/>
        <pt x="497" y="1044" on="1"/>
      </contour>
    </TTGlyph>
    <TTGlyph name="five" xMin="12" yMin="-16" xMax="1116" yMax="1457">
      <contour>
        <pt x="1100" y="1333" on="1"/>
        <pt x="1096" y="1303" on="0"/>
        <pt x="1071" y="1252" on="0"/>
        <pt x="1024" y="1215" on="0"/>
        <pt x="954" y="1195" on="0"/>
        <pt x="906" y="1195" on="1"/>
        <pt x="550" y="1195" on="1"/>
        <pt x="475" y="938" on="1"/>
        <pt x="516" y="946" on="0"/>
        <pt x="592" y="952" on="0"/>
        <pt x="627" y="952" on="1"/>
        <pt x="734" y="952" on="0"/>
        <pt x="895" y="892" on="0"/>
        <pt x="1002" y="787" on="0"/>
        <pt x="1056" y="645" on="0"/>
        <pt x="1056" y="563" on="1"/>
        <pt x="1056" y="436" on="0"/>
        <pt x="960" y="223" on="0"/>
        <pt x="792" y="70" on="0"/>
        <pt x="565" y="-16" on="0"/>
        <pt x="434" y="-16" on="1"/>
        <pt x="363" y="-16" on="0"/>
        <pt x="238" y="13" on="0"/>
        <pt x="133" y="63" on="0"/>
        <pt x="46" y="129" on="0"/>
        <pt x="12" y="166" on="1"/>
        <pt x="120" y="291" on="1"/>
        <pt x="137" y="311" on="0"/>
        <pt x="179" y="329" on="0"/>
        <pt x="200" y="329" on="1"/>
        <pt x="229" y="329" on="0"/>
        <pt x="278" y="297" on="0"/>
        <pt x="338" y="258" on="0"/>
        <pt x="420" y="226" on="0"/>
        <pt x="482" y="226" on="1"/>
        <pt x="553" y="226" on="0"/>
        <pt x="656" y="276" on="0"/>
        <pt x="722" y="358" on="0"/>
        <pt x="754" y="466" on="0"/>
        <pt x="754" y="525" on="1"/>
        <pt x="754" y="613" on="0"/>
        <pt x="646" y="716" on="0"/>
        <pt x="537" y="716" on="1"/>
        <pt x="495" y="716" on="0"/>
        <pt x="397" y="700" on="0"/>
        <pt x="340" y="682" on="1"/>
        <pt x="162" y="732" on="1"/>
        <pt x="376" y="1457" on="1"/>
        <pt x="1116" y="1457" on="1"/>
      </contour>
    </TTGlyph>
    <TTGlyph name="fl" xMin="49" yMin="-248" xMax="1181" yMax="1487">
      <contour>
        <pt x="484" y="823" on="1"/>
        <pt x="389" y="48" on="1"/>
        <pt x="335" y="-126" on="1"/>
        <pt x="317" y="-184" on="0"/>
        <pt x="243" y="-248" on="0"/>
        <pt x="175" y="-248" on="1"/>
        <pt x="49" y="-248" on="1"/>
        <pt x="180" y="825" on="1"/>
        <pt x="125" y="838" on="1"/>
        <pt x="95" y="845" on="0"/>
        <pt x="58" y="873" on="0"/>
        <pt x="58" y="899" on="1"/>
        <pt x="58" y="900" on="0"/>
        <pt x="59" y="907" on="0"/>
        <pt x="62" y="933" on="0"/>
        <pt x="68" y="987" on="0"/>
        <pt x="74" y="1035" on="1"/>
        <pt x="206" y="1035" on="1"/>
        <pt x="211" y="1073" on="1"/>
        <pt x="221" y="1152" on="0"/>
        <pt x="287" y="1302" on="0"/>
        <pt x="401" y="1417" on="0"/>
        <pt x="565" y="1487" on="0"/>
        <pt x="673" y="1487" on="1"/>
        <pt x="758" y="1487" on="0"/>
        <pt x="907" y="1475" on="0"/>
        <pt x="984" y="1475" on="1"/>
        <pt x="1181" y="1475" on="1"/>
        <pt x="999" y="0" on="1"/>
        <pt x="699" y="0" on="1"/>
        <pt x="853" y="1262" on="1"/>
        <pt x="812" y="1267" on="0"/>
        <pt x="732" y="1276" on="0"/>
        <pt x="695" y="1276" on="1"/>
        <pt x="612" y="1276" on="0"/>
        <pt x="512" y="1176" on="0"/>
        <pt x="503" y="1073" on="1"/>
        <pt x="499" y="1035" on="1"/>
        <pt x="697" y="1035" on="1"/>
        <pt x="671" y="823" on="1"/>
      </contour>
    </TTGlyph>
    <TTGlyph name="florin" xMin="-10" yMin="-341" xMax="1160" yMax="1483">
      <contour>
        <pt x="760" y="730" on="1"/>
        <pt x="600" y="68" on="1"/>
        <pt x="574" y="-40" on="0"/>
        <pt x="477" y="-195" on="0"/>
        <pt x="328" y="-294" on="0"/>
        <pt x="123" y="-341" on="0"/>
        <pt x="-10" y="-341" on="1"/>
        <pt x="10" y="-190" on="1"/>
        <pt x="16" y="-144" on="0"/>
        <pt x="66" y="-100" on="0"/>
        <pt x="114" y="-100" on="1"/>
        <pt x="187" y="-100" on="0"/>
        <pt x="282" y="-21" on="0"/>
        <pt x="306" y="78" on="1"/>
        <pt x="464" y="726" on="1"/>
        <pt x="366" y="746" on="1"/>
        <pt x="309" y="758" on="0"/>
        <pt x="309" y="805" on="1"/>
        <pt x="309" y="813" on="0"/>
        <pt x="310" y="817" on="1"/>
        <pt x="324" y="935" on="1"/>
        <pt x="516" y="935" on="1"/>
        <pt x="550" y="1073" on="1"/>
        <pt x="575" y="1174" on="0"/>
        <pt x="671" y="1327" on="0"/>
        <pt x="820" y="1431" on="0"/>
        <pt x="1026" y="1483" on="0"/>
        <pt x="1160" y="1483" on="1"/>
        <pt x="1140" y="1324" on="1"/>
        <pt x="1134" y="1278" on="0"/>
        <pt x="1084" y="1241" on="0"/>
        <pt x="1036" y="1241" on="1"/>
        <pt x="962" y="1241" on="0"/>
        <pt x="862" y="1161" on="0"/>
        <pt x="836" y="1064" on="1"/>
        <pt x="802" y="935" on="1"/>
        <pt x="1078" y="935" on="1"/>
        <pt x="1052" y="730" on="1"/>
      </contour>
    </TTGlyph>
    <TTGlyph name="four" xMin="16" yMin="0" xMax="1138" yMax="1457">
      <contour>
        <pt x="988" y="561" on="1"/>
        <pt x="1138" y="561" on="1"/>
        <pt x="1114" y="394" on="1"/>
        <pt x="1111" y="372" on="0"/>
        <pt x="1077" y="339" on="0"/>
        <pt x="1048" y="339" on="1"/>
        <pt x="961" y="339" on="1"/>
        <pt x="920" y="0" on="1"/>
        <pt x="650" y="0" on="1"/>
        <pt x="691" y="339" on="1"/>
        <pt x="107" y="339" on="1"/>
        <pt x="78" y="339" on="0"/>
        <pt x="30" y="376" on="0"/>
        <pt x="27" y="408" on="1"/>
        <pt x="16" y="547" on="1"/>
        <pt x="804" y="1457" on="1"/>
        <pt x="1098" y="1457" on="1"/>
      </contour>
      <contour>
        <pt x="766" y="961" on="1"/>
        <pt x="770" y="991" on="0"/>
        <pt x="783" y="1060" on="0"/>
        <pt x="793" y="1097" on="1"/>
        <pt x="339" y="561" on="1"/>
        <pt x="718" y="561" on="1"/>
      </contour>
    </TTGlyph>
    <TTGlyph name="fraction" xMin="-208" yMin="0" xMax="1036" yMax="1455">
      <contour>
        <pt x="74" y="85" on="1"/>
        <pt x="39" y="35" on="0"/>
        <pt x="-38" y="0" on="0"/>
        <pt x="-86" y="0" on="1"/>
        <pt x="-208" y="0" on="1"/>
        <pt x="743" y="1357" on="1"/>
        <pt x="777" y="1405" on="0"/>
        <pt x="860" y="1455" on="0"/>
        <pt x="914" y="1455" on="1"/>
        <pt x="1036" y="1455" on="1"/>
      </contour>
    </TTGlyph>
    <TTGlyph name="g" xMin="-75" yMin="-355" xMax="1055" yMax="1053">
      <contour>
        <pt x="901" y="727" on="1"/>
        <pt x="901" y="663" on="0"/>
        <pt x="866" y="573" on="0"/>
        <pt x="824" y="493" on="0"/>
        <pt x="789" y="409" on="0"/>
        <pt x="789" y="352" on="1"/>
        <pt x="789" y="311" on="0"/>
        <pt x="816" y="242" on="0"/>
        <pt x="848" y="170" on="0"/>
        <pt x="875" y="90" on="0"/>
        <pt x="875" y="38" on="1"/>
        <pt x="875" y="-42" on="0"/>
        <pt x="805" y="-185" on="0"/>
        <pt x="673" y="-292" on="0"/>
        <pt x="480" y="-355" on="0"/>
        <pt x="357" y="-355" on="1"/>
        <pt x="256" y="-355" on="0"/>
        <pt x="96" y="-313" on="0"/>
        <pt x="-15" y="-241" on="0"/>
        <pt x="-75" y="-142" on="0"/>
        <pt x="-75" y="-85" on="1"/>
        <pt x="-75" y="3" on="0"/>
        <pt x="14" y="120" on="0"/>
        <pt x="154" y="191" on="0"/>
        <pt x="324" y="220" on="0"/>
        <pt x="405" y="220" on="1"/>
        <pt x="451" y="220" on="0"/>
        <pt x="534" y="212" on="0"/>
        <pt x="569" y="205" on="1"/>
        <pt x="567" y="217" on="0"/>
        <pt x="567" y="242" on="0"/>
        <pt x="567" y="256" on="1"/>
        <pt x="567" y="309" on="0"/>
        <pt x="594" y="377" on="1"/>
        <pt x="555" y="351" on="0"/>
        <pt x="454" y="321" on="0"/>
        <pt x="379" y="321" on="1"/>
        <pt x="320" y="321" on="0"/>
        <pt x="212" y="360" on="0"/>
        <pt x="129" y="440" on="0"/>
        <pt x="79" y="561" on="0"/>
        <pt x="79" y="644" on="1"/>
        <pt x="79" y="721" on="0"/>
        <pt x="138" y="868" on="0"/>
        <pt x="255" y="983" on="0"/>
        <pt x="428" y="1053" on="0"/>
        <pt x="543" y="1053" on="1"/>
        <pt x="602" y="1053" on="0"/>
        <pt x="711" y="1026" on="0"/>
        <pt x="757" y="999" on="1"/>
        <pt x="1055" y="999" on="1"/>
        <pt x="1041" y="902" on="1"/>
        <pt x="1032" y="841" on="0"/>
        <pt x="983" y="825" on="1"/>
        <pt x="895" y="795" on="1"/>
        <pt x="901" y="762" on="0"/>
      </contour>
      <contour>
        <pt x="469" y="501" on="1"/>
        <pt x="506" y="501" on="0"/>
        <pt x="561" y="539" on="0"/>
        <pt x="598" y="600" on="0"/>
        <pt x="617" y="676" on="0"/>
        <pt x="617" y="715" on="1"/>
        <pt x="617" y="780" on="0"/>
        <pt x="563" y="852" on="0"/>
        <pt x="507" y="852" on="1"/>
        <pt x="470" y="852" on="0"/>
        <pt x="415" y="817" on="0"/>
        <pt x="379" y="759" on="0"/>
        <pt x="361" y="683" on="0"/>
        <pt x="361" y="642" on="1"/>
        <pt x="361" y="576" on="0"/>
        <pt x="415" y="501" on="0"/>
      </contour>
      <contour>
        <pt x="593" y="14" on="1"/>
        <pt x="593" y="20" on="0"/>
        <pt x="593" y="32" on="0"/>
        <pt x="592" y="37" on="1"/>
        <pt x="541" y="45" on="0"/>
        <pt x="456" y="53" on="0"/>
        <pt x="421" y="53" on="1"/>
        <pt x="367" y="53" on="0"/>
        <pt x="290" y="37" on="0"/>
        <pt x="241" y="10" on="0"/>
        <pt x="219" y="-27" on="0"/>
        <pt x="219" y="-47" on="1"/>
        <pt x="219" y="-98" on="0"/>
        <pt x="294" y="-150" on="0"/>
        <pt x="383" y="-150" on="1"/>
        <pt x="429" y="-150" on="0"/>
        <pt x="507" y="-126" on="0"/>
        <pt x="562" y="-83" on="0"/>
        <pt x="593" y="-23" on="0"/>
      </contour>
    </TTGlyph>
    <TTGlyph name="germandbls" xMin="38" yMin="-246" xMax="1181" yMax="1483">
      <contour>
        <pt x="785" y="1483" on="1"/>
        <pt x="898" y="1483" on="0"/>
        <pt x="1050" y="1417" on="0"/>
        <pt x="1142" y="1318" on="0"/>
        <pt x="1181" y="1204" on="0"/>
        <pt x="1181" y="1155" on="1"/>
        <pt x="1181" y="1090" on="0"/>
        <pt x="1142" y="1000" on="0"/>
        <pt x="1084" y="936" on="0"/>
        <pt x="1016" y="890" on="0"/>
        <pt x="958" y="849" on="0"/>
        <pt x="919" y="805" on="0"/>
        <pt x="919" y="775" on="1"/>
        <pt x="919" y="749" on="0"/>
        <pt x="957" y="707" on="0"/>
        <pt x="1013" y="663" on="0"/>
        <pt x="1079" y="613" on="0"/>
        <pt x="1135" y="543" on="0"/>
        <pt x="1173" y="450" on="0"/>
        <pt x="1173" y="386" on="1"/>
        <pt x="1173" y="285" on="0"/>
        <pt x="1099" y="134" on="0"/>
        <pt x="977" y="34" on="0"/>
        <pt x="822" y="-16" on="0"/>
        <pt x="741" y="-16" on="1"/>
        <pt x="700" y="-16" on="0"/>
        <pt x="618" y="4" on="0"/>
        <pt x="542" y="38" on="0"/>
        <pt x="476" y="85" on="0"/>
        <pt x="451" y="112" on="1"/>
        <pt x="535" y="222" on="1"/>
        <pt x="549" y="240" on="0"/>
        <pt x="588" y="263" on="0"/>
        <pt x="615" y="263" on="1"/>
        <pt x="640" y="263" on="0"/>
        <pt x="678" y="239" on="0"/>
        <pt x="716" y="209" on="0"/>
        <pt x="761" y="185" on="0"/>
        <pt x="793" y="185" on="1"/>
        <pt x="810" y="185" on="0"/>
        <pt x="844" y="203" on="0"/>
        <pt x="871" y="236" on="0"/>
        <pt x="887" y="281" on="0"/>
        <pt x="887" y="308" on="1"/>
        <pt x="887" y="344" on="0"/>
        <pt x="844" y="396" on="0"/>
        <pt x="780" y="441" on="0"/>
        <pt x="704" y="487" on="0"/>
        <pt x="640" y="548" on="0"/>
        <pt x="597" y="630" on="0"/>
        <pt x="597" y="689" on="1"/>
        <pt x="597" y="760" on="0"/>
        <pt x="641" y="857" on="0"/>
        <pt x="706" y="928" on="0"/>
        <pt x="782" y="981" on="0"/>
        <pt x="847" y="1036" on="0"/>
        <pt x="891" y="1100" on="0"/>
        <pt x="891" y="1147" on="1"/>
        <pt x="891" y="1204" on="0"/>
        <pt x="820" y="1274" on="0"/>
        <pt x="745" y="1274" on="1"/>
        <pt x="687" y="1274" on="0"/>
        <pt x="600" y="1205" on="0"/>
        <pt x="538" y="1094" on="0"/>
        <pt x="500" y="953" on="0"/>
        <pt x="491" y="881" on="1"/>
        <pt x="391" y="50" on="1"/>
        <pt x="337" y="-124" on="1"/>
        <pt x="319" y="-182" on="0"/>
        <pt x="245" y="-246" on="0"/>
        <pt x="177" y="-246" on="1"/>
        <pt x="51" y="-246" on="1"/>
        <pt x="181" y="824" on="1"/>
        <pt x="105" y="842" on="1"/>
        <pt x="75" y="849" on="0"/>
        <pt x="38" y="877" on="0"/>
        <pt x="38" y="903" on="1"/>
        <pt x="38" y="904" on="0"/>
        <pt x="39" y="910" on="0"/>
        <pt x="42" y="935" on="0"/>
        <pt x="48" y="986" on="0"/>
        <pt x="53" y="1031" on="1"/>
        <pt x="222" y="1031" on="1"/>
        <pt x="252" y="1120" on="0"/>
        <pt x="358" y="1283" on="0"/>
        <pt x="502" y="1408" on="0"/>
        <pt x="681" y="1483" on="0"/>
      </contour>
    </TTGlyph>
    <TTGlyph name="grave" xMin="-2" yMin="1168" xMax="468" yMax="1471">
      <contour>
        <pt x="278" y="1471" on="1"/>
        <pt x="322" y="1471" on="0"/>
        <pt x="363" y="1442" on="0"/>
        <pt x="374" y="1413" on="1"/>
        <pt x="468" y="1168" on="1"/>
        <pt x="298" y="1168" on="1"/>
        <pt x="265" y="1168" on="0"/>
        <pt x="226" y="1186" on="0"/>
        <pt x="208" y="1208" on="1"/>
        <pt x="-2" y="1471" on="1"/>
      </contour>
    </TTGlyph>
    <TTGlyph name="grave.case" xMin="24" yMin="1551" xMax="604" yMax="1796">
      <contour>
        <pt x="354" y="1796" on="1"/>
        <pt x="376" y="1796" on="0"/>
        <pt x="406" y="1792" on="0"/>
        <pt x="430" y="1783" on="0"/>
        <pt x="450" y="1765" on="0"/>
        <pt x="462" y="1752" on="1"/>
        <pt x="604" y="1551" on="1"/>
        <pt x="348" y="1551" on="1"/>
        <pt x="315" y="1551" on="0"/>
        <pt x="278" y="1572" on="0"/>
        <pt x="256" y="1592" on="1"/>
        <pt x="24" y="1796" on="1"/>
      </contour>
    </TTGlyph>
    <TTGlyph name="greater" xMin="99" yMin="191" xMax="976" yMax="1159">
      <contour>
        <pt x="961" y="615" on="1"/>
        <pt x="99" y="191" on="1"/>
        <pt x="126" y="406" on="1"/>
        <pt x="129" y="429" on="0"/>
        <pt x="157" y="468" on="0"/>
        <pt x="186" y="482" on="1"/>
        <pt x="488" y="635" on="1"/>
        <pt x="515" y="649" on="0"/>
        <pt x="576" y="668" on="0"/>
        <pt x="609" y="676" on="1"/>
        <pt x="577" y="684" on="0"/>
        <pt x="522" y="701" on="0"/>
        <pt x="498" y="715" on="1"/>
        <pt x="231" y="869" on="1"/>
        <pt x="190" y="892" on="0"/>
        <pt x="190" y="932" on="1"/>
        <pt x="190" y="940" on="0"/>
        <pt x="191" y="944" on="1"/>
        <pt x="219" y="1159" on="1"/>
        <pt x="976" y="736" on="1"/>
      </contour>
    </TTGlyph>
    <TTGlyph name="greaterequal" xMin="86" yMin="80" xMax="996" yMax="1262">
      <contour>
        <pt x="896" y="80" on="1"/>
        <pt x="86" y="80" on="1"/>
        <pt x="115" y="302" on="1"/>
        <pt x="925" y="302" on="1"/>
      </contour>
      <contour>
        <pt x="980" y="757" on="1"/>
        <pt x="124" y="376" on="1"/>
        <pt x="150" y="582" on="1"/>
        <pt x="153" y="605" on="0"/>
        <pt x="184" y="646" on="0"/>
        <pt x="224" y="663" on="1"/>
        <pt x="508" y="780" on="1"/>
        <pt x="569" y="801" on="0"/>
        <pt x="642" y="816" on="1"/>
        <pt x="575" y="831" on="0"/>
        <pt x="517" y="854" on="1"/>
        <pt x="261" y="975" on="1"/>
        <pt x="229" y="990" on="0"/>
        <pt x="206" y="1024" on="0"/>
        <pt x="206" y="1044" on="1"/>
        <pt x="206" y="1045" on="0"/>
        <pt x="207" y="1055" on="0"/>
        <pt x="212" y="1097" on="0"/>
        <pt x="223" y="1183" on="0"/>
        <pt x="233" y="1262" on="1"/>
        <pt x="996" y="878" on="1"/>
      </contour>
    </TTGlyph>
    <TTGlyph name="guillemotleft" xMin="111" yMin="123" xMax="877" yMax="962">
      <contour>
        <pt x="111" y="525" on="1"/>
        <pt x="117" y="562" on="1"/>
        <pt x="409" y="962" on="1"/>
        <pt x="501" y="918" on="1"/>
        <pt x="539" y="900" on="0"/>
        <pt x="539" y="866" on="1"/>
        <pt x="539" y="852" on="0"/>
        <pt x="527" y="824" on="0"/>
        <pt x="517" y="808" on="1"/>
        <pt x="385" y="589" on="1"/>
        <pt x="376" y="574" on="0"/>
        <pt x="355" y="551" on="0"/>
        <pt x="344" y="543" on="1"/>
        <pt x="352" y="534" on="0"/>
        <pt x="368" y="512" on="0"/>
        <pt x="373" y="498" on="1"/>
        <pt x="453" y="279" on="1"/>
        <pt x="457" y="268" on="0"/>
        <pt x="462" y="248" on="0"/>
        <pt x="462" y="238" on="1"/>
        <pt x="462" y="191" on="0"/>
        <pt x="409" y="167" on="1"/>
        <pt x="305" y="123" on="1"/>
      </contour>
      <contour>
        <pt x="449" y="525" on="1"/>
        <pt x="455" y="562" on="1"/>
        <pt x="747" y="962" on="1"/>
        <pt x="839" y="918" on="1"/>
        <pt x="877" y="900" on="0"/>
        <pt x="877" y="866" on="1"/>
        <pt x="877" y="852" on="0"/>
        <pt x="865" y="824" on="0"/>
        <pt x="855" y="808" on="1"/>
        <pt x="723" y="589" on="1"/>
        <pt x="714" y="574" on="0"/>
        <pt x="693" y="551" on="0"/>
        <pt x="682" y="543" on="1"/>
        <pt x="690" y="534" on="0"/>
        <pt x="706" y="512" on="0"/>
        <pt x="711" y="498" on="1"/>
        <pt x="791" y="279" on="1"/>
        <pt x="795" y="268" on="0"/>
        <pt x="800" y="248" on="0"/>
        <pt x="800" y="238" on="1"/>
        <pt x="800" y="191" on="0"/>
        <pt x="747" y="167" on="1"/>
        <pt x="643" y="123" on="1"/>
      </contour>
    </TTGlyph>
    <TTGlyph name="guillemotright" xMin="105" yMin="123" xMax="870" yMax="962">
      <contour>
        <pt x="532" y="562" on="1"/>
        <pt x="528" y="525" on="1"/>
        <pt x="236" y="123" on="1"/>
        <pt x="144" y="167" on="1"/>
        <pt x="105" y="186" on="0"/>
        <pt x="105" y="221" on="1"/>
        <pt x="105" y="235" on="0"/>
        <pt x="116" y="263" on="0"/>
        <pt x="126" y="279" on="1"/>
        <pt x="260" y="498" on="1"/>
        <pt x="268" y="512" on="0"/>
        <pt x="289" y="534" on="0"/>
        <pt x="300" y="542" on="1"/>
        <pt x="282" y="560" on="0"/>
        <pt x="272" y="589" on="1"/>
        <pt x="190" y="808" on="1"/>
        <pt x="182" y="829" on="0"/>
        <pt x="182" y="846" on="1"/>
        <pt x="182" y="869" on="0"/>
        <pt x="208" y="907" on="0"/>
        <pt x="236" y="918" on="1"/>
        <pt x="340" y="962" on="1"/>
      </contour>
      <contour>
        <pt x="870" y="562" on="1"/>
        <pt x="866" y="525" on="1"/>
        <pt x="574" y="123" on="1"/>
        <pt x="482" y="167" on="1"/>
        <pt x="443" y="186" on="0"/>
        <pt x="443" y="221" on="1"/>
        <pt x="443" y="235" on="0"/>
        <pt x="454" y="263" on="0"/>
        <pt x="464" y="279" on="1"/>
        <pt x="598" y="498" on="1"/>
        <pt x="606" y="512" on="0"/>
        <pt x="627" y="534" on="0"/>
        <pt x="638" y="542" on="1"/>
        <pt x="620" y="560" on="0"/>
        <pt x="610" y="589" on="1"/>
        <pt x="528" y="808" on="1"/>
        <pt x="520" y="829" on="0"/>
        <pt x="520" y="846" on="1"/>
        <pt x="520" y="869" on="0"/>
        <pt x="546" y="907" on="0"/>
        <pt x="574" y="918" on="1"/>
        <pt x="678" y="962" on="1"/>
      </contour>
    </TTGlyph>
    <TTGlyph name="guilsinglleft" xMin="111" yMin="123" xMax="539" yMax="962">
      <contour>
        <pt x="111" y="525" on="1"/>
        <pt x="117" y="562" on="1"/>
        <pt x="409" y="962" on="1"/>
        <pt x="501" y="918" on="1"/>
        <pt x="539" y="900" on="0"/>
        <pt x="539" y="866" on="1"/>
        <pt x="539" y="852" on="0"/>
        <pt x="527" y="824" on="0"/>
        <pt x="517" y="808" on="1"/>
        <pt x="385" y="589" on="1"/>
        <pt x="376" y="574" on="0"/>
        <pt x="355" y="551" on="0"/>
        <pt x="344" y="543" on="1"/>
        <pt x="352" y="534" on="0"/>
        <pt x="368" y="512" on="0"/>
        <pt x="373" y="498" on="1"/>
        <pt x="453" y="279" on="1"/>
        <pt x="457" y="268" on="0"/>
        <pt x="462" y="248" on="0"/>
        <pt x="462" y="238" on="1"/>
        <pt x="462" y="191" on="0"/>
        <pt x="409" y="167" on="1"/>
        <pt x="305" y="123" on="1"/>
      </contour>
    </TTGlyph>
    <TTGlyph name="guilsinglright" xMin="105" yMin="123" xMax="532" yMax="962">
      <contour>
        <pt x="532" y="562" on="1"/>
        <pt x="528" y="525" on="1"/>
        <pt x="236" y="123" on="1"/>
        <pt x="144" y="167" on="1"/>
        <pt x="105" y="186" on="0"/>
        <pt x="105" y="221" on="1"/>
        <pt x="105" y="235" on="0"/>
        <pt x="116" y="263" on="0"/>
        <pt x="126" y="279" on="1"/>
        <pt x="260" y="498" on="1"/>
        <pt x="268" y="512" on="0"/>
        <pt x="289" y="534" on="0"/>
        <pt x="300" y="542" on="1"/>
        <pt x="282" y="560" on="0"/>
        <pt x="272" y="589" on="1"/>
        <pt x="190" y="808" on="1"/>
        <pt x="182" y="829" on="0"/>
        <pt x="182" y="846" on="1"/>
        <pt x="182" y="869" on="0"/>
        <pt x="208" y="907" on="0"/>
        <pt x="236" y="918" on="1"/>
        <pt x="340" y="962" on="1"/>
      </contour>
    </TTGlyph>
    <TTGlyph name="h" xMin="43" yMin="0" xMax="1042" yMax="1497">
      <contour>
        <pt x="43" y="0" on="1"/>
        <pt x="225" y="1497" on="1"/>
        <pt x="535" y="1497" on="1"/>
        <pt x="462" y="901" on="1"/>
        <pt x="533" y="979" on="0"/>
        <pt x="691" y="1053" on="0"/>
        <pt x="775" y="1053" on="1"/>
        <pt x="833" y="1053" on="0"/>
        <pt x="932" y="1011" on="0"/>
        <pt x="1002" y="930" on="0"/>
        <pt x="1042" y="812" on="0"/>
        <pt x="1042" y="735" on="1"/>
        <pt x="1042" y="717" on="0"/>
        <pt x="1039" y="679" on="0"/>
        <pt x="1037" y="659" on="1"/>
        <pt x="959" y="0" on="1"/>
        <pt x="649" y="0" on="1"/>
        <pt x="727" y="659" on="1"/>
        <pt x="729" y="675" on="0"/>
        <pt x="731" y="702" on="0"/>
        <pt x="731" y="714" on="1"/>
        <pt x="731" y="768" on="0"/>
        <pt x="693" y="810" on="0"/>
        <pt x="655" y="810" on="1"/>
        <pt x="624" y="810" on="0"/>
        <pt x="556" y="773" on="0"/>
        <pt x="493" y="705" on="0"/>
        <pt x="438" y="609" on="0"/>
        <pt x="420" y="550" on="1"/>
        <pt x="353" y="0" on="1"/>
      </contour>
    </TTGlyph>
    <TTGlyph name="hungarumlaut" xMin="122" yMin="1168" xMax="918" yMax="1471">
      <contour>
        <pt x="562" y="1471" on="1"/>
        <pt x="346" y="1208" on="1"/>
        <pt x="325" y="1183" on="0"/>
        <pt x="277" y="1168" on="0"/>
        <pt x="244" y="1168" on="1"/>
        <pt x="122" y="1168" on="1"/>
        <pt x="258" y="1413" on="1"/>
        <pt x="276" y="1441" on="0"/>
        <pt x="325" y="1471" on="0"/>
        <pt x="370" y="1471" on="1"/>
      </contour>
      <contour>
        <pt x="918" y="1471" on="1"/>
        <pt x="644" y="1208" on="1"/>
        <pt x="621" y="1185" on="0"/>
        <pt x="577" y="1168" on="0"/>
        <pt x="544" y="1168" on="1"/>
        <pt x="402" y="1168" on="1"/>
        <pt x="594" y="1413" on="1"/>
        <pt x="604" y="1426" on="0"/>
        <pt x="626" y="1448" on="0"/>
        <pt x="652" y="1463" on="0"/>
        <pt x="684" y="1471" on="0"/>
        <pt x="706" y="1471" on="1"/>
      </contour>
    </TTGlyph>
    <TTGlyph name="hungarumlaut.case" xMin="160" yMin="1551" xMax="974" yMax="1779">
      <contour>
        <pt x="610" y="1779" on="1"/>
        <pt x="400" y="1592" on="1"/>
        <pt x="387" y="1582" on="0"/>
        <pt x="365" y="1567" on="0"/>
        <pt x="342" y="1556" on="0"/>
        <pt x="316" y="1551" on="0"/>
        <pt x="300" y="1551" on="1"/>
        <pt x="160" y="1551" on="1"/>
        <pt x="292" y="1719" on="1"/>
        <pt x="313" y="1746" on="0"/>
        <pt x="373" y="1779" on="0"/>
        <pt x="418" y="1779" on="1"/>
      </contour>
      <contour>
        <pt x="974" y="1779" on="1"/>
        <pt x="708" y="1592" on="1"/>
        <pt x="680" y="1572" on="0"/>
        <pt x="631" y="1551" on="0"/>
        <pt x="598" y="1551" on="1"/>
        <pt x="438" y="1551" on="1"/>
        <pt x="620" y="1719" on="1"/>
        <pt x="646" y="1743" on="0"/>
        <pt x="708" y="1779" on="0"/>
        <pt x="752" y="1779" on="1"/>
      </contour>
    </TTGlyph>
    <TTGlyph name="hyphen" xMin="92" yMin="486" xMax="624" yMax="728">
      <contour>
        <pt x="122" y="728" on="1"/>
        <pt x="624" y="728" on="1"/>
        <pt x="592" y="486" on="1"/>
        <pt x="92" y="486" on="1"/>
      </contour>
    </TTGlyph>
    <TTGlyph name="i" xMin="55" yMin="0" xMax="543" yMax="1503">
      <contour>
        <pt x="485" y="1037" on="1"/>
        <pt x="361" y="0" on="1"/>
        <pt x="55" y="0" on="1"/>
        <pt x="179" y="1037" on="1"/>
      </contour>
      <contour>
        <pt x="543" y="1321" on="1"/>
        <pt x="543" y="1284" on="0"/>
        <pt x="511" y="1219" on="0"/>
        <pt x="459" y="1170" on="0"/>
        <pt x="392" y="1141" on="0"/>
        <pt x="357" y="1141" on="1"/>
        <pt x="322" y="1141" on="0"/>
        <pt x="258" y="1170" on="0"/>
        <pt x="209" y="1219" on="0"/>
        <pt x="179" y="1284" on="0"/>
        <pt x="179" y="1321" on="1"/>
        <pt x="179" y="1358" on="0"/>
        <pt x="209" y="1424" on="0"/>
        <pt x="260" y="1474" on="0"/>
        <pt x="324" y="1503" on="0"/>
        <pt x="359" y="1503" on="1"/>
        <pt x="395" y="1503" on="0"/>
        <pt x="461" y="1475" on="0"/>
        <pt x="512" y="1425" on="0"/>
        <pt x="543" y="1359" on="0"/>
      </contour>
    </TTGlyph>
    <TTGlyph name="iacute" xMin="55" yMin="0" xMax="752" yMax="1471">
      <component glyphName="dotlessi" x="0" y="0" flags="0x204"/>
      <component glyphName="acute" x="-50" y="0" flags="0x4"/>
    </TTGlyph>
    <TTGlyph name="icircumflex" xMin="-18" yMin="0" xMax="696" yMax="1455">
      <component glyphName="dotlessi" x="0" y="0" flags="0x204"/>
      <component glyphName="circumflex" x="-50" y="0" flags="0x4"/>
    </TTGlyph>
    <TTGlyph name="idieresis" xMin="4" yMin="0" xMax="712" yMax="1476">
      <component glyphName="dotlessi" x="0" y="0" flags="0x204"/>
      <component glyphName="dieresis" x="-50" y="0" flags="0x4"/>
    </TTGlyph>
    <TTGlyph name="igrave" xMin="5" yMin="0" xMax="485" yMax="1471">
      <component glyphName="dotlessi" x="0" y="0" flags="0x204"/>
      <component glyphName="grave" x="7" y="0" flags="0x4"/>
    </TTGlyph>
    <TTGlyph name="infinity" xMin="36" yMin="214" xMax="1259" yMax="969">
      <contour>
        <pt x="881" y="214" on="1"/>
        <pt x="831" y="214" on="0"/>
        <pt x="752" y="239" on="0"/>
        <pt x="689" y="282" on="0"/>
        <pt x="640" y="340" on="0"/>
        <pt x="620" y="373" on="1"/>
        <pt x="592" y="340" on="0"/>
        <pt x="528" y="282" on="0"/>
        <pt x="454" y="239" on="0"/>
        <pt x="368" y="214" on="0"/>
        <pt x="318" y="214" on="1"/>
        <pt x="258" y="214" on="0"/>
        <pt x="155" y="261" on="0"/>
        <pt x="79" y="346" on="0"/>
        <pt x="36" y="464" on="0"/>
        <pt x="36" y="535" on="1"/>
        <pt x="36" y="624" on="0"/>
        <pt x="99" y="782" on="0"/>
        <pt x="204" y="900" on="0"/>
        <pt x="339" y="969" on="0"/>
        <pt x="412" y="969" on="1"/>
        <pt x="462" y="969" on="0"/>
        <pt x="541" y="944" on="0"/>
        <pt x="605" y="901" on="0"/>
        <pt x="654" y="843" on="0"/>
        <pt x="674" y="810" on="1"/>
        <pt x="702" y="843" on="0"/>
        <pt x="766" y="901" on="0"/>
        <pt x="840" y="944" on="0"/>
        <pt x="925" y="969" on="0"/>
        <pt x="975" y="969" on="1"/>
        <pt x="1035" y="969" on="0"/>
        <pt x="1139" y="922" on="0"/>
        <pt x="1216" y="838" on="0"/>
        <pt x="1259" y="720" on="0"/>
        <pt x="1259" y="649" on="1"/>
        <pt x="1259" y="560" on="0"/>
        <pt x="1196" y="401" on="0"/>
        <pt x="1091" y="283" on="0"/>
        <pt x="954" y="214" on="0"/>
      </contour>
      <contour>
        <pt x="363" y="456" on="1"/>
        <pt x="408" y="456" on="0"/>
        <pt x="484" y="533" on="0"/>
        <pt x="523" y="591" on="1"/>
        <pt x="511" y="620" on="0"/>
        <pt x="484" y="670" on="0"/>
        <pt x="454" y="707" on="0"/>
        <pt x="417" y="728" on="0"/>
        <pt x="395" y="728" on="1"/>
        <pt x="372" y="728" on="0"/>
        <pt x="330" y="705" on="0"/>
        <pt x="298" y="662" on="0"/>
        <pt x="279" y="600" on="0"/>
        <pt x="279" y="560" on="1"/>
        <pt x="279" y="503" on="0"/>
        <pt x="329" y="456" on="0"/>
      </contour>
      <contour>
        <pt x="900" y="456" on="1"/>
        <pt x="923" y="456" on="0"/>
        <pt x="965" y="478" on="0"/>
        <pt x="997" y="521" on="0"/>
        <pt x="1016" y="583" on="0"/>
        <pt x="1016" y="623" on="1"/>
        <pt x="1016" y="681" on="0"/>
        <pt x="965" y="728" on="0"/>
        <pt x="932" y="728" on="1"/>
        <pt x="887" y="728" on="0"/>
        <pt x="810" y="651" on="0"/>
        <pt x="772" y="593" on="1"/>
        <pt x="784" y="564" on="0"/>
        <pt x="810" y="514" on="0"/>
        <pt x="841" y="477" on="0"/>
        <pt x="877" y="456" on="0"/>
      </contour>
    </TTGlyph>
    <TTGlyph name="integral" xMin="-98" yMin="-336" xMax="998" yMax="1473">
      <contour>
        <pt x="445" y="1097" on="1"/>
        <pt x="465" y="1183" on="0"/>
        <pt x="533" y="1322" on="0"/>
        <pt x="632" y="1420" on="0"/>
        <pt x="761" y="1473" on="0"/>
        <pt x="843" y="1473" on="1"/>
        <pt x="878" y="1473" on="0"/>
        <pt x="962" y="1456" on="0"/>
        <pt x="998" y="1436" on="1"/>
        <pt x="965" y="1289" on="1"/>
        <pt x="963" y="1278" on="0"/>
        <pt x="956" y="1254" on="0"/>
        <pt x="941" y="1233" on="0"/>
        <pt x="918" y="1219" on="0"/>
        <pt x="901" y="1219" on="1"/>
        <pt x="859" y="1219" on="0"/>
        <pt x="804" y="1198" on="0"/>
        <pt x="768" y="1158" on="0"/>
        <pt x="746" y="1097" on="0"/>
        <pt x="736" y="1057" on="1"/>
        <pt x="498" y="72" on="1"/>
        <pt x="472" y="-33" on="0"/>
        <pt x="388" y="-187" on="0"/>
        <pt x="274" y="-288" on="0"/>
        <pt x="135" y="-336" on="0"/>
        <pt x="56" y="-336" on="1"/>
        <pt x="21" y="-336" on="0"/>
        <pt x="-61" y="-319" on="0"/>
        <pt x="-98" y="-298" on="1"/>
        <pt x="-66" y="-172" on="1"/>
        <pt x="-62" y="-157" on="0"/>
        <pt x="-54" y="-134" on="0"/>
        <pt x="-38" y="-118" on="0"/>
        <pt x="-11" y="-110" on="0"/>
        <pt x="10" y="-110" on="1"/>
        <pt x="62" y="-110" on="0"/>
        <pt x="129" y="-91" on="0"/>
        <pt x="170" y="-49" on="0"/>
        <pt x="194" y="17" on="0"/>
        <pt x="204" y="63" on="1"/>
      </contour>
    </TTGlyph>
    <TTGlyph name="j" xMin="-161" yMin="-357" xMax="533" yMax="1503">
      <contour>
        <pt x="487" y="1037" on="1"/>
        <pt x="361" y="-2" on="1"/>
        <pt x="352" y="-75" on="0"/>
        <pt x="297" y="-204" on="0"/>
        <pt x="202" y="-301" on="0"/>
        <pt x="66" y="-357" on="0"/>
        <pt x="-23" y="-357" on="1"/>
        <pt x="-67" y="-357" on="0"/>
        <pt x="-129" y="-348" on="0"/>
        <pt x="-161" y="-339" on="1"/>
        <pt x="-131" y="-176" on="1"/>
        <pt x="-127" y="-155" on="0"/>
        <pt x="-100" y="-135" on="0"/>
        <pt x="-67" y="-135" on="1"/>
        <pt x="-35" y="-135" on="0"/>
        <pt x="8" y="-123" on="0"/>
        <pt x="36" y="-93" on="0"/>
        <pt x="52" y="-42" on="0"/>
        <pt x="57" y="-2" on="1"/>
        <pt x="183" y="1037" on="1"/>
      </contour>
      <contour>
        <pt x="533" y="1321" on="1"/>
        <pt x="533" y="1284" on="0"/>
        <pt x="501" y="1219" on="0"/>
        <pt x="449" y="1170" on="0"/>
        <pt x="382" y="1141" on="0"/>
        <pt x="347" y="1141" on="1"/>
        <pt x="312" y="1141" on="0"/>
        <pt x="248" y="1170" on="0"/>
        <pt x="199" y="1219" on="0"/>
        <pt x="169" y="1284" on="0"/>
        <pt x="169" y="1321" on="1"/>
        <pt x="169" y="1358" on="0"/>
        <pt x="199" y="1424" on="0"/>
        <pt x="250" y="1474" on="0"/>
        <pt x="314" y="1503" on="0"/>
        <pt x="349" y="1503" on="1"/>
        <pt x="385" y="1503" on="0"/>
        <pt x="451" y="1475" on="0"/>
        <pt x="502" y="1425" on="0"/>
        <pt x="533" y="1359" on="0"/>
      </contour>
    </TTGlyph>
    <TTGlyph name="k" xMin="47" yMin="0" xMax="1119" yMax="1497">
      <contour>
        <pt x="537" y="1497" on="1"/>
        <pt x="434" y="658" on="1"/>
        <pt x="455" y="658" on="1"/>
        <pt x="481" y="658" on="0"/>
        <pt x="513" y="674" on="0"/>
        <pt x="529" y="695" on="1"/>
        <pt x="743" y="987" on="1"/>
        <pt x="762" y="1013" on="0"/>
        <pt x="808" y="1037" on="0"/>
        <pt x="841" y="1037" on="1"/>
        <pt x="1119" y="1037" on="1"/>
        <pt x="829" y="668" on="1"/>
        <pt x="809" y="642" on="0"/>
        <pt x="761" y="602" on="0"/>
        <pt x="735" y="587" on="1"/>
        <pt x="756" y="570" on="0"/>
        <pt x="787" y="525" on="0"/>
        <pt x="799" y="496" on="1"/>
        <pt x="1007" y="0" on="1"/>
        <pt x="737" y="0" on="1"/>
        <pt x="704" y="0" on="0"/>
        <pt x="661" y="23" on="0"/>
        <pt x="649" y="52" on="1"/>
        <pt x="505" y="419" on="1"/>
        <pt x="494" y="444" on="0"/>
        <pt x="469" y="459" on="0"/>
        <pt x="441" y="459" on="1"/>
        <pt x="409" y="459" on="1"/>
        <pt x="353" y="0" on="1"/>
        <pt x="47" y="0" on="1"/>
        <pt x="231" y="1497" on="1"/>
      </contour>
    </TTGlyph>
    <TTGlyph name="l" xMin="43" yMin="0" xMax="531" yMax="1497">
      <contour>
        <pt x="43" y="0" on="1"/>
        <pt x="225" y="1497" on="1"/>
        <pt x="531" y="1497" on="1"/>
        <pt x="349" y="0" on="1"/>
      </contour>
    </TTGlyph>
    <TTGlyph name="less" xMin="136" yMin="191" xMax="1013" yMax="1159">
      <contour>
        <pt x="151" y="735" on="1"/>
        <pt x="1013" y="1159" on="1"/>
        <pt x="986" y="944" on="1"/>
        <pt x="983" y="921" on="0"/>
        <pt x="955" y="882" on="0"/>
        <pt x="926" y="868" on="1"/>
        <pt x="624" y="715" on="1"/>
        <pt x="597" y="701" on="0"/>
        <pt x="536" y="682" on="0"/>
        <pt x="503" y="674" on="1"/>
        <pt x="535" y="666" on="0"/>
        <pt x="590" y="649" on="0"/>
        <pt x="614" y="635" on="1"/>
        <pt x="881" y="481" on="1"/>
        <pt x="922" y="458" on="0"/>
        <pt x="922" y="418" on="1"/>
        <pt x="922" y="410" on="0"/>
        <pt x="921" y="406" on="1"/>
        <pt x="893" y="191" on="1"/>
        <pt x="136" y="614" on="1"/>
      </contour>
    </TTGlyph>
    <TTGlyph name="lessequal" xMin="69" yMin="80" xMax="1025" yMax="1259">
      <contour>
        <pt x="169" y="878" on="1"/>
        <pt x="1025" y="1259" on="1"/>
        <pt x="999" y="1053" on="1"/>
        <pt x="996" y="1030" on="0"/>
        <pt x="965" y="989" on="0"/>
        <pt x="925" y="972" on="1"/>
        <pt x="641" y="855" on="1"/>
        <pt x="580" y="834" on="0"/>
        <pt x="507" y="819" on="1"/>
        <pt x="574" y="804" on="0"/>
        <pt x="632" y="781" on="1"/>
        <pt x="888" y="660" on="1"/>
        <pt x="920" y="645" on="0"/>
        <pt x="943" y="611" on="0"/>
        <pt x="943" y="591" on="1"/>
        <pt x="943" y="589" on="0"/>
        <pt x="942" y="580" on="0"/>
        <pt x="937" y="538" on="0"/>
        <pt x="926" y="452" on="0"/>
        <pt x="916" y="373" on="1"/>
        <pt x="153" y="757" on="1"/>
      </contour>
      <contour>
        <pt x="98" y="302" on="1"/>
        <pt x="908" y="302" on="1"/>
        <pt x="879" y="80" on="1"/>
        <pt x="69" y="80" on="1"/>
      </contour>
    </TTGlyph>
    <TTGlyph name="logicalnot" xMin="136" yMin="286" xMax="1068" yMax="779">
      <contour>
        <pt x="162" y="779" on="1"/>
        <pt x="1068" y="779" on="1"/>
        <pt x="1006" y="286" on="1"/>
        <pt x="754" y="286" on="1"/>
        <pt x="789" y="565" on="1"/>
        <pt x="136" y="565" on="1"/>
      </contour>
    </TTGlyph>
    <TTGlyph name="lozenge" xMin="120" yMin="-70" xMax="1080" yMax="1538">
      <contour>
        <pt x="120" y="734" on="1"/>
        <pt x="492" y="1538" on="1"/>
        <pt x="708" y="1538" on="1"/>
        <pt x="1080" y="734" on="1"/>
        <pt x="708" y="-70" on="1"/>
        <pt x="492" y="-70" on="1"/>
      </contour>
      <contour>
        <pt x="372" y="734" on="1"/>
        <pt x="560" y="298" on="1"/>
        <pt x="573" y="268" on="0"/>
        <pt x="592" y="215" on="0"/>
        <pt x="600" y="190" on="1"/>
        <pt x="608" y="215" on="0"/>
        <pt x="626" y="268" on="0"/>
        <pt x="640" y="298" on="1"/>
        <pt x="834" y="734" on="1"/>
        <pt x="640" y="1171" on="1"/>
        <pt x="615" y="1228" on="0"/>
        <pt x="600" y="1278" on="1"/>
        <pt x="592" y="1253" on="0"/>
        <pt x="572" y="1201" on="0"/>
        <pt x="560" y="1171" on="1"/>
      </contour>
    </TTGlyph>
    <TTGlyph name="lslash" xMin="67" yMin="0" xMax="677" yMax="1497">
      <contour>
        <pt x="67" y="746" on="1"/>
        <pt x="67" y="785" on="0"/>
        <pt x="103" y="800" on="1"/>
        <pt x="216" y="846" on="1"/>
        <pt x="295" y="1497" on="1"/>
        <pt x="601" y="1497" on="1"/>
        <pt x="535" y="954" on="1"/>
        <pt x="677" y="1010" on="1"/>
        <pt x="677" y="836" on="1"/>
        <pt x="677" y="789" on="0"/>
        <pt x="637" y="774" on="1"/>
        <pt x="506" y="720" on="1"/>
        <pt x="419" y="0" on="1"/>
        <pt x="113" y="0" on="1"/>
        <pt x="187" y="613" on="1"/>
        <pt x="67" y="566" on="1"/>
      </contour>
    </TTGlyph>
</ttFont>
